<svg xmlns="http://www.w3.org/2000/svg" width="129" height="123" viewBox="0 0 129 123">
    <path fill="#010101" fill-rule="evenodd" d="M39.82 122.704c-6.88-.238-7.832-.325-10.636-.967-6.64-1.522-12.37-4.11-16.913-7.64-5.785-4.493-8.272-7.817-10.998-14.7C-.004 96.176-.37 87.87.403 79.704c.395-4.17 2.645-12.534 4.91-18.245 2.474-6.243 7.37-16.25 10.558-21.585 2.369-3.964 4.188-6.71 8.11-12.246 1.997-2.817 7.374-9.306 9.072-10.949 1.64-1.586 5.153-4.534 5.817-4.88.323-.17 1.729-1.138 3.124-2.153 3.482-2.532 5.74-4 6.887-4.477.532-.22 1.239-.584 1.57-.808.746-.5 3.246-1.523 6.284-2.57C62.852-.315 75.2-.621 81.23 1.185c1.795.538 2.513.872 8.007 3.733 5.647 2.94 7.572 4.357 11.961 8.799a243.562 243.562 0 0 0 5.213 5.116c3.317 3.115 6.174 6.964 9.59 12.919.995 1.736 1.893 3.422 1.994 3.746.102.323.713 1.637 1.36 2.92.646 1.282 1.175 2.422 1.175 2.533 0 .111.43 1.128.955 2.26 1.733 3.735 2.83 6.859 3.225 9.186.468 2.753 1.097 6.238 1.397 7.733.947 4.716.836 9.863-.29 13.489-.4 1.286-1 3.264-1.332 4.394-.333 1.13-.86 2.49-1.17 3.023-.723 1.246-2.897 3.302-4.184 3.958-.55.281-1.115.724-1.254.985-.433.808-2.373 1.962-4.557 2.71-9.588 3.284-12.736 3.887-20.459 3.92-4.572.02-5.502-.04-6.645-.424-1.766-.593-6.83-2.95-7.9-3.677-1.801-1.222-5.783-5.379-7.365-7.689-.091-.132-.886.38-1.8 1.16-.958.818-2.494 1.798-3.704 2.364-2.38 1.113-7.059 2.364-8.85 2.367-2.188.003-7.181-1.304-10.603-2.776-.525-.226-1.58-1.05-2.345-1.832-1.13-1.155-1.483-1.718-1.883-3.014-.97-3.144-1.259-6.891-.71-9.228.332-1.41 1.426-4.687 1.676-5.017.1-.134 1.147-2.145 2.326-4.471 3.535-6.973 6.135-10.004 13.191-15.377 1.767-1.345 2.205-1.553 4.747-2.253a262.51 262.51 0 0 0 5.096-1.465c2.729-.824 4.709-1.205 7.491-1.438 1.13-.095 2.758-.362 3.617-.594.86-.231 2.437-.434 3.504-.452 1.654-.026 2.328.101 4.562.863 3.983 1.358 5.566 2.475 8.46 5.965 1.053 1.271 1.848 3.613 1.848 5.447 0 .703-.23 2.02-.51 2.928-.446 1.443-.727 1.867-2.242 3.382-1.516 1.516-1.94 1.797-3.382 2.243-2.069.638-3.765.645-5.78.023-1.781-.55-3.206-1.692-5.245-4.206l-1.254-1.545-1.97-.168c-1.084-.092-2.622-.386-3.42-.653-1.166-.39-1.804-.455-3.262-.334-.997.082-2.9.218-4.23.302l-2.416.151-2.278 1.555c-4.787 3.267-6.234 4.607-8.158 7.56-2.53 3.88-4.218 8.22-4.16 10.695.047 1.986.182 2.161 2.038 2.64.926.238 2.772.503 4.1.587 2.228.143 2.53.107 3.867-.453.798-.334 1.804-.683 2.237-.775.433-.093 1.358-.627 2.054-1.188a48.013 48.013 0 0 1 2.038-1.557c.886-.618 2.781-3.38 3.187-4.645.432-1.343 2.318-3.022 3.905-3.476 1.222-.35 1.452-.35 2.658.002 1.569.457 3.458 2.146 3.888 3.474.152.471.586 1.474.963 2.228.377.753.9 2.145 1.163 3.092.424 1.532.68 1.947 2.316 3.748 1.537 1.693 2.19 2.206 3.982 3.132 2.95 1.523 4.676 1.988 8.22 2.211 3.485.22 4.857.184 6.04-.155.466-.134 1.683-.393 2.706-.576 2.948-.53 4.924-1.439 6.667-3.067.836-.78 1.62-1.419 1.743-1.419.361 0 .739-.888 1.35-3.172.315-1.177.836-2.66 1.158-3.295.941-1.857 1.655-5.863 1.523-8.544-.458-9.305-.77-11.29-2.728-17.37-1.814-5.63-2.652-7.755-4.408-11.159-3.3-6.401-4.543-8.066-10.866-14.555-5.746-5.897-6.106-6.216-8.019-7.08-1.879-.85-2.767-1.293-4.839-2.418-2.862-1.554-4.63-2.18-8.174-2.895-4.496-.906-7.87-.901-13.448.018-8.1 1.336-13.15 3.404-21.526 8.82-1.361.88-2.897 1.852-3.411 2.16-1.52.908-5.179 4.304-7.989 7.414-2.757 3.052-6.011 7.227-9.041 11.6a155.06 155.06 0 0 1-2.234 3.113c-2.083 2.82-4.393 6.813-7.007 12.11-4.334 8.786-6.307 13.586-7.752 18.86-2.108 7.688-2.684 12.07-2.479 18.838.107 3.518.14 3.706 1.112 6.383.995 2.741 3.006 6.793 3.991 8.043.283.36.896 1.155 1.36 1.767.9 1.184 2.642 2.766 4.529 4.115 5.636 4.028 8.773 5.461 16.616 7.593 2.977.81 3.58.932 5.92 1.208 1.263.15 2.895.401 3.626.56.915.198 4.671.289 12.082.292 11.723.004 12.21-.03 24.407-1.698 10.002-1.368 12.388-1.782 16.137-2.8a127.695 127.695 0 0 1 7.182-1.682c4.268-.843 5.462-1.205 7.733-2.345.93-.467 3.074-1.252 4.763-1.744 2.23-.65 3.504-1.177 4.647-1.921.866-.565 2.107-1.182 2.758-1.373.909-.266 1.417-.624 2.188-1.539 2.019-2.393 5.068-2.201 5.965.377.415 1.19.424 2.013.038 3.287-.546 1.799-4.113 3.822-6.748 3.828-.489 0-1.685.318-2.658.705-.974.387-2.804.884-4.066 1.104-1.263.22-3.981.931-6.041 1.58-3.681 1.158-4.84 1.407-8.942 1.915-1.13.14-4.174.787-6.766 1.438-2.796.702-6.578 1.443-9.303 1.822-2.526.352-6.875.974-9.666 1.383-3.912.574-6.542.798-11.479.98-9.159.336-16.468.394-22.715.178"/>
</svg>
