<svg xmlns="http://www.w3.org/2000/svg" width="23" height="17" viewBox="0 0 23 17">
    <path fill="#FFF" fill-opacity=".7" fill-rule="nonzero" d="M3.548 9.54l1.343 1.343a1.04 1.04 0 1 1-1.47 1.47L.306 9.234a1.07 1.07 0 0 1-.069-.076l-.015-.02a1.063 1.063 0 0 1-.046-.061l-.01-.019a1.047 1.047 0 0 1-.042-.069l-.007-.013a1.01 1.01 0 0 1-.037-.079L.076 8.89a1.033 1.033 0 0 1-.03-.086l-.004-.01a1.026 1.026 0 0 1-.022-.089L.016 8.68c-.004-.025-.008-.05-.01-.075a1.015 1.015 0 0 1 .01-.282l.004-.026c.006-.03.014-.059.022-.088l.003-.01c.009-.03.02-.058.03-.086l.004-.01c.011-.027.024-.053.037-.078l.007-.014.04-.069.013-.019a.994.994 0 0 1 .045-.061l.015-.02c.022-.027.044-.052.069-.076l3.117-3.117a1.04 1.04 0 1 1 1.47 1.47L3.547 7.46h12.039a1.04 1.04 0 0 1 0 2.078H3.547zM14.36 0c4.687 0 8.5 3.813 8.5 8.5 0 4.687-3.813 8.5-8.5 8.5a8.496 8.496 0 0 1-7.047-3.747 1.04 1.04 0 1 1 1.722-1.163 6.42 6.42 0 0 0 5.325 2.832A6.43 6.43 0 0 0 20.782 8.5a6.43 6.43 0 0 0-6.422-6.422 6.418 6.418 0 0 0-5.334 2.845 1.04 1.04 0 0 1-1.725-1.16A8.494 8.494 0 0 1 14.361 0z"/>
</svg>
