<?xml version="1.0" encoding="UTF-8"?>
<svg width="17px" height="17px" viewBox="0 0 17 17" version="1.1" xmlns="http://www.w3.org/2000/svg" xmlns:xlink="http://www.w3.org/1999/xlink">
    <!-- Generator: Sketch 47.1 (45422) - http://www.bohemiancoding.com/sketch -->
    <title>ico-info</title>
    <desc>Created with Sketch.</desc>
    <defs></defs>
    <g id="Symbols" stroke="none" stroke-width="1" fill="none" fill-rule="evenodd">
        <g id="header-logged-in-B" transform="translate(-743.000000, -23.000000)" fill-rule="nonzero" fill="#FFFFFF">
            <g id="tool-overview" transform="translate(743.000000, 22.000000)">
                <path d="M8.5,1 C3.8131,1 0,4.81315152 0,9.50005152 C0,14.1869515 3.8131,18 8.5,18 C13.1869,18 17,14.1869515 17,9.50005152 C17,4.81315152 13.1869,1 8.5,1 Z M8.5,16.4545455 C4.66521212,16.4545455 1.54545455,13.3347879 1.54545455,9.50005152 C1.54545455,5.66531515 4.66521212,2.54545455 8.5,2.54545455 C12.3347879,2.54545455 15.4545455,5.66531515 15.4545455,9.50005152 C15.4545455,13.3347879 12.3347364,16.4545455 8.5,16.4545455 Z M8.49989697,4.60606061 C7.93189091,4.60606061 7.4698,5.06846061 7.4698,5.63682727 C7.4698,6.20467879 7.93189091,6.66666667 8.49989697,6.66666667 C9.06790303,6.66666667 9.52999394,6.20467879 9.52999394,5.63682727 C9.52999394,5.06846061 9.06790303,4.60606061 8.49989697,4.60606061 Z M8.5,8.21212121 C8.07324848,8.21212121 7.72727273,8.55809697 7.72727273,8.98484848 L7.72727273,13.6212121 C7.72727273,14.0479636 8.07324848,14.3939394 8.5,14.3939394 C8.92675152,14.3939394 9.27272727,14.0479636 9.27272727,13.6212121 L9.27272727,8.98484848 C9.27272727,8.55809697 8.92675152,8.21212121 8.5,8.21212121 Z" id="ico-info"></path>
            </g>
        </g>
    </g>
</svg>