<?xml version="1.0" encoding="UTF-8"?>
<svg width="17px" height="17px" viewBox="0 0 17 17" version="1.1" xmlns="http://www.w3.org/2000/svg" xmlns:xlink="http://www.w3.org/1999/xlink">
    <!-- Generator: Sketch 47.1 (45422) - http://www.bohemiancoding.com/sketch -->
    <title>ico-help</title>
    <desc>Created with Sketch.</desc>
    <defs></defs>
    <g id="Symbols" stroke="none" stroke-width="1" fill="none" fill-rule="evenodd">
        <g id="header-logged-in-B" transform="translate(-902.000000, -23.000000)" fill-rule="nonzero" fill="#FFFFFF">
            <g id="help" transform="translate(902.000000, 22.000000)">
                <path d="M8.5,1 C3.8131,1 0,4.81304848 0,9.49994848 C0,14.1868485 3.8131,18 8.5,18 C13.1869,18 17,14.1868485 17,9.49994848 C17,4.81304848 13.1869,1 8.5,1 Z M8.5,16.4545455 C4.66526364,16.4545455 1.54545455,13.3347364 1.54545455,9.49994848 C1.54545455,5.66521212 4.66526364,2.54545455 8.5,2.54545455 C12.3347364,2.54545455 15.4545455,5.66521212 15.4545455,9.49994848 C15.4545455,13.3347364 12.3347364,16.4545455 8.5,16.4545455 Z M8.50010303,12.8484848 C7.93209697,12.8484848 7.47000606,13.3104727 7.47000606,13.8783242 C7.47000606,14.4466909 7.93209697,14.9090909 8.50010303,14.9090909 C9.06810909,14.9090909 9.5302,14.4466909 9.5302,13.8783242 C9.5302,13.3104727 9.06810909,12.8484848 8.50010303,12.8484848 Z M8.5,4.09090909 C6.93692727,4.09090909 5.66532727,5.36250909 5.66532727,6.92547879 C5.66532727,7.3522303 6.01130303,7.69820606 6.43805455,7.69820606 C6.86480606,7.69820606 7.21078182,7.3522303 7.21078182,6.92547879 C7.21078182,6.21467273 7.78909091,5.63636364 8.5,5.63636364 C9.21090909,5.63636364 9.7892697,6.21467273 9.7892697,6.92547879 C9.7892697,7.63638788 9.21090909,8.21469697 8.5,8.21469697 C8.07324848,8.21469697 7.72727273,8.56067273 7.72727273,8.98742424 L7.72727273,10.530303 C7.72727273,10.9570545 8.07324848,11.3030303 8.5,11.3030303 C8.92675152,11.3030303 9.27272727,10.9570545 9.27272727,10.530303 L9.27272727,9.65227879 C10.4612848,9.31495758 11.3347242,8.22067273 11.3347242,6.9255303 C11.3347242,5.36250909 10.0630727,4.09090909 8.5,4.09090909 Z" id="ico-help"></path>
            </g>
        </g>
    </g>
</svg>