<?xml version="1.0" encoding="UTF-8"?>
<svg width="17px" height="20px" viewBox="0 0 17 20" version="1.1" xmlns="http://www.w3.org/2000/svg" xmlns:xlink="http://www.w3.org/1999/xlink">
    <!-- Generator: Sketch 46.2 (44496) - http://www.bohemiancoding.com/sketch -->
    <title>Shape</title>
    <desc>Created with Sketch.</desc>
    <defs></defs>
    <g id="Symbols" stroke="none" stroke-width="1" fill="none" fill-rule="evenodd">
        <g id="header-logged-in-B" transform="translate(-1028.000000, -23.000000)" fill-rule="nonzero" fill="#FFFFFF">
            <path d="M1036.5,43 C1037.6,43 1038.5,42.1 1038.5,41 L1034.5,41 C1034.5,42.1 1035.4,43 1036.5,43 Z M1043,37 L1043,31.5 C1043,28.4 1040.9,25.9 1038,25.2 L1038,24.5 C1038,23.7 1037.3,23 1036.5,23 C1035.7,23 1035,23.7 1035,24.5 L1035,25.2 C1032.1,25.9 1030,28.4 1030,31.5 L1030,37 L1028,39 L1028,40 L1045,40 L1045,39 L1043,37 Z M1041,38 L1032,38 L1032,31.5 C1032,29 1034,27 1036.5,27 C1039,27 1041,29 1041,31.5 L1041,38 Z" id="Shape"></path>
        </g>
    </g>
</svg>