<svg xmlns="http://www.w3.org/2000/svg" xmlns:xlink="http://www.w3.org/1999/xlink" width="164" height="160" viewBox="0 0 164 160">
    <defs>
        <path id="a" d="M164.008 159.807V.025H0v159.782h164.008z"/>
    </defs>
    <g fill="none" fill-rule="evenodd">
        <path fill="#EC6528" d="M61.251 82.613c.679-.928 1.494-2.654 1.659-3.514.175-.91.611-1.635 1.125-1.869.265-.12.773-.752 1.154-1.433 1.742-3.115 5.342-6.713 8.433-8.429 1.417-.786 4.515-1.878 6.384-2.25 1.759-.349 6.52-.349 8.28 0 1.867.372 4.966 1.464 6.383 2.25 3.195 1.774 6.756 5.38 8.563 8.674.431.785.927 1.502 1.101 1.594.175.09 1.422.228 2.771.304 2.194.124 2.467.104 2.577-.183.192-.5-2.609-5.911-4.038-7.805-2.514-3.33-5.457-5.774-9.368-7.775-4.627-2.369-7.455-3.075-12.322-3.075-4.868 0-7.695.706-12.327 3.077-3.935 2.014-6.907 4.495-9.432 7.87-1.922 2.572-4.619 8.233-4.619 9.698 0 .363.347.94 1.107 1.843a58.265 58.265 0 0 1 1.299 1.577c.321.443.645.301 1.27-.554zm3.675 8.29c-.118-.774-.267-2.317-.332-3.429-.12-2.062-.369-3.273-.671-3.273-.698 0-.284 5.71.579 7.978.155.408.268.5.425.343.156-.156.156-.59-.001-1.62zm28.076-11.078c.576-.732 1.35-1.205 1.974-1.206.75-.002.687-.516-.193-1.555-.905-1.07-1.22-1.348-2.624-2.327-5.026-3.501-10.949-3.505-16.027-.01-1.226.844-2.191 1.698-2.191 1.94 0 .24.806.912 1.54 1.284.37.187.908.514 1.194.726.457.338.566.352.892.114 1.704-1.24 2.24-1.548 3.321-1.913 2.441-.826 5.3-.665 7.628.43.506.238 1.528 1.017 2.27 1.731.742.715 1.452 1.302 1.576 1.305.125.003.413-.23.64-.52zM76.34 83.172c.261-.19.32-.394.226-.77-.07-.281-.211-.511-.312-.511-.196 0-.772.998-.772 1.338 0 .28.435.252.858-.057zm-3.362 1.347l1.443-.444.553-1.471c.305-.81.504-1.601.443-1.76-.159-.415-2.777-1.69-3.197-1.556-.192.06-.592.65-.89 1.308-.446.987-.537 1.444-.518 2.592.035 2.038-.02 2.005 2.166 1.331zm13.094 1.003c0-.12-.494-.83-1.097-1.577l-1.097-1.358-.542 1.144c-.298.63-.518 1.274-.49 1.433.08.442 3.226.792 3.226.358zm5.604 5.755c.69-1.063.767-1.293.658-1.974-.267-1.655-.46-4.135-.472-6.084-.013-1.952-.04-2.075-.592-2.84-1.037-1.43-3.462-2.881-5.538-3.312-1.146-.238-1.393-.15-1.062.38.121.194.283.689.36 1.099.076.41.326 1.049.556 1.42.23.37.474.826.543 1.012.069.187.59 1.053 1.157 1.926 2.208 3.392 2.419 4.022 2.699 8.058.135 1.938.582 2.021 1.69.315zm5.367.184c.671-1.481 1.159-3.747 1.159-5.386 0-1.3-.64-4.124-1.023-4.512-.126-.128-.585-.289-1.022-.358-.738-.117-.826-.08-1.276.52-.43.577-.494.883-.58 2.819-.09 2.004-.056 2.294.436 3.754.293.87.622 1.8.731 2.064.11.265.304.893.432 1.396.129.503.315.915.414.915.098 0 .426-.546.729-1.212zm-18.758.613c.17-.33.358-1.088.417-1.685s.225-1.32.369-1.605c.144-.287.262-.958.262-1.492 0-.68.174-1.34.578-2.195.317-.672.578-1.343.578-1.492.001-.149.174-.53.384-.848.21-.318.383-.762.384-.987 0-.226.145-.745.321-1.155.176-.41.385-1.18.464-1.709.079-.53.204-1.114.278-1.3.107-.266.035-.336-.341-.336-.558 0-2.943 1.153-3.546 1.715l-.416.388.362.954c.2.524.421 1.529.493 2.233l.131 1.28-.742.76c-.535.547-1.052.846-1.853 1.071-1.495.42-1.608.584-1.335 1.946.354 1.76 2.124 5.056 2.716 5.056.102 0 .326-.27.496-.6zm8.391 2.854c.54-.225.725-.433.832-.935.144-.673.16-2.524.035-4.016a56.19 56.19 0 0 1-.099-1.347l-.026-.482-2.79-.027-2.792-.027v.533c0 .293-.119.825-.264 1.182-.328.81-.541 3.502-.348 4.404.127.595.245.702 1.004.911 1.074.297 3.528.19 4.448-.196zm.126 4.948c2.409-.497 5.46-2.1 7.116-3.74.733-.728.776-1.064.212-1.665-.262-.279-.51-.951-.678-1.835-.145-.768-.331-1.463-.415-1.547-.083-.082-.71.513-1.392 1.323-1.992 2.363-2.415 2.764-2.924 2.764-.258 0-1.147.173-1.975.385-1.806.461-3.064.485-4.94.09-1.112-.234-1.514-.248-1.95-.068-.467.194-.623.172-1.065-.154-.284-.21-.603-.666-.708-1.015-.105-.35-.683-1.191-1.283-1.871-1.33-1.507-1.847-2.562-2.267-4.629-.176-.87-.376-1.637-.444-1.704-.205-.205-2.862.706-2.984 1.022-.16.417.332 4.449.633 5.19.693 1.707 2.519 3.829 4.395 5.11 3.361 2.294 7.015 3.097 10.669 2.344zm-5.616.568c-2.992-.642-5.151-1.82-7.336-4.005-.65-.65-1.467-1.596-1.816-2.104l-.634-.922-.426.4c-.5.47-1.5.528-1.847.11-.166-.2-.196-.545-.095-1.108.08-.449.15-1.12.157-1.49.02-1.398-.475-5.912-.754-6.873-.221-.76-.268-1.617-.196-3.562.053-1.409.1-2.858.105-3.22.02-1.447 1.274-1.904 3.452-1.257l1.005.298 1.196-1.089c2.448-2.228 4.317-3.206 7.313-3.824 2.68-.554 5.565-.29 8.362.762 2.098.79 4.045 2.287 6.032 4.638 1.07 1.266 1.454 1.59 2.01 1.694.818.154 1.905 1.053 2.17 1.794.633 1.771.656 1.941.345 2.54-.165.321-.548.711-.85.868-.543.28-.55.31-.642 2.361-.057 1.3-.255 2.676-.53 3.675-.24.879-.39 1.644-.334 1.7.057.058.278.01.492-.104.214-.115.553-.208.753-.208.514 0 1.202.797 1.202 1.393 0 1.175-2.147 2.656-3.995 2.756-.912.05-1.117.15-2.118 1.051-.609.548-1.608 1.34-2.22 1.76-2.81 1.927-7.23 2.732-10.801 1.966zm6.93 6.015c4.275-.913 8.971-3.702 11.607-6.894 3.608-4.37 5.466-10.136 4.873-15.123-.27-2.274-.674-3.887-1.03-4.112-.143-.091-.547-.168-.896-.17-.687-.002-1.58-.712-1.58-1.254 0-.333.72-1.134 1.166-1.295.221-.08.14-.366-.396-1.399-1.626-3.13-4.72-6.118-8.22-7.935-3.531-1.832-5.95-2.46-9.494-2.46-1.217 0-2.82.12-3.561.266-4.39.863-9.34 3.734-11.985 6.95-1.432 1.741-2.983 4.404-2.856 4.903.053.208.002.751-.113 1.208-.234.931.037 2.79.553 3.787.302.584.766 4.913.958 8.933.09 1.9.06 2.223-.237 2.551-.186.207-.494.376-.683.376-.61 0-.56.296.303 1.81 3.046 5.347 8.644 9.113 15.038 10.12 1.505.237 4.842.104 6.553-.262zm.985 6.636c2.601-.533 4.267-1.145 7.175-2.634 5.392-2.76 9.06-6.427 11.818-11.815 2.031-3.968 2.884-6.968 3.131-11.015.126-2.063-.162-5.434-.571-6.683-.211-.643-.284-.694-.997-.694h-.77l.097 1.06c.126 1.389.07 5.772-.129 10.173-.153 3.385-.178 3.547-.614 3.899-.584.471-1.084.466-1.567-.018-.485-.485-.485-.904 0-1.636.35-.53.381-.887.363-4.332-.01-2.065-.09-4.015-.178-4.332-.087-.318-.26-1.271-.385-2.118-.244-1.66-.648-2.671-1.016-2.546-.285.098-.271.896.051 3.123.472 3.25.065 6.922-1.151 10.397-1.054 3.01-2.733 5.541-5.316 8.013-2.51 2.402-4.454 3.61-7.484 4.652-2.802.964-4.251 1.198-7.412 1.198-1.61 0-3.362-.113-4.14-.268-1.876-.373-4.969-1.464-6.4-2.258-2.233-1.24-5.074-3.774-6.956-6.205-2.32-2.996-3.77-7.2-4.013-11.63-.062-1.138-.172-2.07-.243-2.07-.072 0-.334.217-.583.482-.82.873-1.513.68-3.107-.867-.764-.741-1.498-1.347-1.632-1.347-.635 0-.568 4.526.117 7.885.52 2.555 1.137 4.232 2.624 7.137 2.757 5.386 6.41 9.039 11.825 11.825 3.368 1.734 6.146 2.603 9.812 3.068 1.516.193 5.741-.053 7.65-.444h.001zm-8.805 1.331c-6.514-.906-11.784-3.511-16.36-8.088-3.824-3.823-5.959-7.538-7.413-12.895-.315-1.16-.52-1.613-.706-1.556-.93.286-1.634.222-2-.18-.353-.392-.385-.759-.445-5.167-.036-2.61-.075-5.006-.087-5.323-.076-1.964.052-2.626.618-3.192.737-.737 1.08-.71 1.863.146.357.39.69.667.741.617.05-.05.406-.998.79-2.105 1.358-3.924 3.45-7.195 6.638-10.383 4.105-4.105 8.517-6.493 14.31-7.744 2.83-.612 8.588-.612 11.417 0 5.794 1.251 10.206 3.64 14.31 7.744 3.05 3.05 5.082 6.144 6.45 9.825.366.985.79 1.915.942 2.067.152.152.696.32 1.21.375.514.055 1.086.232 1.272.394.776.678.05 1.884-1.204 2l-.674.063.097 1.348c.228 3.19.062 7.658-.359 9.655-1.205 5.728-3.62 10.198-7.733 14.311-4.085 4.085-8.567 6.518-14.212 7.715-2.13.452-7.405.66-9.465.373zm7.276 9.431c4.695-.5 8.512-1.597 12.651-3.634 4.183-2.059 6.802-3.872 9.89-6.848 3.273-3.153 5.556-6.332 7.746-10.786 3.59-7.302 4.66-15.128 3.132-22.913-.347-1.764-.632-2.448-.641-1.535-.003.321-.125.754-.27.963-.146.209-.324.683-.396 1.054-.073.37-.255 1.194-.405 1.829-.15.635-.36 2.309-.467 3.719-.107 1.41-.253 2.66-.326 2.777-.072.117-.113 1.06-.09 2.095.037 1.646-.022 2.047-.473 3.192-.645 1.64-1.292 2.369-2.101 2.369-.33 0-.704-.104-.83-.231-.413-.413-.265-1.408.319-2.142.716-.901.978-1.93 1.064-4.174.087-2.286.448-7.108.685-9.145.099-.848.237-2.277.308-3.177.15-1.921.514-2.503 1.565-2.503.404 0 .64-.095.64-.256 0-.842-2.57-6.05-4.228-8.571-3.79-5.758-8.58-9.92-15.122-13.14-6.217-3.06-13.015-4.326-19.502-3.634-4.695.501-8.513 1.597-12.652 3.635-6.568 3.232-11.315 7.365-15.166 13.205-1.433 2.172-3.885 7.102-3.732 7.501.063.163.306.297.54.297.235 0 .628.188.873.419.492.462.595 1.557.266 2.832-.099.383-.32 1.433-.49 2.333-.299 1.57-.295 1.694.079 3.08.287 1.065.39 2.051.394 3.755.002 1.27.134 2.99.293 3.82.554 2.895.264 4.519-.983 5.5-.7.55-.97.51-1.736-.256l-.66-.66.43-.882c.411-.847.418-.945.169-2.47-.142-.872-.333-2.973-.422-4.667-.371-6.992-.665-7.91-1.126-3.522-.504 4.79.13 10.196 1.778 15.164.765 2.306 2.84 6.511 4.327 8.767 3.83 5.81 8.563 9.94 15.109 13.185 6.154 3.05 13.085 4.346 19.56 3.655zm-8.239 1.64c-6.97-.863-13.664-3.577-19.158-7.766-1.618-1.234-5.304-4.853-6.695-6.574-5.49-6.792-8.611-15.725-8.611-24.645 0-8.595 2.89-17.195 8.058-23.971 1.234-1.619 4.853-5.305 6.574-6.696 6.792-5.49 15.725-8.611 24.645-8.611s17.853 3.12 24.645 8.61c1.722 1.392 5.341 5.078 6.575 6.697 5.167 6.776 8.058 15.376 8.058 23.97 0 8.92-3.12 17.854-8.61 24.646-1.392 1.72-5.078 5.34-6.696 6.574-5.683 4.333-12.66 7.08-19.969 7.86-2.446.26-6.287.22-8.816-.094z"/>
        <g transform="translate(0 .167)">
            <mask id="b" fill="#fff">
                <use xlink:href="#a"/>
            </mask>
            <path fill="#0D0D0D" d="M78.733 159.27c-.697-.301-2.47-1.174-3.94-1.938-1.504-.781-3.972-1.844-5.643-2.43-1.634-.572-3.413-1.304-3.955-1.625-3.166-1.881-5.208-3.278-7.701-5.266-1.09-.87-5.075-4.932-5.464-5.572-.184-.3-1.763-1.724-3.51-3.162-3.547-2.92-9.213-8.513-10.997-10.857a38.868 38.868 0 0 1-2.1-3.111c-.512-.868-1.282-2.054-1.711-2.636-1.16-1.573-2.666-3.865-5.084-7.738a662.401 662.401 0 0 0-2.093-3.327 118.31 118.31 0 0 1-3.241-5.397c-.354-.636-.835-1.416-1.067-1.733-.693-.945-2.235-3.567-2.896-4.924-.71-1.458-2.883-7.84-3.634-10.672-.28-1.059-.987-3.355-1.57-5.102-1.104-3.31-1.931-6.342-2.958-10.836-.772-3.383-1.145-4.428-4.58-12.846-1.541-3.777-4.346-9.993-5.263-11.665-1.111-2.026-1.012-3.354.25-3.354.43 0 .555.105.64.53.058.291.372 1.05.699 1.685 3.557 6.93 4.682 9.249 5.603 11.552l1.773 4.428a86.756 86.756 0 0 0 1.547 3.562c.945 2.03 1.387 3.489 2.771 9.146.518 2.118 1.505 5.41 2.192 7.317a323.773 323.773 0 0 1 2.747 8.086c1.489 4.59 2.564 7.116 3.893 9.146 2.032 3.103 3.322 5.163 3.322 5.304 0 .173 1.581 2.741 2.862 4.647.626.934 1.902 2.91 2.834 4.393a107.469 107.469 0 0 0 3.453 5.102c.967 1.324 2.3 3.295 2.964 4.38 2.035 3.329 6.706 8.112 12.687 12.991 1.391 1.136 2.788 2.421 3.104 2.857 1.439 1.987 4.992 5.284 7.62 7.072 3.78 2.573 4.754 3.073 8.745 4.496 1.756.626 3.712 1.388 4.347 1.693a18.6 18.6 0 0 0 2.214.873c.583.175 1.277.474 1.544.665.267.19.7.412.963.491.263.08.77.28 1.125.445.63.291.727.273 3.37-.628 3.195-1.09 3.9-1.42 5.32-2.491 1.06-.8 5.32-3.37 8.144-4.912.825-.451 2.457-1.505 3.627-2.342 1.17-.837 2.185-1.522 2.255-1.522.152 0 2.263-1.79 3.475-2.948.465-.444 1.762-1.5 2.882-2.347s2.237-1.844 2.484-2.214c.246-.371 3.035-3.286 6.197-6.479 5.208-5.256 5.854-5.98 6.85-7.671.604-1.028 1.33-2.141 1.614-2.475.284-.334.675-.868.87-1.185.194-.318.55-.795.792-1.06.242-.264.63-.85.862-1.3.232-.45.499-.867.593-.925.17-.105 3.735-6.02 4.983-8.268.353-.635.772-1.307.932-1.493.16-.187.688-.979 1.174-1.76.485-.783 1.663-2.567 2.616-3.965.953-1.398 1.915-2.858 2.137-3.245 1.436-2.497 3.815-7.119 4.377-8.502.365-.9.922-2.2 1.236-2.888 1.344-2.938 1.682-3.887 2.362-6.633.394-1.594.953-3.634 1.24-4.534 1.462-4.573 2.277-7.295 2.97-9.928.42-1.595 1.213-4.021 1.76-5.391 1.82-4.555 1.707-4.184 2.321-7.593.125-.689.388-1.857.587-2.596.33-1.233.495-3.75.26-3.985-.161-.163-2.598.33-3.943.798-1.16.403-1.459.426-4.044.31-1.535-.07-4.741-.2-7.124-.292-4.13-.16-7.26-.525-10.782-1.26-1.682-.35-1.494-.296-6.354-1.821-8.847-2.777-9.612-3.087-14.365-5.81-1.826-1.047-3.359-1.903-3.406-1.903-.24 0-6.383-3.657-7.57-4.506-2.756-1.972-4.342-3.26-4.945-4.018a42.748 42.748 0 0 0-1.607-1.854c-.545-.593-1.835-2.334-2.866-3.87-1.101-1.64-2.683-3.665-3.836-4.91-2.416-2.608-3.364-3.864-4.335-5.74l-.753-1.455-.574 1.018c-.317.56-.704 1.327-.863 1.706-.158.379-.9 1.729-1.65 3-.75 1.273-1.365 2.372-1.365 2.445 0 .072-.244.41-.544.75-.299.342-1.317 1.905-2.262 3.475-1.569 2.607-1.946 3.083-4.342 5.471-4.163 4.151-4.106 4.104-7.26 5.907-.388.222-1.02.612-1.403.867-.383.254-1.077.7-1.54.992-.464.29-1.375.897-2.025 1.347-.65.45-1.69 1.14-2.31 1.533-.621.393-2.035 1.492-3.143 2.444-1.108.951-2.626 2.08-3.373 2.507-1.284.735-12.674 5.093-14.541 5.564-.477.12-2.333.405-4.126.631-2.902.368-3.903.402-9.145.316-5.26-.086-6.156-.149-8.421-.585-1.394-.268-2.725-.59-2.958-.714-.513-.275-2.32-.773-4.905-1.353-2.136-.478-3.984-1.2-4.717-1.84l-1.3-1.139c-.58-.51-.818-.867-.818-1.234 0-1.025 1.035-1.33 1.79-.528 1.157 1.228 2.388 1.817 5.094 2.44 1.456.336 2.907.688 3.224.783 1.237.37 6.846 1.332 8.857 1.52 2.724.254 7.565.252 9.05-.004.635-.11 2.506-.403 4.158-.652 2.733-.412 3.156-.53 4.717-1.32.942-.479 3.878-1.666 6.523-2.64 2.644-.973 5.114-1.927 5.487-2.12.373-.194 1.372-.978 2.219-1.744 2.306-2.082 4.196-3.55 5.545-4.304.664-.372 1.749-1.144 2.41-1.717.663-.574 1.916-1.46 2.786-1.97 2.458-1.442 3.685-2.323 4.755-3.411 4.101-4.173 4.719-4.892 5.487-6.394a36.81 36.81 0 0 1 1.743-2.98c.526-.793 1.548-2.569 2.27-3.948.724-1.379 1.422-2.637 1.553-2.796.247-.3 1.85-3.507 1.85-3.702 0-.06.52-1.016 1.156-2.124.635-1.107 1.155-2.162 1.155-2.344 0-.182.253-.584.563-.894.49-.49.705-.563 1.651-.563.953 0 1.161.073 1.665.577l.577.577-.052 2.167c-.044 1.832.012 2.339.364 3.28.813 2.179 1.646 3.428 3.977 5.963 2.472 2.687 3.003 3.36 5.047 6.401 2.184 3.25 5.593 6.463 9.563 9.016 1.915 1.232 2.901 1.786 6.392 3.593 1.483.768 3.173 1.681 3.755 2.03 1.335.8 5.932 2.743 8.086 3.418.9.282 3.11.987 4.91 1.568 5.239 1.689 11.891 2.806 16.701 2.806 1.51 0 3.878.1 5.263.222 2.491.22 2.531.218 3.973-.28.801-.277 2.095-.59 2.874-.697.78-.107 2.094-.293 2.92-.413 1.774-.259 2.623-.138 3.166.45.46.496.596 1.415.747 5.036.086 2.05.037 2.796-.28 4.236a78.234 78.234 0 0 0-.909 4.822c-.155.989-.473 1.934-1.716 5.108-1.267 3.234-1.49 3.933-2.214 6.931-.32 1.324-1.112 4.053-1.76 6.065-.648 2.012-1.548 5.1-2.002 6.86-.453 1.76-1.062 3.754-1.353 4.429-.292.674-.914 2.093-1.384 3.152a133.49 133.49 0 0 0-1.244 2.888c-.735 1.81-3.869 7.686-4.827 9.05-1.318 1.874-3.975 5.842-4.783 7.142-.485.782-1.013 1.574-1.173 1.76-.16.187-.754 1.162-1.321 2.168-1.752 3.107-4.248 7.19-4.78 7.82-.279.33-.83 1.11-1.226 1.733a45.085 45.085 0 0 1-1.581 2.288 87.969 87.969 0 0 0-2.087 2.99c-.947 1.417-2.273 2.881-5.844 6.45a791.51 791.51 0 0 1-6.113 6.06c-.822.794-1.58 1.6-1.685 1.791-.105.191-1.16 1.07-2.344 1.955-1.185.884-2.606 2.035-3.158 2.558-.965.913-1.838 1.556-4.772 3.52-3.023 2.023-4.721 3.068-6.642 4.085-1.112.589-3.542 1.967-5.4 3.063-1.857 1.096-3.676 2.135-4.042 2.309-.533.252-5.062 1.746-8.156 2.69-.817.25-1.045.213-2.442-.392z" mask="url(#b)"/>
        </g>
        <path fill="#0D0D0D" d="M72.888 84.54c.636-.202 1.74-.63 2.455-.953 1.25-.564 1.3-.613 1.3-1.268 0-1.29-2.385-3.182-4.525-3.591-1.515-.29-1.507-.291-1.652.213-.18.628-.21 3.283-.053 4.785.122 1.17.13 1.184.722 1.181.329-.001 1.118-.167 1.753-.368zm-3.658 8.91c-.23-.23-.274-.453-.162-.818.327-1.064-.098-6.999-.633-8.839-.224-.771-.27-1.545-.19-3.177.175-3.5.232-3.84.7-4.22.517-.418.995-.43 2.228-.056.52.157 1.19.287 1.491.288.3.002.907.251 1.348.555a32.313 32.313 0 0 0 2.856 1.747c.795.436 1.357 1.639 1.598 3.418.132.974.116 1.02-.603 1.757-.777.795-2.727 1.575-3.938 1.575-.326 0-1.19.182-1.921.404l-1.33.404v.991c0 .546.098 1.697.219 2.557.249 1.783.119 2.815-.422 3.356-.458.457-.824.475-1.24.058h-.001zm-4.172.75c-.018-.08-.047-.968-.064-1.974-.055-3.247-.574-8.003-.935-8.552-.4-.612-.757-.631-1.148-.064-.66.958-2.037 2.262-2.39 2.262-.205 0-1.06-.65-1.897-1.443-.838-.794-1.573-1.444-1.632-1.444-.06 0-.401-.39-.758-.867-.852-1.137-1.242-1.154-1.077-.048.068.45.212 2.29.32 4.091.108 1.8.245 3.635.303 4.077.1.75.067.824-.5 1.117-.333.172-.775.26-.981.194-.757-.24-.856-.787-.887-4.906-.017-2.172-.042-4.775-.057-5.786-.015-1.011.034-2.008.107-2.214.437-1.22 1.421-1.403 2.027-.376.219.37.472.674.563.674.09 0 .815.801 1.609 1.78 2.32 2.86 2.362 2.906 2.686 2.781.742-.284 2.413-3.264 2.705-4.823.141-.758.857-1.666 1.308-1.66.71.008.82.331.836 2.442.013 1.706.095 2.27.456 3.138.44 1.057.832 4.267 1.108 9.076.098 1.71.075 1.888-.3 2.262-.389.39-1.333.566-1.402.263zm41.557.786c-.227-.227-.138-1.027.166-1.49.247-.377.283-1.111.223-4.566-.072-4.145-.277-6.172-.806-7.993l-.286-.987-1.802-.135c-2.204-.166-2.726-.389-2.726-1.166 0-.977.62-1.123 3.728-.879 1.456.114 3.261.208 4.01.208.835 0 1.578.112 1.915.288.304.158.877.288 1.274.289.93.001 1.599.597 1.3 1.156-.375.7-.866.81-2.07.462a13.485 13.485 0 0 0-2.132-.41l-1.024-.09.158 1.415c.315 2.822-.057 13.185-.492 13.708-.261.315-1.189.437-1.436.19zM86.15 85.27c-.029-.389-2.215-3.246-2.486-3.247-.271-.002-1.246 2.285-1.246 2.924 0 .469.077.525.818.596.45.043 1.295.07 1.878.06.852-.016 1.054-.08 1.036-.333zm-7.657 9.483c-.524-.58-.57-1.541-.13-2.798.218-.625.397-1.43.397-1.787s.13-.96.289-1.34c.158-.381.289-1.093.289-1.583 0-.59.195-1.304.577-2.112.318-.671.578-1.312.578-1.423 0-.111.16-.558.356-.994.49-1.087 1.128-3.14 1.254-4.036.154-1.087.597-1.664 1.278-1.664.638 0 1.036.476 1.248 1.494.153.734 1.245 2.77 2.491 4.644 1.57 2.36 1.976 3.48 2.315 6.377.168 1.43.354 2.903.414 3.275.154.951-.468 1.73-1.38 1.73-.363 0-.668-.064-.677-.144-.01-.08-.04-1.227-.067-2.55-.028-1.325-.12-2.87-.203-3.437l-.152-1.03-.599.154c-.697.18-2.422.212-4.057.076l-1.149-.096-.14.81c-.076.444-.225.969-.33 1.164-.104.195-.252 1.417-.327 2.714-.137 2.332-.144 2.362-.679 2.638-.727.376-1.204.351-1.596-.082zm16.921.33c-.968-.303-1.613-1.294-1.934-2.97-.157-.82-.379-1.603-.492-1.74-.764-.92-1.447-7.488-.94-9.042.293-.903 1.17-1.975 1.992-2.438 1.246-.702 3.944-.187 4.935.942.328.373.641 1.047.784 1.683.207.929.197 1.123-.085 1.553-.224.342-.493.49-.888.49-.63 0-.859-.298-1.063-1.386-.178-.946-.673-1.347-1.799-1.455-.885-.085-.965-.053-1.42.558-.436.584-.495.883-.6 3.054-.113 2.338-.099 2.454.47 4.043.322.9.758 2.238.968 2.972.21.734.426 1.406.48 1.492.198.321.805.139 1.63-.489 1.213-.921 1.464-.972 2.028-.408.81.81.202 1.855-1.551 2.669-1.27.59-1.81.69-2.515.471zm-46.972-.154c-.255-.281-.308-.538-.209-1.01.291-1.386.32-2.445.096-3.535-.13-.628-.308-2.528-.398-4.223-.09-1.694-.216-3.831-.282-4.749-.086-1.21-.033-2.044.192-3.034.17-.75.365-2.018.433-2.816.098-1.164.197-1.492.497-1.652.526-.282 1.24-.054 1.612.513.339.517.327.698-.22 3.459-.52 2.624-.537 3.033-.175 4.343.216.785.39 2.338.473 4.225.072 1.641.247 3.69.389 4.553.296 1.81.12 2.737-.704 3.718-.57.677-1.21.755-1.704.208zm66.611.446c-.392-.392-.249-1.083.381-1.831.646-.768.843-1.538.951-3.725.15-3.036.484-7.558.681-9.241.1-.848.24-2.314.313-3.26.112-1.453.204-1.79.591-2.178.464-.463.984-.464 1.56-.003.354.284.32 3.224-.047 3.926-.158.304-.288.696-.289.873 0 .177-.13.827-.286 1.444-.157.618-.372 2.276-.478 3.686-.106 1.41-.257 2.667-.336 2.792-.079.126-.147 1.182-.151 2.346-.007 1.773-.083 2.306-.469 3.271-.479 1.198-1.313 2.217-1.814 2.217-.16 0-.433-.142-.607-.317z"/>
    </g>
</svg>
