<svg xmlns="http://www.w3.org/2000/svg" width="160" height="130" viewBox="0 0 160 130">
    <path fill="#010101" fill-rule="evenodd" d="M136.976 40.954c1.62-.83 2.075-1.201 2.262-1.853.128-.448.528-1.37.887-2.05.36-.679 1.11-2.176 1.667-3.328.96-1.984 1.108-2.144 2.821-3.069 1.544-.833 2.776-1.209 6.502-1.981.708-.147 2.03-1.992 2.03-2.834 0-.339-.178-.961-.396-1.383-.688-1.33-5.935-7.44-6.39-7.44-.745 0-3.425 1.816-4.42 2.996-.63.748-1.423 1.446-1.763 1.552-.339.105-1.035.558-1.548 1.005-.714.623-1.109.777-1.692.66-.757-.151-1.123.057-3.66 2.075-.437.348-1.301.88-1.92 1.184-.758.372-1.283.885-1.604 1.567-.263.558-.757 1.161-1.098 1.34-.342.18-1.194.803-1.895 1.384-.7.582-1.41 1.058-1.578 1.058-.925 0 .702 3.285 2 4.037.206.12 1.762 1.545 3.458 3.167 2.038 1.95 3.291 2.95 3.697 2.95.337 0 1.525-.466 2.64-1.037zM27.641 73.933c.334-.09.861-.593 1.17-1.118a3.36 3.36 0 0 1 1.657-1.385c1.236-.485 1.34-.897.558-2.18-.795-1.305-1.515-1.582-4.043-1.558-2.627.026-4.825.878-4.975 1.929-.115.804 1.13 3.196 2.034 3.906.734.578 2.299.754 3.599.406zm-5.879 4.718c-2.002-1.144-3.293-2.353-3.78-3.538-.258-.63-.706-1.675-.993-2.32-.353-.793-.523-1.8-.523-3.102 0-4.91 3.699-7.501 10.704-7.498 4.875.003 6.845.931 8.72 4.107 1.156 1.954 1.16 1.975 1.155 4.677-.005 2.132-.126 2.978-.563 3.942-.633 1.394-.804 1.54-2.284 1.95-.587.162-1.529.587-2.093.943-2.042 1.289-2.928 1.506-6.135 1.503-2.719-.003-3.18-.076-4.208-.664zm5.029 30.921c.54-.354 1.751-3.036 1.751-3.876 0-1.503-2.378-3.4-4.728-3.773-.801-.127-.992-.02-1.77 1-.718.942-.846 1.317-.729 2.148.264 1.88.948 3.612 1.555 3.938 1.19.64 3.336.948 3.921.563zm-6.07 3.957c-1.789-.828-3.01-2.248-3.5-4.07-1.325-4.93-1.38-6.515-.291-8.41 1.956-3.406 3.123-4.145 6.535-4.137 2.418.006 2.531.036 5.352 1.43 2.82 1.393 2.904 1.46 3.91 3.206l1.03 1.782V110.143l-1.44 1.355c-2.09 1.965-3.057 2.314-6.93 2.504-3.054.15-3.395.115-4.667-.473zm40.106-4.177c.508-.539.99-1.311 1.072-1.716.083-.404.403-1.249.712-1.877.78-1.583.612-2.076-.862-2.536a44.164 44.164 0 0 1-2.578-.918c-2.436-.965-4.472.07-5.224 2.655-.402 1.384-.399 1.583.049 2.776.625 1.664 2.214 2.596 4.425 2.596 1.343 0 1.568-.092 2.406-.98zm-1.683 6.469c-.302-.13-1.449-.245-2.55-.256-1.407-.013-2.302-.175-3.019-.546-1.564-.812-4.36-3.81-4.85-5.202-.789-2.247-.359-7.227.762-8.828.622-.887 3.535-3.431 4.497-3.928 1.142-.588 5.73-.64 6.54-.074.298.208 1.334.582 2.303.83.969.248 2.142.687 2.607.975 2.057 1.276 3.458 3.55 3.45 5.605-.003 1.137-.707 3.432-1.315 4.288-.268.377-.914 1.53-1.436 2.562-.591 1.168-1.537 2.436-2.508 3.362-1.408 1.343-1.673 1.484-2.745 1.466-.653-.01-1.434-.125-1.736-.255zm4.85 7.442c1.257-.435 2.623-.869 3.034-.964 1.497-.346 3.1-1.604 7.475-5.865 2.61-2.543 2.667-2.629 3.145-4.73.329-1.445.307-1.6-.503-3.614-.466-1.157-.847-2.223-.847-2.368 0-.264-.208-.757-2.497-5.95-1.132-2.566-1.392-2.921-4.142-5.649-1.724-1.709-3.593-3.275-4.53-3.795-.876-.487-2.088-1.251-2.691-1.698-1.994-1.476-3.83-2.635-4.74-2.993-1.307-.513-2.259-1.765-2.259-2.97 0-.867.222-1.213 1.647-2.568.905-.862 1.924-1.654 2.264-1.76.34-.106 1.008-.516 1.485-.91a30.257 30.257 0 0 1 1.877-1.405 30.28 30.28 0 0 0 1.877-1.403c.477-.394 1.3-.934 1.828-1.201.529-.266 1.656-1.117 2.505-1.89.85-.774 2.131-1.838 2.85-2.367.717-.528 2.395-1.937 3.729-3.13 2.37-2.12 4.535-3.808 6.11-4.765a32.079 32.079 0 0 0 1.647-1.091 13.68 13.68 0 0 1 1.822-1.06c.529-.244 1.455-.875 2.059-1.402.604-.527 2.147-1.74 3.43-2.697 1.284-.956 3.013-2.31 3.843-3.01.83-.699 3.177-2.58 5.214-4.183 2.16-1.697 5.297-4.557 7.522-6.857 2.099-2.17 4.137-4.114 4.528-4.319.392-.205 1.454-1.066 2.36-1.915 6.714-6.29 10.019-9.274 11.955-10.793 3.264-2.563 6.462-4.82 7.805-5.511 2.92-1.502 6.633-4.09 8.77-6.113 1.214-1.15 2.487-2.235 2.826-2.41.34-.177.618-.555.618-.841 0-.704-2.163-2.433-3.32-2.654-.514-.098-1.268-.345-1.676-.55-1.166-.586-1.741-.452-3.1.725-.699.604-1.378 1.098-1.51 1.098-.133 0-.826.506-1.54 1.124-1.261 1.091-2.525 2-4.352 3.13-.488.302-1.493 1.126-2.233 1.832-.739.706-2.209 1.972-3.265 2.814-3.292 2.622-5.023 4.07-7.18 6.006-1.146 1.028-2.964 2.435-4.039 3.125-1.325.851-3.77 3.09-7.582 6.943-4.927 4.98-5.898 5.832-7.822 6.861-3.435 1.84-4.217 2.454-6.113 4.804-.975 1.208-2.222 2.577-2.77 3.041-.912.774-6.296 3.958-6.69 3.958-.155 0-2.485 1.55-4.336 2.882-.42.302-2.464 2.031-4.544 3.842-2.08 1.812-4.179 3.541-4.664 3.843-1.927 1.197-4.229 2.916-4.229 3.156 0 .417-3.268 3.782-4.279 4.407-.515.318-.936.722-.938.899-.002.451-3.635 2.379-4.484 2.379-1.128 0-2.037-.556-2.415-1.476-.194-.472-.974-1.524-1.734-2.34-4.153-4.452-7.022-6.675-10.361-8.025-1.402-.566-3.156-1.345-3.899-1.73-.742-.386-1.528-.7-1.746-.7-.219 0-.97-.31-1.67-.686-2.577-1.389-5.15-2.06-7.903-2.06-1.405 0-3.082.124-3.725.274-.644.15-1.997.344-3.006.431-1.51.131-2.145.353-3.568 1.247-.953.599-2.242 1.33-2.865 1.624-1.054.5-1.975 1.403-3.67 3.596-.378.488-1.172 2.008-1.764 3.376-1.342 3.102-1.626 5.859-.773 7.51.29.56.61 1.44.71 1.956.597 3.038 4.151 6.87 7.389 7.962.903.306 2.05.867 2.55 1.248.5.38 1.03.693 1.18.693.458 0 1.957 1.393 2.382 2.214.645 1.248.51 2.392-.38 3.227-1.338 1.255-3.112 2.625-4.357 3.365-.656.39-3.01 2.495-5.232 4.678-3.923 3.855-4.056 4.024-4.656 5.897-.721 2.252-.81 4.98-.215 6.665.221.627.925 2.196 1.564 3.486.937 1.89 1.512 2.651 2.96 3.92.989.867 2.477 1.99 3.307 2.495 1.39.847 1.815.95 5.352 1.307 2.113.212 4.028.374 4.254.359.227-.016 2.264-.143 4.529-.284 5.398-.335 7.966-.664 9.434-1.206.66-.245 1.55-.444 1.977-.444.791 0 5.278-1.525 6.796-2.31.979-.506 2.567-.566 3.424-.13.33.169 1.279.963 2.11 1.765 1.288 1.244 1.91 1.599 4.253 2.422 3.557 1.25 5.28 1.292 8.418.206zm-9.552 5.34c-1.878-.598-4.921-2.133-6.457-3.257-.892-.654-1.902-.545-4.21.453-.906.392-2.156.715-2.779.719-.623.003-1.672.204-2.333.446-1.643.602-4.008.922-9.023 1.22-2.34.138-4.987.328-5.883.422-.912.096-2.06.04-2.613-.124-1.066-.32-3.838-.8-6.462-1.117-1.733-.21-4.016-1.094-4.94-1.913-.302-.267-.961-.649-1.465-.848-.907-.358-3.484-3.142-4.573-4.938-.302-.498-.858-1.424-1.235-2.058a36.14 36.14 0 0 0-1.17-1.84c-.876-1.241-1.3-3.629-1.299-7.302 0-3.176.072-3.677.8-5.626 1.166-3.12 1.867-3.939 8.619-10.074 1.744-1.585 3.179-3.084 3.188-3.332.016-.436-1.718-1.333-2.578-1.333-.772 0-4.315-3.455-5.77-5.627-1.6-2.388-2.224-3.686-3.124-6.501-.827-2.584-.831-7.12-.01-9.275.914-2.397 2.154-4.966 3.117-6.455a91.75 91.75 0 0 0 1.46-2.337c.872-1.465 2.844-2.733 8.769-5.64 1.838-.9 7.764-1.766 12.1-1.766 2.72 0 3.479.11 5.908.86 1.533.472 4.331 1.6 6.218 2.505 1.887.905 4.288 2.003 5.334 2.44 1.047.436 2.575 1.315 3.397 1.954.82.638 1.868 1.434 2.328 1.768.46.334 1.845 1.585 3.079 2.779 3.034 2.936 3.448 3.19 4.583 2.815.999-.33 2.932-2.427 3.478-3.772.206-.51.878-1.206 1.632-1.694 3.29-2.128 6.731-4.872 10.202-8.136 2.328-2.19 5.121-4.216 7.547-5.476 4.407-2.29 5.636-3.213 7.699-5.777 2.272-2.825 3.335-3.669 6.848-5.436 2.575-1.296 2.747-1.453 9.145-8.35 3.105-3.348 3.415-3.626 5.605-5.03 1.168-.75 3.04-2.233 4.158-3.295 1.118-1.062 2.41-2.205 2.873-2.54 1.332-.965 4.24-3.234 4.84-3.778a455.02 455.02 0 0 0 2.244-2.063c.932-.862 2.123-1.827 2.645-2.146 1.912-1.169 3.297-2.16 4.406-3.152 1.9-1.7 4.806-3.837 6.196-4.556.514-.266 1.556-.42 2.837-.42 2.073 0 3.7.495 6.812 2.072 1.398.708 3.696 3.197 4.602 4.984.7 1.38.765 3.329.152 4.514-.628 1.216-.33 1.943 1.774 4.33 3.502 3.974 6.897 8.923 6.887 10.036-.01 1.046-1.03 2.755-2.963 4.96-2.164 2.471-2.91 2.898-6.224 3.556-1.208.24-2.564.65-3.014.912-1.073.626-2.857 3.756-3.132 5.497-.328 2.072-.854 2.635-3.89 4.16-1.513.758-2.822 1.565-2.909 1.792-.51 1.331-3.748 1.453-6.13.231-.72-.369-3.354-2.7-6.313-5.586-2.792-2.724-5.208-4.953-5.369-4.954-.16 0-.654.385-1.098.858-.443.472-1.423 1.28-2.178 1.794-2.95 2.012-3.62 2.565-5.077 4.195-2.487 2.78-5.605 5.852-6.976 6.874a63.9 63.9 0 0 0-2.44 1.93 29.37 29.37 0 0 1-2.386 1.775c-.68.442-1.877 1.364-2.66 2.05-2.015 1.757-3.099 2.607-4.788 3.748-.81.547-1.966 1.46-2.57 2.03-.604.57-1.6 1.286-2.214 1.593-.614.306-1.266.738-1.45.96-.183.22-.73.56-1.216.754-.486.194-1.462.855-2.17 1.47a58.273 58.273 0 0 1-2.555 2.079c-.699.529-2.116 1.702-3.15 2.607-1.033.906-2.397 2.018-3.03 2.47-.635.453-1.85 1.456-2.702 2.23-.851.773-1.95 1.61-2.443 1.86-.492.251-1.418.827-2.058 1.28a97.171 97.171 0 0 1-2.206 1.514c-.574.378-1.118.885-1.211 1.127-.2.52.833 1.457 3.625 3.285 1.057.692 2.404 1.582 2.993 1.977 2.153 1.447 5.983 5.597 7.623 8.26.879 1.426 1.598 2.705 1.598 2.84 0 .137.617 1.643 1.372 3.348.755 1.705 1.372 3.302 1.372 3.55 0 .248.258.956.573 1.574.503.986.556 1.46.437 3.9-.075 1.528-.25 3.333-.389 4.012-.306 1.5-1.688 4.059-2.301 4.26-.246.08-1.151.915-2.014 1.855-2.004 2.183-1.739 1.918-3.167 3.163-2.115 1.843-5.24 3.538-8.42 4.566-2.873.929-3.203.976-6.701.955-3.022-.019-4.029-.134-5.637-.645z"/>
</svg>
