<svg xmlns="http://www.w3.org/2000/svg" width="162" height="162" viewBox="0 0 162 162">
    <g fill="none" fill-rule="nonzero">
        <path fill="#30241C" d="M80.966 7.972h47.633v1.993H80.966zM41.106 7.872h34.28v1.993h-34.28zM8.719 88.191h14.848v1.993H8.719z"/>
        <path fill="#30241C" d="M80.966 141.355c-33.482 0-60.687-27.205-60.687-60.688 0-33.482 27.205-60.687 60.687-60.687 33.483 0 60.688 27.205 60.688 60.687 0 33.433-27.205 60.688-60.688 60.688zm0-119.382c-32.386 0-58.694 26.308-58.694 58.694 0 32.387 26.308 58.695 58.694 58.695 32.387 0 58.695-26.308 58.695-58.695 0-32.386-26.358-58.694-58.695-58.694z"/>
        <path fill="#30241C" d="M9.018 90.184A9.016 9.016 0 0 1 0 81.166a9.016 9.016 0 0 1 9.018-9.019h37.668a7.017 7.017 0 0 0 7.026-7.025 7.017 7.017 0 0 0-7.026-7.026H17.29a9.016 9.016 0 0 1-9.018-9.018 9.016 9.016 0 0 1 9.018-9.018h23.767a7.017 7.017 0 0 0 7.026-7.026c0-3.886-3.09-7.125-6.976-7.125a9.016 9.016 0 0 1-9.018-9.018 9.016 9.016 0 0 1 9.018-9.019v1.993a7.017 7.017 0 0 0-7.025 7.026 7.017 7.017 0 0 0 7.025 7.025 9.016 9.016 0 0 1 9.018 9.019 9.016 9.016 0 0 1-9.018 9.018H17.339a7.017 7.017 0 0 0-7.025 7.025 7.017 7.017 0 0 0 7.025 7.026h29.846c4.783.249 8.57 4.185 8.57 9.018a9.016 9.016 0 0 1-9.019 9.019H9.018a7.017 7.017 0 0 0-7.025 7.025 7.017 7.017 0 0 0 7.025 7.025v2.093z"/>
        <path fill="#FFF" d="M68.51 20.428h25.012C88.84 8.918 81.016.997 81.016.997S73.194 8.869 68.51 20.428z"/>
        <path fill="#30241C" d="M93.522 21.425H68.51a.979.979 0 0 1-.847-.449c-.2-.298-.2-.647-.1-.946C72.247 8.47 79.97.598 80.27.299c.398-.399 1.046-.399 1.395 0 .349.349 8.022 8.171 12.705 19.73.15.3.1.649-.1.947-.099.25-.398.449-.747.449zm-23.517-1.993h22.023c-3.737-8.52-9.069-14.848-11.012-16.94-1.893 2.092-7.274 8.42-11.011 16.94z"/>
        <path fill="#FFF" d="M118.335 147.633c-.299 0-.598.05-.847.05 0-.25.05-.549.05-.798 0-7.474-6.079-13.552-13.552-13.552-.399 0-.798 0-1.146.05-2.79-7.873-10.264-13.503-19.083-13.503-9.517 0-17.49 6.527-19.682 15.346a13.61 13.61 0 0 0-6.925-1.893c-6.727 0-12.257 4.883-13.353 11.31-.847-.299-1.794-.498-2.74-.498a8.123 8.123 0 0 0-8.122 8.121 8.123 8.123 0 0 0 8.121 8.122h77.33a6.358 6.358 0 0 0 6.377-6.378c-.05-3.487-2.94-6.377-6.428-6.377z"/>
        <path fill="#30241C" d="M118.335 161.434H41.006c-5.032 0-9.118-4.085-9.118-9.118 0-5.032 4.086-9.118 9.118-9.118.698 0 1.346.1 1.993.25a14.515 14.515 0 0 1 14.1-11.012c2.193 0 4.336.498 6.279 1.445 2.74-8.82 10.912-14.898 20.279-14.898 8.72 0 16.592 5.381 19.78 13.453h.499c7.922 0 14.4 6.378 14.549 14.3 3.986.1 7.225 3.388 7.225 7.374 0 3.986-3.339 7.324-7.375 7.324zm-77.329-16.293a7.124 7.124 0 0 0-7.125 7.125c0 3.937 3.19 7.175 7.125 7.175h77.33c2.989 0 5.38-2.441 5.38-5.38 0-2.94-2.441-5.382-5.38-5.382-.2 0-.45 0-.748.05a.92.92 0 0 1-.797-.25c-.2-.199-.349-.498-.3-.796v-.748c0-6.926-5.63-12.556-12.555-12.556-.349 0-.698 0-1.096.05-.449.05-.897-.25-1.047-.648-2.74-7.673-10.015-12.855-18.186-12.855a19.19 19.19 0 0 0-18.684 14.6c-.1.298-.3.547-.598.697-.3.1-.598.1-.897-.05A12.572 12.572 0 0 0 57 134.429c-6.128 0-11.36 4.385-12.356 10.463a1.03 1.03 0 0 1-.499.698c-.249.15-.548.2-.847.1-.647-.4-1.494-.549-2.292-.549z"/>
        <path fill="#FFF" d="M96.96 36.87c0-5.928-1.445-11.509-3.438-16.442H68.51c-1.993 4.933-3.438 10.514-3.438 16.443 0 3.986.299 7.773.797 11.36l2.94 40.458h24.514l2.84-40.807c.548-3.488.797-7.175.797-11.011z"/>
        <path fill="#30241C" d="M93.373 89.686H68.859c-.499 0-.947-.399-.997-.947l-2.94-40.408a78.516 78.516 0 0 1-.847-11.46c0-5.431 1.196-11.111 3.538-16.841.15-.399.498-.598.947-.598h25.012c.399 0 .748.249.947.598 2.342 5.73 3.537 11.41 3.537 16.84 0 3.788-.249 7.524-.747 11.112l-2.84 40.757c-.15.548-.598.947-1.096.947zm-23.617-1.993h22.67l2.79-39.91v-.05c.499-3.488.748-7.175.748-10.862 0-4.983-1.047-10.165-3.14-15.446H69.159c-2.093 5.281-3.14 10.463-3.14 15.446 0 3.787.25 7.573.798 11.21v.05l2.94 39.562z"/>
        <path fill="#FFF" d="M73.044 88.69h15.944v7.972H73.044z"/>
        <path fill="#30241C" d="M88.988 97.658H73.044a1 1 0 0 1-.996-.997V88.69a1 1 0 0 1 .996-.996h15.944a1 1 0 0 1 .997.996v7.972a1 1 0 0 1-.997.997zm-14.947-1.993h13.95v-5.98h-13.95v5.98z"/>
        <path fill="#FFF" d="M68.809 88.69l-7.125 2.64.1 13.303L49.128 88.69l18.336-18.535z"/>
        <path fill="#30241C" d="M61.784 105.63a1.04 1.04 0 0 1-.798-.399L48.38 89.287c-.298-.398-.298-.947.05-1.295l18.336-18.535c.299-.3.698-.35 1.046-.25.35.15.598.449.648.848l1.345 18.535c.05.448-.249.847-.647.996l-6.478 2.392.1 12.655c0 .449-.25.798-.648.947-.15.05-.249.05-.348.05zm-11.31-16.89l10.263 13.003-.05-10.413c0-.399.25-.797.648-.947l6.428-2.391-1.146-15.596L50.473 88.74z"/>
        <path fill="#FFF" d="M93.373 88.69l7.125 2.64-.1 13.303 12.656-15.944-18.336-18.535z"/>
        <path fill="#30241C" d="M100.398 105.63c-.1 0-.2 0-.349-.05a.974.974 0 0 1-.647-.947l.1-12.605-6.478-2.392c-.399-.15-.698-.548-.648-.997l1.346-18.535c.05-.398.299-.747.647-.847a.926.926 0 0 1 1.047.25L113.75 88.04c.35.35.399.947.05 1.296l-12.606 15.944c-.199.2-.498.349-.797.349zM94.42 87.992l6.428 2.391c.398.15.647.499.647.947l-.05 10.413L111.71 88.74 95.515 72.396 94.42 87.992z"/>
        <circle cx="81.166" cy="32.785" r="3.488" fill="#FFF"/>
        <circle cx="81.166" cy="48.829" r="3.488" fill="#FFF"/>
        <circle cx="81.166" cy="64.773" r="3.488" fill="#FFF"/>
        <path fill="#30241C" d="M81.166 37.27a4.466 4.466 0 0 1-4.485-4.485 4.466 4.466 0 0 1 4.485-4.484 4.466 4.466 0 0 1 4.484 4.484c0 2.491-2.043 4.484-4.484 4.484zm0-6.976a2.467 2.467 0 0 0-2.492 2.491 2.467 2.467 0 0 0 2.492 2.491 2.467 2.467 0 0 0 2.49-2.49 2.499 2.499 0 0 0-2.49-2.492zM81.166 53.313a4.466 4.466 0 0 1-4.485-4.484 4.466 4.466 0 0 1 4.485-4.484 4.466 4.466 0 0 1 4.484 4.484c0 2.491-2.043 4.484-4.484 4.484zm0-6.975a2.467 2.467 0 0 0-2.492 2.49 2.467 2.467 0 0 0 2.492 2.492 2.467 2.467 0 0 0 2.49-2.491 2.499 2.499 0 0 0-2.49-2.491zM81.166 69.257a4.466 4.466 0 0 1-4.485-4.484 4.466 4.466 0 0 1 4.485-4.484 4.466 4.466 0 0 1 4.484 4.484c0 2.491-2.043 4.484-4.484 4.484zm0-6.975a2.467 2.467 0 0 0-2.492 2.491 2.467 2.467 0 0 0 2.492 2.491 2.467 2.467 0 0 0 2.49-2.491 2.499 2.499 0 0 0-2.49-2.491zM72.048 104.633h1.993v15.944h-1.993zM80.02 112.556h1.993V128.5H80.02zM87.992 120.577h1.993v15.944h-1.993z"/>
        <g fill="#30241C">
            <path d="M16.243 20.478h1.993v1.943h-1.993zM16.243 27.404h1.993v1.943h-1.993zM12.805 23.916h1.943v1.993h-1.943zM19.731 23.916h1.943v1.993h-1.943z"/>
        </g>
        <g fill="#30241C">
            <path d="M151.868 24.813h1.993v3.488h-1.993zM151.868 37.12h1.993v3.487h-1.993zM144.942 31.69h3.488v1.992h-3.488zM157.299 31.69h3.488v1.992h-3.488z"/>
        </g>
        <g fill="#30241C">
            <path d="M31.44 93.174h1.992v3.488H31.44zM31.44 105.53h1.992v3.489H31.44zM24.563 100.1h3.488v1.993h-3.488zM36.87 100.1h3.488v1.993H36.87z"/>
        </g>
        <g fill="#30241C">
            <path d="M103.786 16.492h1.993v1.943h-1.993zM103.786 23.418h1.993v1.943h-1.993zM100.348 19.93h1.943v1.993h-1.943zM107.274 19.93h1.943v1.993h-1.943z"/>
        </g>
        <g fill="#30241C">
            <path d="M116.491 102.84h1.993v1.942h-1.993zM116.491 109.765h1.993v1.943h-1.993zM113.053 106.277h1.943v1.993h-1.943zM119.98 106.277h1.942v1.993h-1.943z"/>
        </g>
        <path fill="#30241C" d="M152.416 82.112h-11.759V80.12h11.759a7.017 7.017 0 0 0 7.025-7.025 7.017 7.017 0 0 0-7.025-7.026h-23.767a9.016 9.016 0 0 1-9.018-9.018 9.016 9.016 0 0 1 9.018-9.018 7.017 7.017 0 0 0 7.026-7.026c0-3.886-3.19-7.125-7.076-7.125v-1.993a9.016 9.016 0 0 1 9.019 9.019 9.016 9.016 0 0 1-9.019 9.018 7.017 7.017 0 0 0-7.025 7.025 7.017 7.017 0 0 0 7.025 7.026h23.767a9.016 9.016 0 0 1 9.019 9.018c0 4.983-4.036 9.118-8.97 9.118z"/>
        <path fill="#30241C" d="M128.6 33.881a9.016 9.016 0 0 1-9.019-9.018 9.016 9.016 0 0 1 9.018-9.019 2.945 2.945 0 0 0 2.94-2.94 2.945 2.945 0 0 0-2.94-2.939V7.972c2.691 0 4.933 2.192 4.933 4.933 0 2.69-2.192 4.932-4.933 4.932a7.017 7.017 0 0 0-7.025 7.026 7.017 7.017 0 0 0 7.025 7.025v1.993z"/>
    </g>
</svg>
