<svg xmlns="http://www.w3.org/2000/svg" width="74" height="58" viewBox="0 0 74 58">
    <g fill="none" fill-rule="nonzero">
        <path fill="#769096" d="M24.172 57.05c.242-.095.54-.203.66-.24.66-.204 2.142-1.486 2.903-2.511.468-.631 1.01-1.828 1.01-2.232 0-.44-.622-1.348-1.635-2.388-.8-.82-1.885-1.744-2.049-1.744-.037 0-.26-.13-.494-.29-.234-.16-.834-.44-1.332-.624-.793-.292-1.057-.333-2.113-.333-1.058 0-1.282.035-1.818.288-1.1.518-2.072 1.638-2.904 3.349l-.28.574-.592-.7c-1.423-1.684-3.28-2.747-5.064-2.9-.646-.056-.932-.037-1.054.067-.215.183-.218.921-.01 2.17.088.523.211 1.41.275 1.97.206 1.812.327 2.638.5 3.403.093.413.169.92.169 1.126 0 .588.192.675 1.297.588 1.385-.11 2.401-.616 3.413-1.703.413-.443.844-1.022.957-1.287.113-.265.27-.482.347-.482.078 0 .33.242.56.538.847 1.092 1.628 1.91 2.23 2.339.339.241.69.503.782.58.09.078.452.25.803.383.797.302 2.733.335 3.439.059zm-3.743-1.407c-.895-.46-2.337-1.85-2.962-2.855-.218-.35-.46-.66-.537-.687-.103-.037-.062-.212.156-.662.163-.337.394-.842.514-1.123.323-.756 1.135-1.739 1.74-2.108.505-.307.606-.325 1.805-.327 1.432-.003 1.824.122 3.788 1.206.526.29 1.246 1.005 1.083 1.075-.247.107-.364.46-.253.76.194.524.888.482.888-.053 0-.33.16-.255.576.27.678.855.679.863.187 1.73-.756 1.33-1.624 2.162-2.887 2.768-.924.443-.967.45-2.228.424-1.014-.022-1.164-.055-1.87-.418zm-9.204-.395c0-.102.102-.17.254-.17.332 0 .517-.202.517-.567 0-.38-.187-.567-.573-.567-.391 0-.405-.2-.016-.247.693-.085.602-.803-.11-.865-.499-.044-.528-.221-.044-.27.316-.03.362-.079.393-.41.044-.471-.136-.702-.545-.702-.174 0-.317-.051-.317-.113 0-.063.114-.114.254-.114s.313-.061.385-.136c.334-.343-.034-.884-.6-.884-.504 0-.468-.205.043-.249.48-.04.587-.287.31-.72a.548.548 0 0 0-.504-.279c-.255 0-.328-.05-.328-.226 0-.125.065-.227.145-.227.4 0 1.408.257 1.787.456.235.123.483.224.55.224.068 0 .24.128.382.284.143.156.314.283.38.283.158 0 .982.814 1.586 1.568l.479.596-.18.465c-.425 1.09-1.295 2.14-2.103 2.536-.972.475-2.145.658-2.145.334zm33.772-12.24c.181-.087.405-.19.495-.228 1.028-.433 2.646-2.036 3.035-3.009.037-.093.138-.305.225-.47.204-.393.2-.939-.01-1.117-.09-.078-.164-.19-.164-.252 0-.235-1.307-1.626-2.097-2.23-.96-.736-1.108-.833-1.705-1.12-.938-.452-1.25-.526-2.369-.566-.982-.034-1.234-.005-1.666.192-.862.393-2.079 1.759-2.527 2.838-.253.607-.303.595-1.107-.277-.725-.785-1.992-1.76-2.286-1.76-.074 0-.244-.072-.378-.16-.345-.227-2.123-.363-2.338-.18-.215.184-.215 1.104 0 1.928.09.343.164.853.165 1.133.002.281.076.791.166 1.134.09.343.165.853.169 1.134.007.57.33 2.239.48 2.481.077.124.301.141 1.06.082 1.045-.08 1.938-.45 2.567-1.062.407-.395 1.224-1.488 1.334-1.784.078-.207.115-.188.433.224 1.075 1.397 2.424 2.594 3.377 2.998.545.23 2.704.279 3.14.07zm-3.44-1.313c-.958-.534-2.896-2.705-2.896-3.244 0-.154.1-.39.45-1.06l.326-.624a3.68 3.68 0 0 1 1.262-1.4c.404-.27.54-.295 1.602-.298 1.408-.004 2.107.25 3.668 1.33.596.412.63.458.468.642-.242.275-.22.769.04.912.274.151.53.046.624-.258.07-.225.104-.207.5.251.234.272.426.558.426.636 0 .486-.978 1.928-1.682 2.48-.586.46-1.417.893-1.9.99-.242.047-.847.067-1.345.043-.756-.037-1.01-.103-1.542-.4zm-7.854-.272c0-.089.106-.178.236-.198.59-.09.528-.765-.083-.902-.218-.049-.247-.076-.093-.085a.498.498 0 0 0 .49-.523c0-.33-.204-.508-.6-.524l-.336-.013.33-.073c.275-.06.331-.128.331-.4 0-.317-.092-.415-.55-.587-.196-.074-.184-.09.098-.15.175-.037.371-.154.436-.26.166-.271-.195-.654-.634-.671l-.341-.014.318-.071c.46-.104.607-.395.348-.689-.112-.128-.29-.233-.396-.233-.18 0-.389-.313-.282-.424.108-.11 1.374.244 2.034.57.71.35 1.39.956 2.138 1.906l.411.521-.273.5a12.1 12.1 0 0 0-.378.743c-.149.343-.827 1.02-1.25 1.245-.38.203-1.295.461-1.706.482-.148.007-.248-.053-.248-.15zm-15.371-5.238c.73-.19 1.57-.547 1.846-.786.176-.152.356-.276.401-.276.045 0 .397-.25.78-.557.606-.482 1.013-.95 2.096-2.412.31-.418.772-1.718.772-2.17 0-.514-.732-1.632-1.766-2.697-1.143-1.177-3.102-2.71-3.466-2.71-.075 0-.263-.101-.417-.226-.584-.472-1.579-.704-3.276-.762-1.422-.048-1.67-.028-2.252.182-.36.13-.78.36-.936.51-.156.149-.446.356-.646.46-.2.103-.404.3-.455.437-.051.138-.2.349-.33.47-.13.12-.342.4-.47.623a5.44 5.44 0 0 1-.428.631c-.105.125-.25.431-.322.68-.071.25-.226.577-.344.726l-.215.273-.752-.84c-1.726-1.927-3.247-2.934-4.796-3.175-.43-.067-.881-.171-1.004-.231-.124-.06-.545-.094-.937-.075l-.712.034.006.964c.008 1.327.518 5.485.7 5.718.053.067.13.555.172 1.085.138 1.74.366 3.075.565 3.3.15.17.342.215.936.215.411 0 .775-.045.808-.1.033-.055.346-.137.695-.181.762-.097 1.208-.278 1.95-.79 1.017-.7 1.767-1.589 2.496-2.952l.242-.452.177.28c.664 1.05 2.898 3.415 3.568 3.777.137.074.397.241.578.37.747.538 1.241.654 2.918.684.879.017 1.697.004 1.818-.027zm-2.55-1.29c-1.876-.243-3.824-1.813-5.58-4.5l-.38-.578.244-.494c.134-.271.377-.774.54-1.117.741-1.556 1.244-2.197 2.167-2.763.865-.53 1.742-.673 3.182-.52.569.06 1.089.155 1.155.209.066.054.244.135.396.18.444.13 1.258.545 1.377.701.06.08.301.226.534.325.233.099.68.381.992.628.947.748.92.714.617.788-.409.1-.536.598-.253.99.4.553.947.402.947-.26 0-.384.08-.336.748.452.547.643.569.695.52 1.21-.105 1.134-2.038 3.39-3.499 4.085a77.86 77.86 0 0 0-.96.463c-.134.067-.555.159-.937.203-.38.045-.743.088-.805.097-.063.008-.515-.037-1.005-.1zm-12.71-1.02c0-.18.073-.226.363-.226.433 0 .628-.172.628-.553 0-.429-.301-.695-.788-.695-.233 0-.424-.05-.424-.113 0-.062.133-.113.294-.113.359 0 .698-.294.698-.604 0-.38-.322-.644-.789-.644-.233 0-.423-.05-.423-.113 0-.062.139-.113.308-.113.417 0 .573-.19.573-.697 0-.488-.296-.777-.796-.777-.168 0-.306-.051-.306-.114 0-.062.164-.113.364-.113.2 0 .423-.061.496-.136.39-.4-.135-1.111-.82-1.111-.25 0-.37-.054-.37-.164 0-.115.156-.174.523-.199.581-.038.691-.225.476-.807-.099-.268-.171-.304-.61-.304-.465 0-.5-.02-.5-.297 0-.294.006-.296.634-.221.618.073.951.167 1.625.462.182.079.446.18.587.223.628.195 1.67 1.122 2.98 2.646.556.65.674.85.574.974-.07.086-.28.481-.466.878-.51 1.085-1.323 2.074-1.942 2.364-.286.135-.656.32-.822.412-.35.193-1.06.352-1.654.37-.344.01-.414-.026-.414-.215zm64.535-.06c.842-.234 1.263-.434 2.038-.972 1.738-1.205 3.29-3.047 3.786-4.49.32-.935.334-1.384.06-1.937-.407-.82-1.838-2.468-2.987-3.44-.671-.57-2.28-1.686-2.426-1.686-.051 0-.332-.15-.624-.332-.292-.183-.97-.442-1.506-.577-.828-.209-1.218-.24-2.59-.205-1.38.035-1.69.077-2.147.292-1.402.66-2.921 2.416-3.832 4.43l-.354.78-1.442-1.49c-.931-.963-1.628-1.583-1.965-1.751-.287-.143-.553-.312-.591-.376-.102-.17-1.156-.63-1.653-.722-.235-.043-.477-.118-.538-.165-.133-.104-.84-.217-1.85-.298-1.075-.085-1.116-.032-1.033 1.359.036.615.138 1.687.227 2.383.088.695.219 1.748.29 2.34.07.593.173 1.126.228 1.186.055.059.1.35.1.645 0 .296.05.57.11.608.06.038.11.269.11.513 0 .882.345 3 .521 3.2.136.154.353.198.977.198.442 0 .834-.05.871-.113.038-.062.24-.113.45-.113.208 0 .466-.045.571-.1.105-.054.484-.193.841-.307.358-.115.847-.364 1.087-.553.789-.622 1.948-1.79 2.02-2.033.038-.131.185-.366.327-.522.141-.156.339-.485.438-.73l.182-.447.377.447c.208.245.532.676.72.956.422.63 2.196 2.418 2.794 2.817.242.162.579.409.748.55.169.14.705.384 1.19.542.773.25 1.07.286 2.392.28.926-.005 1.731-.07 2.083-.167zm-25.86-13.409c1.671-.845 2.694-1.772 3.753-3.402.63-.97.792-1.67.535-2.315-.36-.9-2.36-2.98-3.577-3.717-1.365-.828-1.713-1.02-1.843-1.02-.078 0-.265-.09-.414-.2-.224-.162-.571-.205-1.95-.236-1.658-.038-1.685-.035-2.3.283-.92.477-2.18 1.893-2.79 3.138l-.484.986-1.002-1.051c-1.484-1.557-2.832-2.374-4.193-2.538-.34-.041-.643-.119-.675-.172-.105-.175-1.218-.113-1.37.076-.164.203-.087 2.694.09 2.922.058.075.163.72.235 1.436.071.714.17 1.352.222 1.417.05.065.127.5.17.968.14 1.53.354 2.828.495 3.003.152.188 1.375.25 1.48.075.032-.054.314-.129.627-.167.943-.115 1.892-.65 2.723-1.538.405-.432.88-1.07 1.058-1.42.176-.348.375-.632.44-.63.066.001.293.269.505.594.458.702 1.937 2.24 2.705 2.814.3.224.828.543 1.173.709.589.284.721.301 2.203.297 1.487-.004 1.612-.022 2.184-.312zm-3.058-.924c-1.4-.208-2.79-1.162-4.057-2.783-.45-.576-.82-1.089-.82-1.14 0-.05-.08-.183-.18-.296-.168-.191-.153-.261.22-1.05.221-.466.402-.877.402-.915 0-.092.406-.681.922-1.338.516-.656 1.415-1.147 2.298-1.254.662-.08 2.05.075 2.373.264.105.062.515.234.91.383.396.148.941.431 1.212.628.271.198.675.483.897.634.528.36.586.474.316.623-.417.23-.215 1.135.254 1.135.3 0 .514-.198.514-.476 0-.321.163-.243.576.278.59.745.652.91.504 1.346-.371 1.098-2.004 2.885-3.056 3.348-.337.148-.712.328-.832.399-.185.109-.95.254-1.6.304-.09.007-.474-.034-.853-.09zm-11.157-.857c0-.102.102-.17.254-.17.328 0 .518-.202.518-.552a.685.685 0 0 0-.678-.695c-.173 0-.314-.051-.314-.114 0-.062.139-.113.309-.113.367 0 .573-.183.573-.51 0-.352-.213-.51-.684-.51-.541 0-.545-.203-.005-.249.39-.033.412-.055.397-.407-.022-.484-.211-.705-.603-.705-.175 0-.317-.051-.317-.113 0-.063.114-.114.253-.114.319 0 .518-.2.518-.519 0-.32-.216-.496-.707-.578-.51-.086-.507-.24.007-.285.23-.02.452-.118.52-.229.166-.273-.3-.77-.72-.77-.263 0-.312-.047-.312-.294 0-.289.01-.293.578-.218 1.685.222 2.838.997 4.755 3.198l.315.362-.186.48c-.24.614-.89 1.625-1.359 2.106-.64.659-1.742 1.122-2.753 1.157-.25.008-.359-.04-.359-.158zm-7.547-9.52c.182-.086.405-.189.496-.227 1.028-.433 2.645-2.036 3.034-3.009a6.89 6.89 0 0 1 .225-.47c.204-.393.2-.939-.009-1.117-.09-.078-.165-.19-.165-.252 0-.235-1.307-1.626-2.097-2.23-.96-.736-1.108-.834-1.705-1.12-.937-.452-1.249-.526-2.369-.566C16.413.08 16.162.11 15.73.306c-.862.393-2.078 1.759-2.527 2.838-.252.607-.303.594-1.107-.277-.725-.785-1.991-1.76-2.286-1.76-.074 0-.244-.072-.378-.16C9.086.72 7.308.584 7.093.767c-.215.184-.215 1.104 0 1.928.09.342.164.853.166 1.133.001.281.076.791.165 1.134.09.343.166.853.17 1.134.007.57.33 2.239.48 2.481.077.124.3.141 1.059.082 1.046-.08 1.939-.45 2.568-1.062.406-.395 1.223-1.488 1.334-1.784.077-.208.115-.188.432.224 1.076 1.397 2.424 2.594 3.378 2.998.544.23 2.704.279 3.14.07zm-3.44-1.312c-.958-.534-2.896-2.705-2.896-3.244 0-.154.101-.39.45-1.06l.326-.624a3.68 3.68 0 0 1 1.263-1.4c.403-.27.539-.295 1.6-.298 1.409-.004 2.109.25 3.67 1.33.595.412.629.458.467.642-.242.275-.22.769.04.912.275.151.53.046.624-.258.07-.225.105-.207.5.251.234.272.426.558.426.635 0 .487-.977 1.928-1.682 2.482-.586.46-1.417.892-1.9.988-.242.048-.847.068-1.345.044-.756-.037-1.009-.103-1.542-.4zm-7.854-.272c0-.089.106-.178.237-.198.59-.09.527-.765-.084-.902-.218-.049-.247-.076-.093-.085a.498.498 0 0 0 .49-.523c0-.33-.203-.508-.6-.524l-.336-.013.33-.073c.275-.06.331-.128.331-.4 0-.317-.092-.415-.55-.587-.196-.074-.184-.09.098-.15.175-.037.371-.154.436-.26.166-.271-.195-.654-.634-.671l-.341-.014.318-.071c.46-.104.607-.395.349-.689-.113-.128-.292-.233-.397-.233-.18 0-.388-.313-.281-.424.107-.11 1.373.244 2.033.57.71.35 1.39.956 2.138 1.906l.412.521-.274.5c-.15.274-.32.608-.378.743-.148.343-.827 1.02-1.25 1.245-.38.203-1.295.461-1.706.482-.147.007-.248-.053-.248-.15z"/>
        <path fill="#E86023" d="M24.172 56.938c.242-.095.579-.217.747-.272.645-.21 2.076-1.46 2.757-2.407.442-.614.958-1.792.958-2.187 0-.916-2.229-3.29-4.077-4.343-1.2-.683-2.113-.928-3.462-.928-1.12 0-1.275.027-1.882.328-1.049.52-2.306 2.047-2.809 3.414-.213.58-.276.613-.498.264-.73-1.146-2.219-2.356-3.597-2.924-.851-.35-1.149-.417-1.953-.436l-.949-.022-.035.51c-.02.28.042.994.137 1.587.094.593.221 1.511.282 2.041.2 1.74.32 2.562.49 3.356.091.43.18.961.197 1.18l.03.397 1.025-.022c.897-.02 1.123-.068 1.818-.394.982-.46 2.047-1.468 2.523-2.386.187-.361.404-.657.483-.657.078 0 .33.243.561.539 1.395 1.792 2.597 2.83 3.815 3.298.794.305 2.727.34 3.439.064zm-3.8-1.24c-.907-.494-2.234-1.754-2.86-2.717-.203-.312-.47-.651-.593-.753-.223-.186-.223-.19.186-1.077.835-1.815 1.443-2.601 2.39-3.088.607-.312.8-.355 1.606-.355 1.26 0 2.36.37 3.802 1.279.496.312 1.41 1.025 1.414 1.104.002.032-.108.108-.244.17-.136.061-.264.205-.285.319-.043.233.27.643.49.643.199 0 .388-.395.3-.628-.06-.162-.036-.173.149-.071.32.177 1.136 1.306 1.136 1.574 0 .126-.242.606-.537 1.066-.965 1.503-2.078 2.401-3.65 2.945-.152.053-.771.083-1.377.067-1.046-.028-1.144-.052-1.926-.478zm-9.202-.449c0-.162.093-.242.33-.284.294-.052.331-.104.331-.455 0-.365-.03-.4-.384-.452-.532-.079-.598-.424-.09-.474.305-.03.364-.082.364-.32 0-.246-.059-.29-.44-.34-.54-.07-.617-.377-.111-.434.442-.05.506-.134.403-.533-.07-.273-.16-.348-.464-.394-.514-.077-.604-.453-.109-.453.702 0 .55-.699-.172-.794-.563-.074-.594-.381-.044-.433.521-.05.621-.177.405-.518a.69.69 0 0 0-.54-.317c-.3-.03-.366-.087-.395-.348-.028-.244.01-.311.177-.311.485 0 1.42.247 1.997.526.618.3 2.213 1.464 2.213 1.615 0 .045.253.373.563.73.55.636.56.66.42 1.016-.217.555-1.147 1.94-1.519 2.262-.664.575-1.785.995-2.55.957-.305-.016-.385-.067-.385-.246zm33.772-12.356c.151-.091.343-.167.425-.17.308-.008 1.67-1.052 2.21-1.693.62-.738 1.221-1.885 1.221-2.333 0-.876-2.19-3.104-3.86-3.929-1.062-.524-1.352-.597-2.53-.638-.995-.035-1.232-.007-1.685.2-.912.415-1.617 1.2-2.392 2.663-.199.375-.371.694-.384.71-.013.017-.49-.448-1.06-1.032-.831-.853-1.202-1.143-1.879-1.472-.752-.365-.954-.413-1.873-.441l-1.03-.032-.033.585a5.1 5.1 0 0 0 .138 1.264c.094.373.171.9.172 1.172 0 .271.074.774.164 1.117.09.343.165.853.17 1.134.003.28.096.944.206 1.474l.2.964.99-.026c.85-.022 1.086-.075 1.656-.366.712-.363 1.744-1.418 2.062-2.108.097-.21.22-.41.275-.445.055-.035.32.23.59.59.942 1.255 2.184 2.333 3.161 2.744.563.236 2.726.284 3.086.068zm-3.42-1.133c-.73-.418-1.76-1.438-2.544-2.522-.235-.325-.428-.657-.428-.737-.002-.262.927-2.029 1.305-2.484.202-.243.598-.582.881-.754.478-.288.597-.31 1.671-.298 1.045.01 1.229.046 1.895.36.686.325 2.403 1.438 2.403 1.558 0 .03-.096.152-.213.272-.128.132-.189.309-.154.446.122.48.692.366.702-.14.004-.197.104-.13.551.376.3.34.546.686.546.77 0 .548-1.205 2.135-2.063 2.717-1.266.858-1.558.946-2.955.883-.772-.035-.978-.093-1.598-.447zm-7.874-.34c0-.143.097-.245.275-.288.201-.049.276-.142.276-.344 0-.218-.07-.29-.325-.335-.38-.068-.442-.27-.097-.32.627-.092.543-.772-.102-.836-.404-.04-.444-.243-.06-.3.14-.022.295-.08.346-.13.16-.159-.14-.57-.416-.57-.25 0-.448-.245-.312-.385.036-.038.183-.068.326-.068.591 0 .388-.641-.223-.702-.413-.042-.425-.246-.016-.299.536-.068.433-.7-.114-.7-.165 0-.27-.085-.313-.253-.1-.394.07-.461.77-.303 1.336.302 2.264.912 3.304 2.168l.68.823-.224.455c-.707 1.438-1.524 2.212-2.634 2.495-.803.205-1.141.173-1.141-.108zm-15.316-5.349c.691-.179 1.566-.54 1.829-.757.166-.136.513-.376.77-.532 1.05-.635 2.448-2.41 2.925-3.715.308-.84.327-1.267.078-1.761-.627-1.25-3.134-3.679-4.555-4.415a9.738 9.738 0 0 1-.788-.455c-.684-.464-1.64-.677-3.289-.733-1.422-.049-1.67-.029-2.252.182-.36.13-.78.359-.936.508a3.32 3.32 0 0 1-.641.458c-.197.102-.358.234-.358.293 0 .058-.146.278-.325.487-.504.59-1.039 1.45-1.25 2.01-.105.28-.28.627-.39.772l-.197.263-1.376-1.397c-1.299-1.319-1.62-1.565-2.87-2.203-.643-.328-2.115-.637-3.123-.655l-.771-.013.006.907c.01 1.288.523 5.434.7 5.661.053.067.13.555.172 1.085.12 1.506.362 3.062.506 3.24.146.182 1.59.234 1.693.062.033-.056.346-.135.695-.176 1.44-.172 3.097-1.451 4.067-3.142.284-.496.556-.926.604-.956.047-.03.173.086.28.26.396.646 1.99 2.463 2.702 3.079 1.632 1.412 2.193 1.632 4.276 1.67.879.017 1.697.005 1.818-.027zm-2.568-1.063c-1.853-.248-3.682-1.735-5.66-4.605l-.402-.582.262-.439c.145-.241.264-.503.266-.582.002-.078.26-.607.574-1.175 1.292-2.339 2.65-3.081 5.149-2.815.57.06 1.09.151 1.157.202.066.05.432.215.812.367.381.15.82.388.978.527.157.14.39.287.52.328.597.192 2.144 1.523 3.15 2.71.547.645.574.706.528 1.203-.038.41-.185.724-.675 1.44-1.488 2.173-3.392 3.35-5.689 3.517-.09.006-.527-.037-.97-.096zm5.824-6.245c.2-.386-.06-.897-.458-.897-.244 0-.33.064-.384.284-.15.617.568 1.14.842.613zm-18.606 5.09c-.032-.284-.003-.306.44-.34.442-.032.478-.06.509-.384.041-.432-.128-.587-.695-.634-.312-.026-.449-.094-.475-.235-.029-.158.041-.199.335-.199.43 0 .637-.168.637-.519 0-.335-.196-.478-.718-.521-.572-.048-.61-.352-.054-.434.359-.053.388-.088.422-.506.042-.53-.162-.741-.718-.741-.288 0-.365-.047-.365-.22 0-.178.09-.227.468-.255.412-.031.473-.071.502-.328.042-.376-.204-.585-.787-.665-.364-.05-.458-.11-.458-.29 0-.187.085-.232.496-.262.634-.045.72-.142.505-.568-.147-.293-.247-.352-.643-.382-.444-.033-.47-.055-.504-.417l-.036-.383.719.08c.906.099 2.368.686 3.146 1.263.33.243.924.8 1.323 1.236.398.437.905.987 1.127 1.223l.405.43-.485.988c-.267.543-.701 1.258-.965 1.589-.445.556-1.154 1.156-1.365 1.156-.05 0-.282.106-.517.235-.509.281-1.17.433-1.774.407-.39-.016-.444-.053-.475-.323zm64.625-.152c.828-.23 1.202-.407 2.086-.99.81-.535 2.189-1.878 2.644-2.577.142-.219.359-.525.481-.68.288-.367.766-1.764.77-2.245.004-.73-.663-1.728-2.216-3.311-.462-.472-1.057-1.008-1.322-1.191a14.267 14.267 0 0 1-.777-.578c-.66-.546-2.375-1.387-3.325-1.63-.835-.214-1.206-.244-2.59-.21-1.38.035-1.69.077-2.147.292-1.403.661-2.757 2.225-3.724 4.3l-.437.939-1.46-1.515c-.892-.927-1.682-1.64-2.036-1.84-1.296-.729-1.747-.94-2.167-1.012-.242-.041-.49-.115-.55-.163-.163-.13-.99-.243-1.929-.265l-.826-.019.008 1.02c.012 1.357.358 4.227.82 6.804.126.698.186 1.119.398 2.775.09.716.221 1.37.289 1.454.177.22 2.09.086 2.782-.196.121-.05.505-.182.854-.294 1.32-.426 2.984-2.068 3.731-3.683.13-.28.258-.534.284-.564.063-.072.708.696 1.235 1.471.523.768 2.249 2.431 3.186 3.07 1.135.773 2.058 1.014 3.854 1.005.927-.005 1.732-.069 2.084-.167zm-25.86-13.393c1.589-.785 2.625-1.724 3.65-3.307.561-.869.723-1.436.6-2.107-.095-.522-1.45-2.192-2.448-3.015-.722-.597-2.676-1.814-2.91-1.814-.062 0-.245-.09-.407-.199-.24-.162-.603-.205-1.976-.237-1.664-.038-1.69-.035-2.303.284-.933.485-2.114 1.814-2.691 3.03-.256.538-.505 1.004-.554 1.035-.049.031-.398-.302-.777-.74-1.668-1.932-3.635-2.95-5.776-2.99l-.661-.013-.032.86a8.76 8.76 0 0 0 .088 1.53c.066.37.169 1.003.228 1.408.104.715.228 1.497.423 2.665.052.311.158 1.102.234 1.757.19 1.62.188 1.617 1.023 1.556 2.365-.174 3.886-1.12 5.01-3.115.22-.39.452-.707.514-.706.063.002.288.268.5.591.898 1.369 2.581 2.902 3.88 3.534.564.275.71.294 2.191.293 1.487-.001 1.625-.02 2.193-.3zm-4.243-1.084c-.424-.187-.895-.454-1.047-.593a7.684 7.684 0 0 0-.63-.504c-.37-.261-1.35-1.444-2.058-2.487l-.41-.603.552-1.154c1.29-2.695 2.66-3.589 4.984-3.25.438.064.85.158.914.208.066.051.441.21.835.352 1.28.465 3.6 2.325 4.34 3.48.293.455.296.48.13.892-.283.696-1.112 1.803-1.894 2.53-.79.733-2.208 1.439-3.071 1.529a5.4 5.4 0 0 1-2.645-.4zm6.262-5.04c.134-.137.076-.688-.086-.827-.203-.173-.585-.054-.639.2-.069.323.153.703.412.703.132 0 .273-.034.313-.076zm-16.344 4.448c0-.229.062-.282.358-.312.3-.03.364-.086.394-.354.048-.43-.152-.645-.6-.645-.295 0-.372-.046-.372-.22 0-.172.09-.227.413-.255.378-.032.413-.064.413-.375 0-.32-.03-.344-.495-.397-.356-.04-.505-.112-.531-.255-.03-.16.042-.199.36-.199.452 0 .561-.162.4-.596-.081-.222-.198-.304-.471-.331-.515-.051-.568-.405-.068-.454.324-.032.365-.074.365-.376 0-.31-.045-.351-.496-.463-.626-.155-.67-.43-.077-.48.242-.02.446-.106.482-.202.093-.249-.27-.595-.665-.635-.304-.03-.35-.08-.382-.415l-.035-.38.678.08c1.349.162 2.72.934 3.857 2.173 1.443 1.573 1.369 1.457 1.207 1.875-.233.6-1.033 1.828-1.486 2.282-.704.703-1.797 1.165-2.836 1.197-.367.012-.413-.017-.413-.263zM19.93 8.991c.151-.091.343-.167.426-.17.307-.008 1.669-1.052 2.208-1.693.622-.738 1.222-1.885 1.222-2.334 0-.875-2.19-3.103-3.86-3.928-1.062-.524-1.351-.597-2.53-.638-.994-.035-1.232-.007-1.685.2-.912.415-1.616 1.2-2.392 2.663-.198.375-.371.694-.384.71-.013.017-.49-.448-1.06-1.032-.831-.853-1.202-1.143-1.879-1.472C9.244.932 9.042.884 8.123.856L7.093.824l-.033.585a5.1 5.1 0 0 0 .138 1.264c.094.373.171.9.172 1.172 0 .271.074.774.164 1.117.09.343.166.853.17 1.134.003.28.096.944.206 1.474l.2.964.99-.026c.85-.022 1.086-.075 1.657-.366.711-.363 1.743-1.418 2.061-2.108.097-.21.22-.41.275-.445.055-.035.32.23.59.59.942 1.255 2.184 2.333 3.162 2.744.562.236 2.725.284 3.085.068zm-3.42-1.133c-.73-.418-1.76-1.438-2.544-2.522-.235-.325-.427-.657-.428-.737-.001-.262.927-2.029 1.305-2.484.202-.243.599-.583.881-.754.478-.288.597-.31 1.671-.298 1.045.01 1.229.046 1.896.36.685.325 2.402 1.438 2.402 1.558 0 .03-.096.152-.213.272-.128.132-.189.309-.154.446.122.48.692.366.702-.14.004-.197.104-.13.551.376.3.34.546.686.546.77 0 .548-1.205 2.135-2.062 2.717-1.267.858-1.559.946-2.956.883-.772-.035-.978-.093-1.598-.447zm-7.874-.34c0-.143.098-.245.275-.288.201-.049.276-.142.276-.344 0-.218-.07-.29-.325-.335-.38-.068-.441-.27-.096-.32.626-.092.542-.772-.103-.836-.404-.04-.444-.243-.06-.3.14-.022.295-.08.346-.13.16-.159-.14-.57-.415-.57-.25 0-.45-.245-.313-.385.036-.038.183-.068.326-.068.591 0 .388-.641-.222-.702-.414-.042-.425-.246-.017-.299.536-.068.433-.7-.114-.7-.165 0-.27-.085-.313-.253-.1-.394.07-.461.77-.303 1.336.302 2.264.912 3.304 2.168l.68.823-.223.455c-.708 1.438-1.525 2.212-2.635 2.495-.803.205-1.141.173-1.141-.108z"/>
        <path fill="#647A80" d="M24.172 56.938c.242-.095.579-.217.747-.272.645-.21 2.076-1.46 2.757-2.407.442-.614.958-1.792.958-2.187 0-.916-2.229-3.29-4.077-4.343-1.2-.683-2.113-.928-3.462-.928-1.12 0-1.275.027-1.882.328-1.049.52-2.306 2.047-2.809 3.414-.213.58-.276.613-.498.264-.73-1.146-2.219-2.356-3.597-2.924-.851-.35-1.149-.417-1.953-.436l-.949-.022-.035.51c-.02.28.042.994.137 1.587.094.593.221 1.511.282 2.041.2 1.74.32 2.562.49 3.356.091.43.18.961.197 1.18l.03.397 1.025-.022c.897-.02 1.123-.068 1.818-.394.982-.46 2.047-1.468 2.523-2.386.187-.361.404-.657.483-.657.078 0 .33.243.561.539 1.395 1.792 2.597 2.83 3.815 3.298.794.305 2.727.34 3.439.064zm-3.8-1.24c-.907-.494-2.234-1.754-2.86-2.717-.203-.312-.47-.651-.593-.753-.223-.186-.223-.19.186-1.077.835-1.815 1.443-2.601 2.39-3.088.607-.312.8-.355 1.606-.355 1.26 0 2.36.37 3.802 1.279.496.312 1.41 1.025 1.414 1.104.002.032-.108.108-.244.17-.136.061-.264.205-.285.319-.043.233.27.643.49.643.199 0 .388-.395.3-.628-.06-.162-.036-.173.149-.071.32.177 1.136 1.306 1.136 1.574 0 .126-.242.606-.537 1.066-.965 1.503-2.078 2.401-3.65 2.945-.152.053-.771.083-1.377.067-1.046-.028-1.144-.052-1.926-.478zm-9.202-.449c0-.162.093-.242.33-.284.294-.052.331-.104.331-.455 0-.365-.03-.4-.384-.452-.532-.079-.598-.424-.09-.474.305-.03.364-.082.364-.32 0-.246-.059-.29-.44-.34-.54-.07-.617-.377-.111-.434.442-.05.506-.134.403-.533-.07-.273-.16-.348-.464-.394-.514-.077-.604-.453-.109-.453.702 0 .55-.699-.172-.794-.563-.074-.594-.381-.044-.433.521-.05.621-.177.405-.518a.69.69 0 0 0-.54-.317c-.3-.03-.366-.087-.395-.348-.028-.244.01-.311.177-.311.485 0 1.42.247 1.997.526.618.3 2.213 1.464 2.213 1.615 0 .045.253.373.563.73.55.636.56.66.42 1.016-.217.555-1.147 1.94-1.519 2.262-.664.575-1.785.995-2.55.957-.305-.016-.385-.067-.385-.246zm33.772-12.356c.151-.091.343-.167.425-.17.308-.008 1.67-1.052 2.21-1.693.62-.738 1.221-1.885 1.221-2.333 0-.876-2.19-3.104-3.86-3.929-1.062-.524-1.352-.597-2.53-.638-.995-.035-1.232-.007-1.685.2-.912.415-1.617 1.2-2.392 2.663-.199.375-.371.694-.384.71-.013.017-.49-.448-1.06-1.032-.831-.853-1.202-1.143-1.879-1.472-.752-.365-.954-.413-1.873-.441l-1.03-.032-.033.585a5.1 5.1 0 0 0 .138 1.264c.094.373.171.9.172 1.172 0 .271.074.774.164 1.117.09.343.165.853.17 1.134.003.28.096.944.206 1.474l.2.964.99-.026c.85-.022 1.086-.075 1.656-.366.712-.363 1.744-1.418 2.062-2.108.097-.21.22-.41.275-.445.055-.035.32.23.59.59.942 1.255 2.184 2.333 3.161 2.744.563.236 2.726.284 3.086.068zm-3.42-1.133c-.73-.418-1.76-1.438-2.544-2.522-.235-.325-.428-.657-.428-.737-.002-.262.927-2.029 1.305-2.484.202-.243.598-.582.881-.754.478-.288.597-.31 1.671-.298 1.045.01 1.229.046 1.895.36.686.325 2.403 1.438 2.403 1.558 0 .03-.096.152-.213.272-.128.132-.189.309-.154.446.122.48.692.366.702-.14.004-.197.104-.13.551.376.3.34.546.686.546.77 0 .548-1.205 2.135-2.063 2.717-1.266.858-1.558.946-2.955.883-.772-.035-.978-.093-1.598-.447zm-7.874-.34c0-.143.097-.245.275-.288.201-.049.276-.142.276-.344 0-.218-.07-.29-.325-.335-.38-.068-.442-.27-.097-.32.627-.092.543-.772-.102-.836-.404-.04-.444-.243-.06-.3.14-.022.295-.08.346-.13.16-.159-.14-.57-.416-.57-.25 0-.448-.245-.312-.385.036-.038.183-.068.326-.068.591 0 .388-.641-.223-.702-.413-.042-.425-.246-.016-.299.536-.068.433-.7-.114-.7-.165 0-.27-.085-.313-.253-.1-.394.07-.461.77-.303 1.336.302 2.264.912 3.304 2.168l.68.823-.224.455c-.707 1.438-1.524 2.212-2.634 2.495-.803.205-1.141.173-1.141-.108zm-15.316-5.349c.691-.179 1.566-.54 1.829-.757.166-.136.513-.376.77-.532 1.05-.635 2.448-2.41 2.925-3.715.308-.84.327-1.267.078-1.761-.627-1.25-3.134-3.679-4.555-4.415a9.738 9.738 0 0 1-.788-.455c-.684-.464-1.64-.677-3.289-.733-1.422-.049-1.67-.029-2.252.182-.36.13-.78.359-.936.508a3.32 3.32 0 0 1-.641.458c-.197.102-.358.234-.358.293 0 .058-.146.278-.325.487-.504.59-1.039 1.45-1.25 2.01-.105.28-.28.627-.39.772l-.197.263-1.376-1.397c-1.299-1.319-1.62-1.565-2.87-2.203-.643-.328-2.115-.637-3.123-.655l-.771-.013.006.907c.01 1.288.523 5.434.7 5.661.053.067.13.555.172 1.085.12 1.506.362 3.062.506 3.24.146.182 1.59.234 1.693.062.033-.056.346-.135.695-.176 1.44-.172 3.097-1.451 4.067-3.142.284-.496.556-.926.604-.956.047-.03.173.086.28.26.396.646 1.99 2.463 2.702 3.079 1.632 1.412 2.193 1.632 4.276 1.67.879.017 1.697.005 1.818-.027zm-2.568-1.063c-1.853-.248-3.682-1.735-5.66-4.605l-.402-.582.262-.439c.145-.241.264-.503.266-.582.002-.078.26-.607.574-1.175 1.292-2.339 2.65-3.081 5.149-2.815.57.06 1.09.151 1.157.202.066.05.432.215.812.367.381.15.82.388.978.527.157.14.39.287.52.328.597.192 2.144 1.523 3.15 2.71.547.645.574.706.528 1.203-.038.41-.185.724-.675 1.44-1.488 2.173-3.392 3.35-5.689 3.517-.09.006-.527-.037-.97-.096zm5.824-6.245c.2-.386-.06-.897-.458-.897-.244 0-.33.064-.384.284-.15.617.568 1.14.842.613zm-18.606 5.09c-.032-.284-.003-.306.44-.34.442-.032.478-.06.509-.384.041-.432-.128-.587-.695-.634-.312-.026-.449-.094-.475-.235-.029-.158.041-.199.335-.199.43 0 .637-.168.637-.519 0-.335-.196-.478-.718-.521-.572-.048-.61-.352-.054-.434.359-.053.388-.088.422-.506.042-.53-.162-.741-.718-.741-.288 0-.365-.047-.365-.22 0-.178.09-.227.468-.255.412-.031.473-.071.502-.328.042-.376-.204-.585-.787-.665-.364-.05-.458-.11-.458-.29 0-.187.085-.232.496-.262.634-.045.72-.142.505-.568-.147-.293-.247-.352-.643-.382-.444-.033-.47-.055-.504-.417l-.036-.383.719.08c.906.099 2.368.686 3.146 1.263.33.243.924.8 1.323 1.236.398.437.905.987 1.127 1.223l.405.43-.485.988c-.267.543-.701 1.258-.965 1.589-.445.556-1.154 1.156-1.365 1.156-.05 0-.282.106-.517.235-.509.281-1.17.433-1.774.407-.39-.016-.444-.053-.475-.323zm64.625-.152c.828-.23 1.202-.407 2.086-.99.81-.535 2.189-1.878 2.644-2.577.142-.219.359-.525.481-.68.288-.367.766-1.764.77-2.245.004-.73-.663-1.728-2.216-3.311-.462-.472-1.057-1.008-1.322-1.191a14.267 14.267 0 0 1-.777-.578c-.66-.546-2.375-1.387-3.325-1.63-.835-.214-1.206-.244-2.59-.21-1.38.035-1.69.077-2.147.292-1.403.661-2.757 2.225-3.724 4.3l-.437.939-1.46-1.515c-.892-.927-1.682-1.64-2.036-1.84-1.296-.729-1.747-.94-2.167-1.012-.242-.041-.49-.115-.55-.163-.163-.13-.99-.243-1.929-.265l-.826-.019.008 1.02c.012 1.357.358 4.227.82 6.804.126.698.186 1.119.398 2.775.09.716.221 1.37.289 1.454.177.22 2.09.086 2.782-.196.121-.05.505-.182.854-.294 1.32-.426 2.984-2.068 3.731-3.683.13-.28.258-.534.284-.564.063-.072.708.696 1.235 1.471.523.768 2.249 2.431 3.186 3.07 1.135.773 2.058 1.014 3.854 1.005.927-.005 1.732-.069 2.084-.167zm-4.295-1.128c-.35-.144-.919-.433-1.263-.642-.794-.482-2.654-2.384-3.445-3.522-.333-.48-.692-.903-.798-.942-.261-.095-.243-.3.082-.962.152-.307.276-.611.276-.675 0-.064.281-.635.626-1.269.807-1.487 1.572-2.297 2.719-2.879.86-.436.875-.439 2.148-.431 1.43.009 1.854.1 3.211.69 1.56.68 2.984 1.709 4.412 3.19.7.724 1.338 1.484 1.419 1.688.13.328.122.433-.08.932-.974 2.413-3.829 4.788-6.136 5.106-1.034.142-2.44.017-3.171-.284zm7.536-6.789c.185-.417-.147-1.005-.54-.958-.205.024-.327.128-.398.338-.228.67.657 1.254.938.62zm-20.562 5.597c0-.51 0-.51.44-.567.382-.05.441-.095.441-.34 0-.257-.051-.289-.55-.34l-.552-.057v-.454c0-.447.006-.454.44-.49.772-.065.724-.587-.054-.587-.47 0-.663-.177-.694-.642-.021-.301.009-.325.472-.378.363-.042.505-.112.533-.26.06-.328-.193-.534-.658-.534-.365 0-.447-.046-.542-.303-.168-.455-.058-.604.448-.604.862 0 .677-.644-.202-.703l-.514-.034-.034-.482-.034-.482h.496c.553 0 .685-.114.513-.445-.086-.164-.254-.232-.639-.257l-.523-.035-.033-.612-.034-.612.915.079c2.187.187 3.931 1.269 5.915 3.668.323.39.656.709.74.709.36 0 .091.766-.826 2.352-1.095 1.891-2.917 2.993-4.858 2.938l-.606-.018v-.51zm-8.54-11.073c1.59-.785 2.626-1.724 3.65-3.307.562-.869.724-1.436.602-2.107-.096-.522-1.451-2.192-2.449-3.015-.722-.597-2.676-1.814-2.91-1.814-.062 0-.245-.09-.407-.199-.24-.162-.603-.205-1.976-.237-1.664-.038-1.69-.035-2.303.284-.933.485-2.114 1.814-2.691 3.03-.256.538-.505 1.004-.554 1.035-.049.031-.398-.302-.777-.74-1.668-1.932-3.635-2.95-5.776-2.99l-.661-.013-.032.86a8.76 8.76 0 0 0 .088 1.53c.066.37.169 1.003.228 1.408.104.715.228 1.497.423 2.665.052.311.158 1.102.234 1.757.19 1.62.188 1.617 1.023 1.556 2.365-.174 3.886-1.12 5.01-3.115.22-.39.452-.707.514-.706.063.002.288.268.5.591.898 1.369 2.581 2.902 3.88 3.534.564.275.71.294 2.191.293 1.487-.001 1.625-.02 2.193-.3zm-4.242-1.084c-.424-.187-.895-.454-1.047-.593a7.684 7.684 0 0 0-.63-.504c-.37-.261-1.35-1.444-2.058-2.487l-.41-.603.552-1.154c1.29-2.695 2.66-3.589 4.984-3.25.438.064.85.158.914.208.066.051.441.21.835.352 1.28.465 3.6 2.325 4.34 3.48.293.455.296.48.13.892-.283.696-1.112 1.803-1.894 2.53-.79.733-2.208 1.439-3.071 1.529a5.4 5.4 0 0 1-2.645-.4zm6.262-5.04c.134-.137.076-.688-.086-.827-.203-.173-.585-.054-.639.2-.069.323.153.703.412.703.132 0 .273-.034.313-.076zm-16.344 4.448c0-.229.062-.282.358-.312.3-.03.364-.086.394-.354.048-.43-.152-.645-.6-.645-.295 0-.372-.046-.372-.22 0-.172.09-.227.413-.255.378-.032.413-.064.413-.375 0-.32-.03-.344-.495-.397-.356-.04-.505-.112-.531-.255-.03-.16.042-.199.36-.199.452 0 .561-.162.4-.596-.081-.222-.198-.304-.471-.331-.515-.051-.568-.405-.068-.454.324-.032.365-.074.365-.376 0-.31-.045-.351-.496-.463-.626-.155-.67-.43-.077-.48.242-.02.446-.106.482-.202.093-.249-.27-.595-.665-.635-.304-.03-.35-.08-.382-.415l-.035-.38.678.08c1.349.162 2.72.934 3.857 2.173 1.443 1.573 1.369 1.457 1.207 1.875-.233.6-1.033 1.828-1.486 2.282-.704.703-1.797 1.165-2.836 1.197-.367.012-.413-.017-.413-.263zM19.93 8.991c.151-.091.343-.167.426-.17.307-.008 1.669-1.052 2.208-1.693.622-.738 1.222-1.885 1.222-2.334 0-.875-2.19-3.103-3.86-3.928-1.062-.524-1.351-.597-2.53-.638-.994-.035-1.232-.007-1.685.2-.912.415-1.616 1.2-2.392 2.663-.198.375-.371.694-.384.71-.013.017-.49-.448-1.06-1.032-.831-.853-1.202-1.143-1.879-1.472C9.244.932 9.042.884 8.123.856L7.093.824l-.033.585a5.1 5.1 0 0 0 .138 1.264c.094.373.171.9.172 1.172 0 .271.074.774.164 1.117.09.343.166.853.17 1.134.003.28.096.944.206 1.474l.2.964.99-.026c.85-.022 1.086-.075 1.657-.366.711-.363 1.743-1.418 2.061-2.108.097-.21.22-.41.275-.445.055-.035.32.23.59.59.942 1.255 2.184 2.333 3.162 2.744.562.236 2.725.284 3.085.068zm-3.42-1.133c-.73-.418-1.76-1.438-2.544-2.522-.235-.325-.427-.657-.428-.737-.001-.262.927-2.029 1.305-2.484.202-.243.599-.583.881-.754.478-.288.597-.31 1.671-.298 1.045.01 1.229.046 1.896.36.685.325 2.402 1.438 2.402 1.558 0 .03-.096.152-.213.272-.128.132-.189.309-.154.446.122.48.692.366.702-.14.004-.197.104-.13.551.376.3.34.546.686.546.77 0 .548-1.205 2.135-2.062 2.717-1.267.858-1.559.946-2.956.883-.772-.035-.978-.093-1.598-.447zm-7.874-.34c0-.143.098-.245.275-.288.201-.049.276-.142.276-.344 0-.218-.07-.29-.325-.335-.38-.068-.441-.27-.096-.32.626-.092.542-.772-.103-.836-.404-.04-.444-.243-.06-.3.14-.022.295-.08.346-.13.16-.159-.14-.57-.415-.57-.25 0-.45-.245-.313-.385.036-.038.183-.068.326-.068.591 0 .388-.641-.222-.702-.414-.042-.425-.246-.017-.299.536-.068.433-.7-.114-.7-.165 0-.27-.085-.313-.253-.1-.394.07-.461.77-.303 1.336.302 2.264.912 3.304 2.168l.68.823-.223.455c-.708 1.438-1.525 2.212-2.635 2.495-.803.205-1.141.173-1.141-.108z"/>
        <path fill="#55676B" d="M24.337 56.819c1.526-.544 3.068-1.954 3.827-3.497.515-1.047.517-1.436.01-2.218-1.1-1.702-3.189-3.312-5.21-4.02-.787-.274-.999-.301-2.039-.26-1 .04-1.242.089-1.749.359-.781.415-1.515 1.127-1.916 1.857-.18.328-.365.62-.412.65-.048.03-.2.35-.338.71-.33.859-.386.91-.59.524-.255-.482-1.245-1.517-1.989-2.08-.837-.633-2.182-1.216-3.165-1.373-1.42-.227-1.548-.05-1.266 1.755.098.63.229 1.58.29 2.11.21 1.807.326 2.596.495 3.346.093.413.169.922.169 1.132 0 .46.242.739.641.737 1.872-.005 3.905-1.207 4.661-2.755.248-.506.52-.872.651-.872.044 0 .377.395.74.879A11.804 11.804 0 0 0 19.55 56.2c1.298.951 3.175 1.193 4.788.618zm-3.732-.949c-.893-.434-1.83-1.24-2.664-2.29-.361-.455-.78-.973-.932-1.152-.311-.37-.342-.601-.123-.924.083-.124.266-.505.406-.848.261-.638 1.06-1.824 1.471-2.186.127-.112.464-.329.75-.482.452-.243.664-.28 1.625-.28.84 0 1.27.058 1.794.243.8.281 1.492.624 1.71.848.083.086.203.156.266.156.35 0 2.707 2.3 2.981 2.909.086.192.045.366-.194.818-.311.589-1.551 2.17-1.702 2.17-.046 0-.208.128-.361.286-.153.157-.668.462-1.145.677-.805.363-.948.391-2.023.394-1.061.003-1.215-.025-1.859-.339zm5.88-4.874c.042-.069.045-.254.007-.41-.052-.213-.13-.276-.313-.249-.35.051-.355.7-.007.75.13.02.272-.021.314-.09zm-15.37 4.252c0-.204.06-.283.212-.283.217 0 .56-.278.56-.454 0-.19-.35-.453-.603-.453-.14 0-.284-.075-.318-.167-.07-.189-.026-.226.397-.33.197-.048.303-.149.303-.287 0-.233-.205-.35-.615-.35-.193 0-.267-.063-.267-.227 0-.148.074-.227.212-.227.353 0 .56-.126.56-.344 0-.286-.296-.563-.602-.563-.141 0-.284-.075-.318-.166-.07-.19-.027-.226.396-.33.228-.056.303-.144.303-.35 0-.232-.071-.289-.467-.37-.54-.11-.745-.484-.266-.484.384 0 .623-.111.623-.29 0-.204-.433-.504-.728-.504-.167 0-.254-.086-.291-.286-.072-.387.045-.435.83-.343 1.298.151 3.095 1.301 3.987 2.551.226.317.504.628.618.69.198.11.2.136.026.594-.412 1.084-1.512 2.414-2.334 2.824-.606.301-1.028.406-1.695.421-.487.011-.523-.007-.523-.272zm33.937-12.453c.754-.31 1.022-.464 1.671-.963.987-.758 2.186-2.749 2.014-3.342-.155-.53-1.32-1.93-2.145-2.576-2.132-1.67-4.137-2.214-5.778-1.567-.835.329-1.843 1.44-2.45 2.704l-.442.917-.2-.315c-.64-1.004-1.911-2.059-3.089-2.562-.87-.372-2.156-.505-2.405-.25-.22.228-.225.716-.013 1.529.09.343.164.853.166 1.134.001.28.075.79.165 1.133.09.343.163.833.164 1.089.002.675.406 2.56.574 2.674.079.055.49.069.915.031a4.306 4.306 0 0 0 2.955-1.583c.297-.374.607-.842.69-1.04.084-.199.198-.39.254-.426.056-.035.35.28.655.701.965 1.334 2.081 2.27 3.25 2.726.879.342 2.196.336 3.049-.014zm-3.36-.87c-.975-.574-1.32-.88-2.102-1.864-.448-.565-.89-1.116-.982-1.225-.092-.11-.167-.237-.168-.284 0-.046.236-.56.524-1.143.633-1.28 1.483-2.192 2.241-2.404.825-.231 2.353-.078 3.209.321 1.302.608 2.79 1.815 3.552 2.881l.3.42-.312.6c-.416.798-1.822 2.246-2.517 2.592-.77.383-1.066.435-2.258.398-.852-.026-1.13-.08-1.488-.292zm5.213-4.384c-.025-.233-.096-.32-.256-.32-.339 0-.306.554.036.603.223.033.252-.004.22-.283zm-13.312 3.887c0-.195.077-.292.275-.343.394-.101.361-.467-.055-.616-.182-.066-.33-.169-.33-.23 0-.06.148-.143.33-.184.59-.133.324-.737-.323-.737-.352 0-.27-.304.103-.38.45-.093.423-.386-.056-.591-.473-.204-.498-.452-.055-.543.236-.048.33-.133.33-.296 0-.179-.095-.244-.44-.301-.519-.085-.581-.326-.11-.423.466-.096.45-.46-.028-.6-.275-.08-.366-.176-.392-.413-.031-.271.002-.308.275-.307.432.002 1.309.257 1.963.572.557.268 2.59 2.253 2.59 2.529 0 .074-.225.528-.499 1.01-.566.995-1.343 1.708-2.07 1.9-.254.068-.511.141-.572.164-.06.023-.296.046-.523.05-.365.009-.413-.022-.413-.261zM18.33 36.02c.714-.182 1.709-.581 1.709-.685 0-.052.205-.203.455-.334.71-.373 1.428-1.002 1.969-1.725.273-.365.61-.81.75-.991.273-.355.72-1.419.843-2.005.093-.452-.185-1.134-.755-1.848-1.486-1.863-3.14-3.2-5.126-4.148-1.867-.89-5.099-.797-6.065.175-.178.179-.418.356-.533.394-.34.11-1.777 2.097-1.96 2.71-.108.359-.603 1.209-.705 1.209-.047 0-.171-.133-.275-.295-.245-.385-1.627-1.809-2.261-2.329-1.164-.955-2.818-1.569-4.742-1.76-.893-.09-.95.015-.79 1.472.07.635.182 1.69.25 2.345.068.655.196 1.522.285 1.928.178.808.281 1.513.476 3.231.2 1.765.27 1.961.722 2.049.408.079.605.055 1.98-.24 1.902-.407 3.33-1.615 4.357-3.686.269-.544.453-.563.755-.079 1.19 1.91 3.322 3.854 4.86 4.43.699.262 3.048.374 3.801.182zm-3.995-1.41c-1.29-.622-2.483-1.744-3.905-3.672l-.786-1.065.224-.466c.745-1.548.98-1.998 1.312-2.515.835-1.296 1.877-2.008 3.13-2.136.776-.08 2.606.078 2.936.253.112.06.476.227.81.371.333.144.705.351.827.46.121.11.37.265.551.346.59.265 1.404.922 2.428 1.962 1.35 1.373 1.431 1.51 1.273 2.157-.13.528-.69 1.442-1.415 2.305-.946 1.128-2.816 2.257-3.995 2.411-.333.044-1.052.056-1.598.027-.834-.044-1.119-.114-1.792-.438zm7.173-5.8c.134-.138.076-.586-.1-.767-.237-.244-.456-.223-.602.056-.217.419.39 1.033.702.71zM2.921 33.96c-.106-.405-.09-.426.308-.426.465 0 .76-.27.659-.607-.098-.33-.08-.32-.64-.384-.271-.031-.52-.126-.55-.21-.07-.186-.013-.223.504-.318.407-.076.534-.262.443-.653-.047-.203-.341-.318-.821-.32-.23-.002-.303-.058-.303-.23 0-.153.073-.226.227-.226.368 0 .654-.215.654-.492 0-.434-.262-.689-.693-.676-.29.008-.402-.041-.442-.197-.069-.271.003-.336.374-.336.38 0 .65-.264.574-.56-.063-.25-.356-.384-.86-.396-.276-.006-.336-.058-.365-.32-.033-.29-.008-.311.386-.313.23 0 .494-.05.585-.11.147-.097.147-.144-.003-.424-.136-.252-.259-.321-.622-.349-.411-.03-.458-.066-.502-.379-.033-.226.003-.365.103-.405.309-.121 1.503.104 2.31.436 1.161.48 2.145 1.241 3.21 2.487.502.589.985 1.087 1.074 1.107.207.047.202.094-.048.456-.114.166-.29.502-.389.748-.1.245-.352.711-.56 1.036-.396.613-1.418 1.635-1.637 1.636-.07 0-.275.084-.457.187-.5.282-1.256.476-1.887.485-.497.007-.574-.024-.632-.248zm64.683-.311c.921-.249 1.152-.363 2.25-1.114.868-.595 2.138-1.853 2.395-2.372.085-.173.27-.441.41-.597.306-.34.626-1.087.814-1.895.127-.55.117-.634-.134-1.2-.15-.334-.414-.772-.589-.971-.174-.2-.59-.681-.923-1.07-.645-.749-1.639-1.65-2.094-1.895a5.807 5.807 0 0 1-.661-.455c-.765-.606-2.122-1.265-3.166-1.538-1.215-.317-3.127-.374-4.051-.12-.657.18-1.488.601-1.488.753 0 .06-.16.193-.358.298-.716.38-1.59 1.602-2.459 3.436l-.506 1.068-.448-.558c-1.161-1.448-2.524-2.633-3.958-3.443-.681-.385-2.443-.865-3.627-.988-.898-.093-1.034.08-.946 1.202.136 1.728.498 4.498.852 6.525.054.312.174 1.154.267 1.871.27 2.105.36 2.461.639 2.538.38.105 1.056.082 1.552-.053 2.608-.71 2.853-.838 4.13-2.164.7-.727.988-1.137 1.397-1.991.156-.326.326-.62.377-.652.05-.033.283.201.516.519.233.318.597.814.81 1.102.864 1.176 2.22 2.404 3.618 3.275 1.126.703 3.715.938 5.38.489zm-4.292-1.077c-.35-.144-.919-.433-1.263-.642-.794-.482-2.654-2.384-3.445-3.521-.429-.618-.676-.874-.846-.878-.21-.005-.229-.046-.152-.321.048-.174.193-.529.323-.79.129-.26.235-.526.235-.59 0-.064.281-.636.626-1.27.807-1.487 1.572-2.297 2.719-2.879.86-.436.875-.439 2.148-.431 1.43.009 1.854.1 3.211.69 1.56.68 2.984 1.709 4.412 3.19.7.724 1.338 1.484 1.419 1.688.13.328.122.433-.08.932-.974 2.413-3.829 4.788-6.136 5.106-1.034.142-2.44.017-3.171-.284zm7.463-6.663l.091-.312c.027-.093-.022-.313-.108-.489-.122-.248-.22-.31-.45-.283-.41.049-.573.53-.315.934.197.31.704.407.782.15zm-20.49 5.47c0-.51 0-.51.441-.566.382-.05.441-.095.441-.34 0-.257-.051-.289-.55-.34l-.552-.057v-.454c0-.447.006-.454.44-.49.772-.065.724-.587-.054-.587-.47 0-.663-.177-.694-.642-.021-.301.009-.325.472-.378.363-.042.505-.112.533-.26.062-.339-.193-.534-.697-.534-.436 0-.473-.024-.537-.352-.092-.474-.02-.555.492-.555.854 0 .66-.645-.212-.703l-.514-.034-.034-.482-.034-.482h.496c.553 0 .685-.114.513-.445-.086-.164-.254-.232-.639-.257l-.523-.035-.033-.612-.034-.612.915.079c2.188.187 3.93 1.269 5.918 3.671.447.54.639.696.796.645.27-.089.26.086-.046.802-1.296 3.037-3.276 4.618-5.697 4.549l-.606-.018v-.51zm-9.09-10.878c.719-.255 1.854-.962 2.682-1.669.388-.331 1.367-1.624 1.746-2.306.59-1.061.511-1.652-.375-2.805-1.226-1.594-2.68-2.7-4.99-3.793-.497-.236-.71-.261-2.203-.261-1.635 0-1.659.004-2.204.337-.83.507-1.948 1.717-2.313 2.502-.173.371-.437.896-.586 1.166l-.271.49-.509-.602c-1.503-1.783-2.874-2.688-4.695-3.101-1.368-.311-1.647-.328-1.855-.114-.205.21-.24 1.207-.076 2.1.052.28.149.854.214 1.275a1766.204 1766.204 0 0 0 .458 2.92c.054.343.172 1.184.263 1.87.176 1.337.282 1.531.836 1.531.474 0 2.322-.508 2.86-.787.722-.373 1.708-1.416 2.232-2.36.25-.451.494-.821.54-.821.048 0 .293.293.547.652 1.071 1.512 2.432 2.767 3.843 3.545.447.246.648.276 2.038.301.849.016 1.667-.016 1.818-.07zm-3.922-1.326c-.687-.327-1.033-.596-1.865-1.452-.561-.578-1.212-1.351-1.446-1.719-.233-.367-.462-.685-.507-.706-.176-.08-.063-.463.444-1.496.752-1.532 1.427-2.38 2.263-2.84.658-.362.724-.375 1.948-.374.943 0 1.366.048 1.653.187.212.102.678.297 1.036.432.358.136.854.395 1.102.576.248.181.65.462.892.624.625.417 2.352 2.252 2.433 2.586.225.922-1.913 3.466-3.496 4.16-1.023.448-1.573.545-2.707.477-.735-.043-1.064-.129-1.75-.455zm6.46-5.09c.194-.242-.03-.733-.335-.733-.29 0-.393.277-.236.63.14.316.366.357.57.103zm-16.401 4.51c-.029-.205.018-.254.24-.254.374 0 .648-.3.556-.608-.096-.322-.094-.32-.461-.35-.397-.033-.575-.142-.575-.353 0-.105.115-.163.322-.163.267 0 .67-.24.67-.397 0-.168-.412-.397-.713-.397-.212 0-.39-.067-.425-.16-.08-.214.017-.294.362-.294.16 0 .346-.057.414-.127.252-.259-.139-.78-.584-.78-.134 0-.27-.071-.302-.159-.074-.197.014-.294.266-.294.107 0 .272-.08.367-.178.27-.278.041-.595-.46-.637-.332-.029-.42-.086-.448-.29-.03-.213.016-.256.275-.258.752-.004.807-.558.072-.726-.39-.09-.465-.154-.504-.43-.026-.18 0-.355.056-.391.191-.122 1.381.083 2.05.353 1.197.483 2 1.174 3.51 3.02.27.33.278.377.143.766-.227.652-1.05 1.88-1.569 2.34-.855.758-1.674 1.078-2.676 1.042-.48-.017-.555-.052-.586-.274zM20.04 8.894c.754-.31 1.022-.464 1.672-.963.986-.758 2.186-2.749 2.013-3.342-.155-.53-1.32-1.93-2.145-2.576C19.448.342 17.443-.202 15.802.445c-.835.329-1.843 1.44-2.45 2.704l-.442.917-.2-.315c-.64-1.004-1.911-2.059-3.089-2.562-.87-.372-2.156-.505-2.404-.25-.221.228-.226.716-.014 1.529.09.343.164.853.166 1.134.001.28.075.79.165 1.133.09.343.163.833.164 1.089.002.675.406 2.56.574 2.674.079.055.49.069.915.031a4.306 4.306 0 0 0 2.955-1.583c.297-.374.608-.842.691-1.04.083-.199.197-.39.253-.426.056-.035.35.28.655.701.965 1.334 2.081 2.27 3.251 2.726.878.342 2.195.336 3.048-.014zm-3.36-.87c-.975-.574-1.32-.88-2.101-1.864-.449-.565-.891-1.116-.983-1.225-.092-.11-.167-.237-.167-.284 0-.046.235-.56.523-1.143.633-1.28 1.483-2.192 2.241-2.404.825-.231 2.353-.078 3.209.321 1.302.608 2.79 1.815 3.552 2.881l.3.42-.312.6c-.416.798-1.821 2.246-2.516 2.592-.771.383-1.067.435-2.26.398-.85-.026-1.128-.08-1.487-.292zm5.214-4.384c-.026-.233-.096-.32-.256-.32-.34 0-.307.554.035.603.223.033.252-.004.22-.283zM8.58 7.526c0-.195.077-.292.275-.343.394-.101.361-.467-.055-.616-.182-.066-.33-.169-.33-.23 0-.06.148-.143.33-.184.59-.133.324-.737-.323-.737-.352 0-.27-.304.103-.38.45-.093.423-.386-.055-.591-.473-.204-.499-.452-.055-.543.235-.048.33-.133.33-.296 0-.179-.096-.244-.44-.301-.52-.085-.582-.326-.11-.423.465-.096.449-.46-.028-.6-.276-.08-.366-.176-.393-.413-.031-.271.002-.308.275-.307.432.002 1.31.257 1.963.572.557.268 2.59 2.253 2.59 2.529 0 .074-.225.528-.499 1.01-.566.995-1.343 1.708-2.07 1.9-.254.068-.511.141-.572.164-.06.023-.296.046-.523.05-.365.009-.413-.022-.413-.261z"/>
        <path fill="#394649" d="M24.172 56.823c.242-.095.54-.202.66-.238.425-.126 1.578-1.051 2.261-1.814.727-.812 1.431-2.14 1.431-2.701 0-.391-.57-1.286-1.317-2.067-.591-.618-2.013-1.841-2.14-1.841-.04 0-.265-.13-.5-.29-.234-.16-.834-.441-1.332-.624-.795-.293-1.056-.333-2.125-.333-1.126 0-1.269.025-1.888.335-1.184.594-2.092 1.763-2.868 3.69-.16.398-.39.537-.39.236 0-.25-1.174-1.586-1.919-2.183-.376-.302-1.118-.729-1.69-.972-.862-.366-1.158-.436-1.928-.458l-.91-.025-.035.45c-.02.248.042.937.136 1.531.095.594.222 1.514.283 2.044.2 1.736.32 2.562.489 3.356.091.43.18.936.198 1.123l.031.34.973-.024c.836-.02 1.086-.076 1.763-.394.955-.447 1.966-1.387 2.357-2.19.286-.587.558-.963.695-.963.044 0 .377.395.741.878 1.132 1.503 2.457 2.638 3.585 3.072.795.305 2.728.34 3.439.062zm-3.742-.954c-.853-.438-2.331-1.842-3.131-2.973-.254-.359-.51-.652-.568-.652-.192 0-.113-.315.279-1.119.212-.435.385-.838.385-.896 0-.143 1.01-1.5 1.337-1.793.67-.604 1.105-.766 2.19-.815.898-.04 1.165-.006 1.887.238.463.157 1.052.404 1.31.549.257.145.597.335.756.423.935.513 2.924 2.504 3.064 3.066.14.565-1.089 2.37-2.2 3.23-.503.39-1.65.999-2.118 1.125-.121.032-.716.049-1.322.036-1.014-.022-1.163-.056-1.87-.419zm5.927-4.835c.134-.137.076-.58-.084-.642-.25-.1-.432.205-.287.484.125.24.243.29.371.158zM11.06 55.25c0-.288.05-.347.33-.398.264-.046.331-.116.331-.34 0-.237-.063-.292-.386-.34-.322-.047-.385-.103-.385-.339 0-.225.067-.294.33-.341.498-.089.426-.385-.11-.454-.382-.049-.44-.094-.44-.34 0-.238.058-.29.364-.32.324-.031.36-.07.33-.34-.028-.251-.1-.313-.42-.36-.322-.048-.385-.103-.385-.34 0-.224.067-.294.33-.34.238-.043.331-.123.331-.285 0-.178-.085-.233-.405-.26-.749-.065-.885-.703-.15-.703.649 0 .461-.506-.216-.585-.283-.033-.336-.091-.365-.408-.024-.251.02-.39.134-.436.209-.082 1.696.167 1.775.297.031.052.242.156.468.23.607.199 1.95 1.293 2.516 2.05.271.363.577.708.68.767.167.096.17.154.039.542-.207.609-.75 1.472-1.328 2.114-.722.802-1.928 1.332-2.927 1.288-.412-.018-.441-.042-.441-.359zm33.937-12.468c.181-.087.405-.19.495-.228.563-.237 1.584-1.04 2.003-1.575.528-.674.862-1.196.866-1.353.002-.076.076-.236.165-.357.089-.121.162-.361.162-.534 0-.92-2.152-3.079-3.912-3.926-.938-.451-1.25-.526-2.369-.565-.982-.034-1.233-.005-1.667.192-.51.232-1.693 1.411-1.988 1.98-.279.538-.616 1.26-.68 1.457-.077.235-.292.266-.292.042 0-.443-2.47-2.678-2.96-2.678-.073 0-.243-.074-.377-.164-.155-.104-.608-.177-1.236-.199l-.992-.034-.033.528c-.018.29.044.834.138 1.207.094.373.171.901.172 1.173 0 .271.075.774.164 1.117.09.343.165.853.167 1.134.003.28.095.918.204 1.417l.198.907.916-.026c.961-.027 1.553-.23 2.284-.786.394-.3 1.237-1.401 1.439-1.88.186-.443.376-.39.802.226.855 1.235 2.192 2.431 3.19 2.854.545.23 2.704.28 3.14.07zm-3.44-.868c-.948-.542-1.179-.742-1.933-1.682-.902-1.124-1.183-1.544-1.183-1.77 0-.162.098-.396.45-1.07l.325-.624c.293-.565.906-1.236 1.483-1.625.404-.272.538-.297 1.602-.3.889-.002 1.275.047 1.652.209 1.35.58 2.386 1.29 3.292 2.254 1.014 1.08 1.063 1.17.893 1.66-.324.928-1.602 2.318-2.668 2.903-.75.411-1.254.508-2.37.454-.766-.038-1.002-.1-1.542-.409zm5.329-4.24c.095-.258-.172-.545-.36-.386-.107.093-.117.185-.036.342.135.259.308.278.396.043zm-13.289 3.975c-.2-.247-.094-.554.217-.63.338-.082.362-.383.034-.431-.52-.077-.603-.589-.095-.589.292 0 .443-.267.246-.435-.072-.062-.28-.13-.462-.15-.455-.053-.472-.475-.02-.529.377-.044.37-.397-.008-.453-.272-.04-.542-.444-.395-.59.051-.05.217-.108.368-.13.408-.056.351-.37-.074-.412-.649-.065-.759-.523-.146-.608.384-.053.351-.362-.046-.434-.23-.04-.35-.148-.426-.379-.161-.5.009-.587.824-.42 1.385.284 2.223.855 3.707 2.527l.478.539-.257.517c-.142.284-.327.65-.41.811-.216.418-1.025 1.226-1.462 1.459-.384.205-1.299.467-1.706.489a.493.493 0 0 1-.367-.152zm-15.265-5.69c.73-.19 1.57-.546 1.846-.786.176-.152.357-.276.402-.276.045 0 .371-.231.724-.513.56-.448.91-.852 1.93-2.229.31-.418.773-1.718.773-2.17 0-.7-1.208-2.272-2.81-3.658-.78-.674-2.006-1.521-2.202-1.521-.075 0-.263-.102-.417-.227-.584-.472-1.579-.704-3.276-.762-2.19-.075-2.776.14-4.095 1.499-.53.545-1.367 1.811-1.544 2.333-.148.438-.618 1.182-.746 1.182-.048 0-.321-.296-.607-.657-.603-.762-2.265-2.288-2.754-2.53a41.5 41.5 0 0 1-.86-.445c-.287-.153-.882-.333-1.322-.4-.439-.068-.884-.17-.99-.228-.105-.058-.497-.106-.87-.106h-.68l.07 1.05c.037.576.143 1.558.235 2.182.093.623.169 1.34.169 1.59 0 .252.078.737.173 1.078.17.61.241 1.087.499 3.341.194 1.704.174 1.673 1.065 1.61.974-.07 2.349-.36 2.767-.582C7.116 34.04 8 33.09 8.852 31.466c.156-.296.327-.539.381-.539.054 0 .338.313.632.696 1.18 1.54 2.96 3.386 3.263 3.386.053 0 .253.12.446.267.734.557 1.237.678 2.94.71.879.016 1.697.003 1.818-.028zm-2.59-.84c-1.22-.162-2.19-.715-3.507-1.997-.586-.57-1.288-1.353-1.56-1.74a25.045 25.045 0 0 0-.808-1.085l-.312-.383.267-.541c.146-.298.4-.823.564-1.166 1.045-2.193 2.224-3.283 3.8-3.513.86-.125 2.568.024 3.12.273 1.213.547 1.628.76 1.694.87.041.07.246.2.456.29.781.335 2.334 1.676 3.256 2.81.519.637.545.7.497 1.21-.115 1.233-2.133 3.552-3.775 4.338-.364.175-.77.371-.905.438-.202.1-1.064.242-1.795.295-.09.007-.537-.038-.991-.098zm5.713-6.43c.161-.316-.044-.732-.34-.688-.308.045-.386.445-.137.702.23.236.352.233.477-.014zM2.872 33.854c-.033-.418-.033-.419.441-.454.446-.033.475-.055.475-.375 0-.325-.025-.343-.551-.397-.5-.051-.554-.085-.585-.362-.032-.284-.003-.307.44-.34.447-.033.475-.055.475-.375 0-.325-.024-.343-.55-.397-.5-.051-.552-.083-.552-.34 0-.246.056-.288.414-.319.385-.033.413-.06.413-.402 0-.481-.171-.64-.69-.64-.4 0-.424-.019-.392-.312.03-.27.093-.319.475-.368.314-.04.45-.117.478-.267.058-.31-.14-.452-.726-.522-.494-.058-.522-.08-.522-.402 0-.325.022-.341.523-.374.406-.027.523-.078.522-.227-.003-.343-.158-.46-.662-.496l-.494-.036v-.907l.661.022c.618.02 1.4.2 1.653.38.06.043.309.144.551.224.243.08.614.282.827.449.212.166.572.442.801.613.229.171.796.767 1.262 1.324.465.557.91 1.013.989 1.013.16 0 .197.405.047.501-.053.034-.231.356-.396.715-.722 1.58-1.477 2.423-2.674 2.985-.87.41-1.435.548-2.123.523-.488-.019-.496-.025-.53-.437zm64.735-.266c.844-.234 1.209-.413 2.126-1.041.903-.62 2.232-1.932 2.5-2.47a3.39 3.39 0 0 1 .437-.635c.323-.355.804-1.704.806-2.256.002-.55-.476-1.347-1.496-2.495-.814-.915-2.166-2.154-2.351-2.154-.047 0-.279-.16-.514-.355a4.923 4.923 0 0 0-.814-.54 13.15 13.15 0 0 1-.882-.485c-.273-.165-.934-.411-1.47-.547-.832-.211-1.213-.242-2.59-.207-2.089.052-2.57.257-3.943 1.68-.758.786-1.787 2.52-2.17 3.657-.115.341-.328.21-1.01-.62-.805-.977-2.268-2.324-2.75-2.532-.194-.083-.413-.226-.487-.317-.155-.192-1.063-.58-1.777-.76-1.257-.316-1.536-.363-2.259-.377l-.771-.014.01.972c.004.535.093 1.657.196 2.494l.31 2.518c.068.548.165 1.023.217 1.056.051.033.093.309.093.613s.043.58.094.613c.052.033.13.508.172 1.056.043.547.137 1.353.21 1.79l.13.793.816.034c.467.019.865-.018.931-.085.064-.066.238-.12.389-.12.554 0 2.148-.603 2.624-.993.838-.687 1.684-1.543 1.75-1.77.04-.132.186-.368.327-.524.14-.156.354-.52.474-.81.356-.855.284-.9 1.67 1.023.502.698 2.027 2.231 2.589 2.605.242.16.579.407.748.548.169.14.705.384 1.19.542.773.251 1.07.286 2.392.28.926-.005 1.731-.07 2.083-.167zm-4.412-1.01c-1.555-.589-2.946-1.847-4.679-4.23-.345-.475-.591-.709-.746-.709-.127 0-.258-.028-.292-.063-.124-.127.5-1.563 1.553-3.576.144-.274.644-.882 1.111-1.35.976-.977 1.657-1.308 2.94-1.43.906-.085 2.33.098 3.268.422.82.283 2.407 1.19 3.295 1.884 1.48 1.155 3.283 3.175 3.283 3.677 0 .24-.927 1.865-1.342 2.352-.201.236-.445.527-.542.646-1.02 1.245-2.874 2.382-4.324 2.65-.978.182-2.67.05-3.525-.273zm7.456-6.715c.122-.125.083-.664-.059-.809-.196-.202-.395-.165-.532.098-.203.39.308 1.002.591.71zm-20.399 5.546l-.033-.595h.45c.3 0 .471-.057.514-.172.11-.297-.177-.508-.69-.508-.336 0-.483-.048-.483-.156 0-.086-.03-.312-.067-.503-.067-.342-.06-.348.413-.383.402-.03.486-.077.516-.29.031-.231-.01-.256-.441-.258-.606-.002-.703-.074-.794-.586l-.075-.419.46-.035c.286-.022.506-.108.579-.228.16-.264.04-.354-.568-.426l-.519-.061-.034-.482c-.033-.48-.032-.482.345-.482.208 0 .44-.077.516-.17.215-.267-.057-.51-.568-.51-.452 0-.506-.06-.558-.622-.03-.318-.004-.342.435-.404.559-.08.666-.17.51-.425-.077-.127-.294-.205-.63-.228-.443-.03-.512-.068-.513-.283 0-.137-.032-.44-.07-.675-.065-.409-.056-.425.25-.425.313 0 1.405.21 2.338.45.55.142 1.183.456 1.89.942.648.444 2.26 2.06 2.607 2.613.24.384.307.424.595.36.457-.104.428.076-.227 1.42-.678 1.39-1.386 2.366-2.132 2.938-.771.592-1.091.743-2.054.97-.455.107-.876.212-.937.234-.06.021-.308.029-.55.017l-.441-.023-.034-.595zM41.75 20.18c1.722-.868 3.034-2.153 3.91-3.83.236-.452.283-.67.246-1.145-.039-.512-.124-.688-.666-1.379-.75-.955-2.1-2.238-2.765-2.627-.266-.156-.762-.449-1.1-.652-.34-.202-.681-.368-.76-.368-.078 0-.265-.09-.414-.199-.224-.162-.57-.205-1.938-.236-1.622-.037-1.68-.03-2.246.264-.32.167-.934.669-1.367 1.116-.617.637-.902 1.051-1.318 1.918-.292.608-.568 1.128-.612 1.156-.044.028-.373-.304-.73-.738-1.258-1.525-2.882-2.609-4.271-2.848-.376-.065-.785-.166-.91-.226-.124-.06-.446-.093-.715-.073l-.49.036.01 1.277c.006.703.065 1.392.132 1.531.068.14.178.813.246 1.498.067.685.163 1.297.211 1.36.049.064.12.448.16.854.151 1.57.33 2.784.43 2.92.119.16 1.244.197 1.336.044.032-.054.309-.128.615-.165.923-.113 1.758-.575 2.56-1.418.397-.417.845-.991.996-1.277.406-.765.565-1.011.654-1.011.043 0 .35.37.681.822 1.186 1.618 2.5 2.821 3.725 3.411.589.284.721.302 2.203.297 1.487-.004 1.612-.022 2.187-.312zm-3.053-.47c-.915-.135-2.038-.701-2.865-1.443-.635-.568-2.24-2.51-2.24-2.71 0-.048-.08-.18-.18-.293-.168-.191-.153-.261.22-1.05.221-.466.401-.873.401-.905 0-.074.373-.633.933-1.399.813-1.112 2.278-1.64 3.88-1.4.84.127 2.501.792 3.14 1.257.262.191.675.48.917.643.585.393 2.082 1.955 2.313 2.415.157.312.163.419.043.723-.497 1.257-2.15 3.04-3.292 3.548-.334.149-.705.328-.825.4-.185.109-.95.254-1.6.303-.09.007-.471-.033-.845-.088zm4.995-5.74c.087-.232-.091-.56-.305-.56-.238 0-.2.668.04.716a.246.246 0 0 0 .265-.156zm-16.359 4.635c-.031-.334-.007-.363.33-.396.325-.032.365-.074.365-.377 0-.311-.036-.345-.44-.396-.38-.05-.446-.1-.475-.362-.032-.278.002-.307.385-.34.335-.028.42-.081.42-.262 0-.185-.092-.238-.496-.284-.44-.05-.496-.088-.496-.34 0-.246.055-.288.414-.319.238-.02.413-.095.413-.176 0-.264-.274-.511-.606-.547-.27-.029-.33-.087-.33-.318 0-.227.062-.291.309-.32.338-.04.505-.304.316-.499-.065-.067-.307-.154-.538-.192-.354-.06-.418-.114-.418-.352 0-.24.058-.287.385-.318.212-.02.431-.082.486-.137.172-.173-.15-.436-.577-.472-.393-.034-.405-.048-.405-.488v-.454l.662.031c.77.037 1.619.339 2.5.89.618.386 2.845 2.676 2.842 2.923-.002.234-.626 1.393-1.092 2.027-.908 1.239-2.171 1.913-3.48 1.858-.41-.018-.442-.044-.474-.38zM19.985 8.88c.182-.087.405-.19.496-.228.562-.237 1.583-1.04 2.002-1.575.528-.674.862-1.196.866-1.353.002-.076.076-.236.165-.357.09-.121.162-.361.162-.534 0-.92-2.151-3.079-3.912-3.926-.937-.451-1.249-.526-2.369-.565-.982-.034-1.233-.005-1.667.192-.509.232-1.693 1.411-1.988 1.98-.279.538-.616 1.26-.68 1.457-.077.235-.292.266-.292.042 0-.443-2.47-2.678-2.96-2.678-.073 0-.243-.074-.377-.164-.155-.104-.608-.177-1.236-.199L7.203.937l-.033.528c-.018.29.044.834.138 1.207.094.373.171.901.172 1.173.001.271.075.774.164 1.117.09.343.165.853.168 1.134.002.28.094.918.203 1.417l.198.907.916-.026c.961-.027 1.553-.23 2.284-.786.394-.3 1.237-1.401 1.439-1.88.187-.443.376-.39.802.226.855 1.235 2.192 2.431 3.19 2.854.545.23 2.704.28 3.14.07zm-3.44-.868c-.948-.542-1.178-.742-1.932-1.682-.903-1.124-1.184-1.544-1.184-1.77 0-.162.098-.396.45-1.07l.325-.624c.293-.565.906-1.236 1.484-1.625.403-.272.538-.297 1.6-.3.89-.002 1.277.047 1.654.209 1.35.58 2.385 1.29 3.291 2.253 1.014 1.08 1.063 1.171.893 1.66-.324.929-1.602 2.32-2.667 2.904-.751.411-1.255.508-2.37.454-.767-.038-1.003-.1-1.543-.409zm5.329-4.24c.096-.258-.172-.545-.359-.386-.108.093-.118.185-.037.342.135.259.308.278.396.043zM8.585 7.745c-.2-.247-.093-.554.217-.63.338-.082.362-.383.035-.431-.52-.077-.604-.589-.096-.589.292 0 .443-.267.246-.435-.072-.062-.28-.13-.461-.15-.456-.053-.473-.475-.021-.529.377-.044.371-.397-.008-.453-.272-.04-.542-.444-.395-.59.051-.05.217-.109.369-.13.407-.056.35-.37-.075-.412-.649-.065-.759-.523-.146-.608.384-.053.351-.362-.046-.434-.23-.041-.35-.148-.425-.38-.162-.5.008-.586.823-.419 1.385.284 2.223.855 3.707 2.527l.478.539-.257.517c-.142.284-.327.65-.41.811-.216.418-1.025 1.226-1.461 1.459-.385.205-1.3.467-1.707.489a.493.493 0 0 1-.367-.152z"/>
        <path fill="#0F1212" d="M24.172 56.71c.242-.095.54-.202.66-.238.417-.124 1.575-1.048 2.206-1.76.683-.769 1.376-2.09 1.376-2.624 0-.871-2.092-3.11-3.857-4.125-1.194-.688-2.11-.935-3.462-.934-1.058 0-1.296.038-1.793.275-.713.342-1.503 1.081-1.878 1.758a6.812 6.812 0 0 1-.424.687c-.076.094-.245.45-.375.794-.13.343-.318.751-.419.907a4.81 4.81 0 0 0-.366.813c-.388 1.112-1.542 2.521-2.454 2.995-.675.351-1.983.6-2.25.428-.423-.273-.233-.948.268-.948.188 0 .262-.063.262-.227 0-.174-.074-.226-.317-.226-.38 0-.595-.232-.546-.59.028-.202.117-.269.395-.296.483-.048.454-.226-.044-.27-.713-.062-.804-.78-.11-.865.43-.053.408-.474-.026-.474-.38 0-.594-.232-.545-.589.028-.202.117-.27.394-.297.496-.049.487-.361-.01-.361-.793 0-.968-.808-.193-.887.437-.044.399-.288-.053-.342-.453-.054-.598-.214-.598-.66 0-.497.159-.555 1.096-.395 1.395.237 3.051 1.318 4.036 2.636.544.726.708.818.708.394 0-.372-1.043-1.595-1.935-2.269-.989-.747-2.334-1.285-3.454-1.381l-.892-.077v.512c0 .281.072.94.159 1.462.087.523.21 1.41.274 1.97.206 1.812.328 2.638.5 3.403.093.413.17.908.17 1.1v.35l.963-.075c1.723-.135 3.264-1.124 4.001-2.566.38-.743.582-1.02.743-1.02.066 0 .44.42.83.935 1.16 1.527 2.387 2.578 3.52 3.014.796.306 2.729.341 3.44.063zm-3.748-.748c-.86-.452-2.055-1.53-2.808-2.535-.273-.364-.632-.8-.799-.968-.167-.168-.303-.36-.303-.425s.174-.474.386-.909c.212-.435.385-.838.385-.897 0-.138.694-1.094 1.201-1.654.218-.242.694-.586 1.058-.766.563-.278.795-.326 1.567-.326.974 0 2.112.307 3.007.812.258.146.598.336.757.423.938.515 3.037 2.618 3.175 3.18.143.585-1.154 2.457-2.33 3.361-.501.386-1.374.846-2.044 1.078-.152.053-.771.081-1.377.064-1.017-.029-1.162-.062-1.875-.438zm5.896-5.186c0-.248-.172-.405-.268-.245-.08.134.04.465.17.465.054 0 .098-.099.098-.22zm18.732-8.131c1.153-.54 1.846-1.062 2.506-1.888.539-.675 1.02-1.654 1.02-2.077 0-.821-1.976-2.824-3.601-3.65-1.099-.558-1.379-.632-2.57-.673-.986-.035-1.233-.006-1.672.194-.668.304-1.694 1.457-2.137 2.4-1.283 2.738-1.561 3.247-2.042 3.745-.28.29-.702.627-.937.747-.549.28-1.629.52-1.915.426-.47-.153-.366-.964.122-.964.114 0 .207-.05.207-.113s-.091-.114-.203-.114c-.112 0-.292-.1-.4-.224-.159-.18-.172-.258-.065-.39a.655.655 0 0 1 .35-.2c.339-.056.254-.257-.134-.32-.437-.07-.642-.359-.437-.614a.521.521 0 0 1 .352-.18c.114 0 .207-.05.207-.113 0-.062-.098-.113-.218-.113-.314 0-.623-.514-.443-.737.075-.094.255-.17.399-.17.144 0 .262-.051.262-.113 0-.063-.145-.114-.323-.114-.298 0-.669-.243-.669-.439 0-.168.272-.354.518-.354.385 0 .303-.208-.098-.248-.297-.03-.367-.096-.448-.421-.074-.293-.057-.426.069-.556.143-.147.258-.15.861-.022 1.267.27 2.027.725 3.092 1.852.706.747.964.96.964.793 0-.312-1.109-1.545-1.86-2.068-.953-.664-1.546-.887-2.592-.977l-.947-.081.002.552c0 .304.074.833.164 1.176.09.343.163.853.165 1.133.001.281.076.791.165 1.134.09.343.163.828.164 1.077 0 .25.086.88.192 1.403l.19.949.905-.076c1.255-.105 2.086-.552 2.872-1.546.317-.401.577-.782.578-.845.001-.063.124-.3.272-.524.149-.225.305-.555.347-.735.146-.62 1.065-2.256 1.573-2.802.833-.895 1.192-1.04 2.548-1.027 1.083.01 1.211.036 2.002.413a9.507 9.507 0 0 1 2.958 2.15c1.084 1.153 1.107 1.217.712 1.998-.446.881-1.799 2.254-2.697 2.736-.684.367-.77.385-1.928.392-1.305.007-1.41-.029-2.736-.936-.424-.29-2.057-2.199-2.057-2.404 0-.06-.074-.11-.165-.11-.274 0-.192.22.378 1.007.871 1.205 2.012 2.204 2.982 2.614.583.245 2.704.277 3.196.047zm1.703-5.026a.197.197 0 0 0-.033-.249c-.163-.147-.293.043-.16.236.076.113.123.116.193.013zm-28.423-1.774c.677-.176 1.571-.54 1.763-.717.121-.113.347-.275.501-.36.587-.325 1.29-.964 1.763-1.601.27-.364.603-.808.74-.987.317-.413.797-1.72.797-2.168 0-.558-.42-1.22-1.575-2.483-.938-1.027-2.598-2.325-3.344-2.617a1.841 1.841 0 0 1-.483-.281c-.424-.395-1.567-.646-3.192-.702-1.411-.048-1.672-.027-2.236.177-.95.344-1.879 1.163-2.596 2.286-.467.732-1.558 2.898-1.56 3.095 0 .075-.081.29-.18.477-.1.187-.302.595-.451.907-.765 1.602-1.636 2.522-2.925 3.088-1.017.446-2.26.614-2.486.334-.078-.097-.126-.345-.107-.552.033-.355.062-.378.503-.41.414-.032.469-.068.469-.313 0-.25-.045-.277-.474-.277-.552 0-.738-.148-.738-.59 0-.3.026-.317.495-.317.453 0 .496-.024.496-.277 0-.25-.051-.28-.512-.312-.341-.023-.552-.1-.633-.233-.177-.29.046-.587.474-.631.325-.033.35-.065.32-.397-.032-.337-.067-.364-.53-.417-.483-.056-.496-.068-.496-.454s.013-.398.468-.432c.369-.027.468-.079.468-.243 0-.243-.209-.345-.703-.345-.41 0-.619-.172-.619-.51 0-.354.213-.51.691-.51.347 0 .42-.038.39-.2-.025-.14-.162-.208-.474-.234-.6-.05-.734-.195-.695-.748l.033-.463.76.026c.977.034 2.481.63 3.482 1.38.394.295 1.108.993 1.586 1.55s.919 1.013.98 1.013c.06 0 .163-.086.227-.192.094-.153.02-.32-.385-.85-.582-.763-2.281-2.35-2.782-2.596a39.354 39.354 0 0 1-.858-.444c-.562-.299-1.937-.616-3.054-.703l-.706-.055.073 1.074c.04.59.122 1.348.18 1.683.06.335.156 1.155.216 1.823.06.668.179 1.385.263 1.593.084.208.187.783.228 1.28.078.948.253 2.38.356 2.923.061.32.062.32.795.268 2.165-.157 3.446-.716 4.51-1.97.518-.609 1.146-1.58 1.35-2.086.073-.182.199-.331.278-.331.08 0 .409.338.73.75 1.416 1.816 2.394 2.813 3.396 3.462 1.128.731 1.44.814 3.195.846.879.017 1.697.004 1.818-.027zm-2.557-.609c-1.648-.22-3.637-1.704-5.262-3.926-.358-.491-.754-.98-.879-1.087l-.227-.194.303-.601c.167-.331.303-.646.303-.7 0-.054.252-.55.56-1.104 1.382-2.486 2.83-3.312 5.335-3.046a5.766 5.766 0 0 1 1.928.52c.515.228 1.011.478 1.102.557.09.078.334.23.54.338.889.464 2.432 1.822 3.344 2.943.52.638.545.7.497 1.213-.082.884-1.302 2.57-2.645 3.657-.769.623-2.328 1.34-3.113 1.434-.948.112-.916.112-1.786-.004zm5.621-6.617c.034-.09-.006-.258-.09-.374-.121-.17-.176-.182-.292-.064-.104.105-.111.196-.027.333.157.257.335.303.409.105zm46.211 4.856c.845-.235 1.21-.413 2.126-1.043.879-.604 2.149-1.862 2.406-2.382.085-.172.275-.446.422-.608.321-.355.803-1.704.805-2.256 0-.23-.127-.625-.3-.934-.574-1.02-2.615-3.155-3.443-3.603a5.807 5.807 0 0 1-.661-.455c-.733-.58-2.042-1.218-3.014-1.468-.836-.215-1.205-.245-2.59-.21-1.38.035-1.69.077-2.147.292-1.337.63-2.504 1.989-3.434 3.997-.66 1.428-.696 1.517-.762 1.93-.076.472-1.168 2.523-1.708 3.205-.617.781-1.51 1.45-2.307 1.726-1.048.364-1.877.534-2.384.49-.41-.035-.445-.066-.497-.435a3.174 3.174 0 0 1-.015-.709c.037-.276.087-.311.451-.311.226 0 .443-.034.482-.075.154-.158-.192-.379-.593-.379-.49 0-.523-.04-.614-.72l-.068-.513.473-.035c.66-.05.72-.32.073-.32-.56 0-.688-.113-.794-.698-.064-.348-.04-.436.148-.539.123-.068.38-.123.57-.123.56 0 .329-.276-.284-.34-.533-.056-.542-.063-.612-.508-.095-.606-.026-.74.383-.741.19-.001.41-.044.49-.095.215-.141-.137-.4-.437-.32-.379.103-.608-.101-.687-.612-.093-.596.054-.786.608-.786.235 0 .427-.05.427-.11 0-.118-.277-.203-.822-.255-.303-.03-.336-.078-.452-.676-.069-.355-.088-.707-.042-.782.187-.313 2.833.222 3.831.773 1.016.562 1.908 1.314 2.857 2.411.512.592.963 1.09 1.003 1.104.039.014.138-.018.22-.071.274-.178.022-.557-1.234-1.864-1.197-1.244-1.953-1.825-3.102-2.386-.79-.386-2.276-.747-3.405-.83l-.761-.055.069 1.081c.108 1.7.42 4.13.855 6.65.059.342.153.98.209 1.417.056.436.16 1.214.23 1.729l.126.935h.725c.398 0 .877-.047 1.063-.105.186-.059.561-.166.834-.239 1.484-.397 1.928-.66 3.07-1.816.704-.714.972-1.11 1.44-2.12.181-.39.379-.709.44-.709.103 0 .407.379 1.44 1.791.521.712 1.937 2.14 2.48 2.5.242.162.579.409.748.55.169.14.705.384 1.19.542.773.25 1.07.286 2.392.28.926-.006 1.731-.07 2.083-.167zm-4.491-.812c-1.463-.587-3.257-2.185-4.654-4.145-.402-.563-.613-.765-.801-.765-.518 0-.458-.272.511-2.325 1.075-2.277 2.113-3.472 3.518-4.05.796-.328 2.971-.36 4.076-.059 1.644.447 4.01 1.955 5.545 3.535.908.934 1.728 2.024 1.726 2.295-.002.314-.795 1.745-1.423 2.566-1.01 1.323-2.663 2.573-3.974 3.005-1.017.335-1.13.35-2.48.312-1.032-.03-1.335-.084-2.044-.369zm7.46-7.01c.077-.208-.08-.565-.249-.565-.174 0-.17.469.005.618.14.12.182.11.244-.054zm-28.83-5.587c1.344-.68 2.207-1.398 3.019-2.508 1.316-1.798 1.378-2.441.362-3.736a11.777 11.777 0 0 0-3.28-2.879c-.61-.358-1.169-.652-1.241-.652-.073 0-.256-.089-.405-.198-.224-.163-.57-.205-1.938-.237-1.62-.037-1.68-.03-2.243.263-.317.166-.908.642-1.312 1.059-.588.606-.85 1.001-1.313 1.976-.318.67-.64 1.22-.717 1.22-.077 0-.22-.141-.32-.313-.288-.5-1.604-1.815-2.305-2.306-1.089-.76-2.294-1.175-3.832-1.318l-.596-.055.063 1.304c.034.718.11 1.399.17 1.514.06.115.166.767.237 1.449.07.681.17 1.32.22 1.417.05.098.151.714.224 1.369.073.654.165 1.445.205 1.757l.072.567.661-.01c.846-.014 1.974-.291 2.66-.653.895-.473 2.198-2.055 2.605-3.164.04-.109.111-.198.158-.197.048 0 .31.319.582.707 1.17 1.663 2.634 3.03 3.917 3.655.545.265.702.285 2.164.28 1.488-.003 1.612-.021 2.183-.31zm-4.396-.687c-.785-.348-1.072-.557-1.884-1.376-.888-.895-2.314-2.71-2.314-2.945 0-.255 1.218-2.513 1.696-3.143.937-1.237 2.338-1.769 3.997-1.52.84.127 2.502.793 3.14 1.258.263.191.676.48.918.641.544.363 2.255 2.144 2.475 2.575.15.295.14.36-.158.944-.82 1.612-2.205 2.966-3.664 3.583-1.552.656-2.697.652-4.206-.017zm6.25-5.601c-.02-.14-.085-.255-.146-.255-.06 0-.126.115-.145.255-.025.175.02.255.145.255.124 0 .17-.08.145-.255zm-16.343 4.847c0-.429.02-.455.358-.489.294-.03.358-.084.358-.305 0-.237-.058-.274-.468-.305-.455-.034-.468-.046-.468-.432 0-.376.02-.398.413-.432.582-.05.57-.361-.014-.361-.483 0-.709-.203-.656-.59.03-.211.114-.267.45-.296.227-.02.413-.053.413-.076 0-.23-.186-.399-.44-.399-.369 0-.582-.235-.533-.589.028-.202.117-.27.394-.297.22-.022.358-.098.358-.196 0-.148-.16-.217-.704-.302a.549.549 0 0 1-.33-.232c-.188-.307.048-.589.529-.63.522-.046.469-.292-.073-.34-.505-.044-.657-.237-.613-.78l.034-.432.737.03c.849.035 1.934.442 2.793 1.048.547.387 1.586 1.432 2.112 2.125.154.202.348.368.432.368.602 0-.746 2.517-1.815 3.388-.812.662-1.834 1.03-2.771.995l-.496-.017v-.454zM20.04 8.743c1.153-.54 1.846-1.062 2.506-1.888.539-.675 1.02-1.654 1.02-2.077 0-.821-1.976-2.824-3.601-3.65-1.099-.558-1.379-.632-2.57-.673-.985-.035-1.233-.006-1.671.194-.669.304-1.695 1.457-2.138 2.4-1.283 2.738-1.561 3.247-2.041 3.745-.28.29-.702.627-.938.747-.548.28-1.629.52-1.915.426-.47-.153-.366-.964.123-.964.113 0 .206-.05.206-.113s-.091-.114-.203-.114c-.112 0-.292-.1-.4-.224-.158-.18-.171-.258-.065-.39a.655.655 0 0 1 .35-.2c.34-.056.254-.257-.134-.32-.437-.07-.642-.359-.437-.614a.521.521 0 0 1 .352-.18c.114 0 .207-.05.207-.113 0-.062-.098-.113-.218-.113-.314 0-.623-.514-.443-.738.075-.093.255-.169.399-.169.144 0 .262-.051.262-.113 0-.063-.145-.114-.323-.114-.297 0-.669-.243-.669-.439 0-.168.272-.354.518-.354.385 0 .303-.208-.098-.248-.297-.03-.367-.096-.448-.421-.073-.293-.057-.426.069-.556.143-.148.258-.15.861-.022 1.267.27 2.027.725 3.092 1.852.706.747.965.96.965.793 0-.312-1.11-1.545-1.86-2.068-.954-.664-1.547-.887-2.593-.977L7.258.967l.002.552c0 .304.074.833.164 1.176.09.342.164.853.165 1.133.001.281.076.791.165 1.134.09.343.163.828.164 1.077 0 .25.087.88.192 1.403l.19.949.906-.076c1.254-.105 2.085-.552 2.87-1.546.318-.402.578-.782.58-.845 0-.064.123-.3.271-.524.149-.225.305-.556.347-.735.147-.62 1.065-2.256 1.573-2.802C15.68.968 16.04.823 17.395.836c1.084.01 1.211.036 2.002.413a9.507 9.507 0 0 1 2.958 2.15c1.084 1.153 1.107 1.217.712 1.998-.446.881-1.799 2.254-2.697 2.736-.684.367-.77.385-1.928.392-1.305.007-1.41-.029-2.736-.937-.424-.29-2.057-2.198-2.057-2.403 0-.06-.074-.11-.165-.11-.274 0-.192.22.378 1.007.871 1.205 2.012 2.204 2.983 2.614.582.245 2.704.277 3.195.047zm1.703-5.026a.197.197 0 0 0-.033-.249c-.163-.147-.293.043-.16.236.076.113.123.116.193.013z"/>
    </g>
</svg>
