<svg xmlns="http://www.w3.org/2000/svg" width="160" height="160" viewBox="0 0 160 160">
    <path fill="#020202" fill-rule="evenodd" d="M118.778 31.6c-1.437-1.203-3.54-2.677-4.671-3.276-2.679-1.417-3.313-2.649-2.338-4.535.628-1.214 1.04-1.357 5.96-2.065 2.209-.317 2.59-.447 2.782-.949.103-.27-.037-1.856-.313-3.525-.714-4.318-1.006-7.543-1.034-11.423-.024-3.189.019-3.425.743-4.15.944-.943 2.604-1.023 3.65-.176.684.553.755.944 1.128 6.183.47 6.623.908 11.3 1.138 12.168.092.345.25 1.023.353 1.508.21.993 1.67 1.78 3.301 1.78 1.317 0 2.615.725 3.065 1.713.805 1.768.272 2.812-2.289 4.49-1.032.676-2.37 1.753-2.973 2.393-1.477 1.569-2.495 2.05-4.337 2.05-1.46 0-1.702-.127-4.165-2.186zm-85.316 2.41c-.366-.21-1.212-.844-1.878-1.41-3.842-3.263-4.548-3.824-4.81-3.824-.437 0-1.882-2.618-1.882-3.409 0-2.025 1.709-3.324 3.934-2.99 2.054.307 3.465-.286 3.914-1.647.473-1.43.206-3.68-.677-5.734-.653-1.518-.68-1.894-.489-6.764.225-5.705.485-6.616 2.179-7.649 1.199-.73 1.837-.764 3.01-.158 1.262.653 1.78 2.07 1.318 3.61-.2.668-.451 2.753-.56 4.634-.156 2.737-.092 3.72.32 4.93.342 1.004.517 2.572.52 4.665.003 1.735.131 3.354.286 3.598.154.244 1.033.541 1.952.66 1.34.174 1.927.093 2.963-.41 1.454-.703 2.584-.576 3.561.402 1.704 1.703.99 3.62-2.253 6.043-1.258.94-2.92 2.372-3.696 3.181-.775.81-1.761 1.653-2.192 1.873-1.17.601-4.716.857-5.52.399zM76.68 35.9c-.883-.665-3.517-3.096-7.213-6.66-.897-.866-1.728-1.96-1.847-2.434-.456-1.818 1.106-3.527 3.02-3.303 1.49.174 5.871-.421 6.024-.82.083-.216.162-4.433.174-9.369.024-9.614.11-10.201 1.664-11.29.384-.269 1.312-.489 2.061-.489 2.458 0 3.977 2.43 2.803 4.483-.228.397-.486 2.585-.619 5.224l-.416 8.328c-.168 3.356-.127 3.851.362 4.34.441.44.838.508 1.982.336 3.852-.578 3.7-.587 4.545.258 1.02 1.02 1.045 2.457.067 3.942-.403.612-.96 1.487-1.24 1.943-.279.457-1.394 1.36-2.477 2.005-1.083.645-2.25 1.438-2.596 1.761-1.314 1.235-3.482 2.438-4.4 2.443-.527.003-1.379-.311-1.894-.699zm5.159 62.25c.477-.246 1.054-.672 1.28-.945.428-.515 7.254-4.472 9.521-5.519.712-.328 1.928-1.088 2.702-1.688.775-.6 1.832-1.326 2.349-1.612 1.237-.685 3.622-2.468 5.432-4.06.801-.705 2.795-2.025 4.43-2.933 1.637-.908 3.434-1.996 3.995-2.416.56-.42 2.647-1.592 4.636-2.605 3.646-1.856 4.427-2.423 8.455-6.136 1.217-1.122 2.578-2.28 3.025-2.572.448-.293 1.848-1.392 3.111-2.443 1.264-1.052 2.86-2.219 3.55-2.594 2.581-1.404 4.522-2.75 6.536-4.535 2.116-1.876 2.458-2.487 1.579-2.825-.77-.295-13.14-.18-15.943.149-1.378.161-4.336.42-6.575.574-2.24.155-4.425.419-4.857.587-.456.178-5.209.308-11.333.31-6.67.001-11.1.131-12.051.353-.828.193-4.534.486-8.237.65-3.702.166-7.647.447-8.767.626-6.151.983-16.67 1.925-22.857 2.048-3.014.06-6.818.283-8.454.496-1.725.224-7.924.433-14.762.497-9.385.088-11.859.196-12.137.531-.26.314-.244.508.063.763.414.343 4.788 1.953 7.423 2.73 2.127.628 7.175 2.505 8.767 3.26 1.382.655 2.159 1.078 6.888 3.755 1.292.73 3.547 1.795 5.01 2.365 6.484 2.525 9.571 4.216 12.838 7.035 1.12.966 3.272 2.58 4.784 3.588 1.511 1.007 2.823 1.954 2.916 2.103.092.15 1.11.901 2.26 1.671l4.913 3.28c3.891 2.595 5.05 3.43 6.644 4.788 1.552 1.322 1.659 1.349 2.865.725zM45.4 153.847c.861-.1 7.413-.307 14.56-.461 7.147-.155 14.685-.428 16.751-.607 2.067-.18 5.378-.474 7.358-.655 1.981-.18 4.799-.39 6.263-.466 1.463-.076 2.943-.219 3.287-.317.345-.098 2.458-.388 4.697-.644s5.902-.683 8.14-.95c6.193-.736 6.658-.77 14.717-1.081 21.184-.819 20.695-.784 25.519-1.827.775-.168 2.254-.313 3.287-.323 2.503-.025 2.825-.255 2.486-1.778-.387-1.74-.295-9.09.164-13.104.608-5.309-.345-26.838-1.308-29.55-.603-1.7-.418-20.323.226-22.797.257-.988.467-2.34.467-3.003 0-.664.167-1.515.37-1.892.516-.957.865-6.158.522-7.785-.157-.744-.423-2.55-.592-4.013-.403-3.5-.501-3.758-1.435-3.758-.704 0-3.456 1.705-5.91 3.662-2.259 1.802-4.158 3.057-6.382 4.218-1.311.685-3.15 1.9-4.086 2.7-.936.799-2.345 1.962-3.13 2.585-.787.623-2.488 2.177-3.78 3.455-2.506 2.48-3.119 2.893-11.584 7.815-6.59 3.83-6.947 4.06-9.7 6.25-4.547 3.614-6.39 4.86-11.122 7.511-1.894 1.062-3.656 2.064-3.914 2.227-.258.163-1.034.566-1.723.896-.69.33-1.664 1.027-2.165 1.55-.502.524-1.417 1.116-2.035 1.317-.617.2-1.585.768-2.15 1.26-.754.655-1.356.894-2.251.894-1.586 0-4.981-1.73-6.54-3.33a23.537 23.537 0 0 0-5.21-4.032 27.372 27.372 0 0 1-2.975-2.032 32.765 32.765 0 0 0-2.918-2.055c-.83-.505-2.38-1.599-3.444-2.43-1.065-.831-2.555-1.888-3.312-2.348-.757-.46-2.166-1.544-3.13-2.408-2.534-2.268-4.262-3.355-6.922-4.353-3.697-1.388-11.051-4.898-14.46-6.902-.978-.575-2.81-1.398-4.07-1.83-6.132-2.095-9.61-3.375-14.66-5.395-4.81-1.924-4.602-1.876-4.842-1.118-.403 1.27-.333 11.71.089 13.184.817 2.86-.084 18.812-1.354 23.973-.258 1.045-.468 2.769-.468 3.831 0 1.063-.163 2.543-.363 3.288-.3 1.123-.273 1.616.157 2.878.285.838.521 2.45.524 3.581.004 1.132.215 3.044.47 4.25.54 2.548.639 10.83.14 11.76-.177.333-.47 1.416-.65 2.407-.18.99-.76 3.062-1.29 4.603-.927 2.699-.951 2.9-.652 5.507.267 2.33.474 2.952 1.492 4.486.651.98 1.484 1.945 1.852 2.146.735.4 4.51.812 10.531 1.15 4.356.243 24.012.14 26.458-.14zm-28.65 5.47c-6.814-.384-11.268-.894-12.255-1.404-.658-.34-1.188-1.035-1.73-2.27a29.989 29.989 0 0 0-1.773-3.34L0 150.743l.077-4.768c.067-4.2.174-5.059.9-7.206 1.035-3.066 1.382-5.233 1.58-9.874.117-2.749.031-4.179-.34-5.656-.272-1.088-.495-2.97-.495-4.181 0-1.212-.14-2.612-.31-3.111-.203-.6-.2-2.077.01-4.352.175-1.894.445-4.853.6-6.575.155-1.722.436-4.047.625-5.167.683-4.04.943-16.067.412-19.03-.452-2.52-.867-15.888-.577-18.592.195-1.82.4-2.301 1.75-4.093.84-1.117 1.924-2.188 2.406-2.38.645-.258 1.95-.257 4.947.002 7.085.612 37.45.344 41.8-.368 1.12-.183 3.797-.468 5.95-.633 2.152-.164 4.477-.441 5.166-.616.689-.174 3.225-.391 5.636-.483 7.224-.275 18.627-1.03 21.135-1.4 1.291-.19 6.673-.4 11.96-.466 6.19-.077 9.84-.242 10.256-.465.355-.19 2.677-.465 5.158-.612 2.481-.146 4.688-.375 4.903-.508 1.014-.627 31.475-1.006 32.615-.406.302.158.781.643 1.066 1.077.461.705.474 1.067.117 3.362-.407 2.616-.27 4.08.97 10.386.393 1.996.069 10.32-.554 14.247-.54 3.408-1.086 15.131-.844 18.16.089 1.12.295 2.476.458 3.013 1.053 3.468 1.91 29.395 1.16 35.03-.536 4.018-.355 6.754.724 10.96.851 3.317.723 4.541-.566 5.385-.683.448-1.66.548-5.709.584-2.846.026-5.252.194-5.765.403-.584.238-3.572.36-8.826.36-4.369 0-8.287.13-8.707.29-.42.16-4.339.323-8.709.363-4.37.04-8.368.203-8.885.362-.517.158-2.7.483-4.853.723-11.349 1.263-17.51 2.13-18.35 2.579-.352.188-3.061.313-6.557.303-3.355-.01-6.43.128-7.042.315-.648.198-6.655.409-14.915.524-7.607.105-14.23.32-14.716.475-2.334.747-19.914 1.12-28.91.614z"/>
</svg>
