<svg xmlns="http://www.w3.org/2000/svg" width="143" height="177" viewBox="0 0 143 177">
    <g fill="#000" fill-rule="nonzero">
        <path d="M86.489 66.17h25.952L143 38.51l-30.644-24.656H86.489V0H59.266v13.854h-44.08V66.17h44.08v11.41H30.559L0 105.242l30.644 24.656h28.622v25.265h-5.673v5.213h5.673v11.411H31.553V177h82.648v-5.214H86.49v-11.41h5.672v-5.214H86.49v-25.265h41.324V77.581H86.489V66.17zM64.449 5.214h16.856v8.64H64.45v-8.64zM20.372 60.956V19.067h90.166l24.455 19.677-24.54 22.212H20.371zm60.935 5.214v11.411H64.45V66.17h16.856zM64.45 171.787v-11.41h16.855v11.41H64.45zm16.855-16.624H64.45v-25.265h16.855v25.265zm41.325-72.368v41.89H32.463L8.008 105.007l24.54-22.213h90.082z"/>
        <path d="M71 136h6v6h-6zM71 144h6v6h-6zM97 25H26v16h71V25zm-5.162 10.882H31.161v-5.763h60.677v5.763zM26 47h6v6h-6zM37 47h6v6h-6zM60 47h38v6H60zM46 118h71v-16H46v16zm5.162-10.881h60.677v5.763H51.162v-5.763zM112 92h6v6h-6zM101 92h6v6h-6zM46 92h38v6H46z"/>
    </g>
</svg>
