<!DOCTYPE svg PUBLIC "-//W3C//DTD SVG 20010904//EN" "http://www.w3.org/TR/2001/REC-SVG-20010904/DTD/svg10.dtd">
<svg version="1.0" xmlns="http://www.w3.org/2000/svg" width="750px" height="750px" viewBox="0 0 7500 7500" preserveAspectRatio="xMidYMid meet">
<g id="layer101" fill="#183668" stroke="none">
 <path d="M2860 1080 c-167 -432 -279 -735 -274 -740 5 -5 79 -29 164 -53 263 -76 539 -124 778 -134 l132 -6 0 787 0 786 -42 0 c-84 0 -384 56 -459 85 -13 5 -67 -126 -299 -725z"/>
 </g>
<g id="layer102" fill="#8f1838" stroke="none">
 <path d="M4541 7168 c-33 -161 -281 -1491 -279 -1492 2 -1 55 -19 119 -40 64 -20 172 -64 239 -97 99 -48 126 -57 135 -47 7 7 193 307 415 667 367 595 401 655 386 667 -32 23 -309 161 -406 202 -128 54 -308 116 -459 158 -69 19 -128 34 -132 34 -4 0 -12 -24 -18 -52z"/>
 </g>
<g id="layer103" fill="#48773e" stroke="none">
 <path d="M276 4591 c-12 -18 -66 -314 -82 -446 -18 -141 -27 -635 -12 -650 5 -6 1443 117 1524 130 l31 5 7 158 c3 86 15 206 25 267 11 60 19 110 18 111 -1 1 -335 97 -742 213 -407 117 -745 214 -752 216 -7 2 -15 0 -17 -4z"/>
 </g>
<g id="layer104" fill="#279b48" stroke="none">
 <path d="M5462 2670 c-59 -96 -147 -213 -216 -287 l-57 -62 533 -581 533 -582 83 87 c114 120 235 265 333 402 85 119 239 369 239 388 -1 7 -1346 683 -1398 702 -4 2 -26 -29 -50 -67z"/>
 </g>
<g id="layer105" fill="#0169a4" stroke="none">
 <path d="M936 3341 c-490 -45 -731 -70 -733 -78 -7 -19 44 -291 81 -433 67 -258 205 -621 235 -619 9 0 327 156 707 347 l692 347 -40 99 c-38 96 -108 346 -108 386 0 27 12 28 -834 -49z"/>
 <path d="M1977 1579 c-285 -313 -520 -575 -523 -583 -12 -31 339 -281 581 -414 122 -67 334 -166 340 -160 4 4 556 1428 562 1448 3 10 -14 24 -54 44 -88 43 -230 128 -308 185 -38 28 -72 51 -75 50 -3 0 -238 -257 -523 -570z"/>
 </g>
<g id="layer106" fill="#df292e" stroke="none">
 <path d="M6465 4376 c-646 -187 -740 -216 -739 -232 1 -11 9 -71 18 -134 13 -89 21 -231 21 -360 0 -4 1562 -147 1565 -143 10 10 3 451 -9 568 -12 120 -50 351 -74 455 -8 34 -18 56 -27 57 -8 1 -348 -94 -755 -211z"/>
 <path d="M5722 3319 c-23 -110 -60 -237 -100 -335 l-20 -50 704 -352 c621 -310 705 -350 713 -334 43 81 150 379 196 547 26 97 79 357 90 443 6 41 4 52 -7 52 -8 0 -347 31 -754 70 -406 38 -753 70 -769 70 l-30 0 -23 -111z"/>
 <path d="M4310 1794 c-67 -21 -275 -62 -357 -70 l-73 -7 0 -783 0 -784 59 0 c222 0 666 81 921 168 63 22 84 33 82 45 -2 12 -249 657 -522 1365 -35 90 -35 90 -110 66z"/>
 </g>
<g id="layer107" fill="#5dbb46" stroke="none">
 <path d="M1306 2363 c-383 -191 -696 -350 -696 -354 0 -16 167 -280 238 -378 145 -200 410 -496 437 -489 6 2 247 261 534 576 l523 573 -59 66 c-84 94 -148 176 -211 271 -30 45 -58 82 -62 82 -4 0 -321 -156 -704 -347z"/>
 </g>
<g id="layer108" fill="#e11484" stroke="none">
 <path d="M2870 7201 c-170 -45 -276 -79 -425 -138 -128 -50 -409 -184 -455 -216 -18 -12 7 -55 386 -667 223 -360 409 -661 413 -669 7 -11 29 -4 107 34 94 45 347 135 379 135 9 0 18 6 20 13 3 6 -59 354 -138 772 -130 692 -145 760 -162 762 -11 1 -67 -11 -125 -26z"/>
 </g>
<g id="layer109" fill="#f36d25" stroke="none">
 <path d="M3530 7304 c-19 -2 -89 -9 -155 -15 -66 -6 -127 -14 -136 -18 -15 -6 3 -111 247 -1399 l27 -143 151 7 c92 4 195 2 265 -5 62 -7 115 -10 118 -7 9 9 292 1531 285 1537 -4 4 -70 15 -147 24 -131 16 -569 29 -655 19z"/>
 </g>
<g id="layer110" fill="#00aed9" stroke="none">
 <path d="M6068 5302 c-339 -257 -619 -470 -623 -473 -3 -3 12 -35 34 -70 53 -88 112 -209 146 -299 16 -41 32 -79 36 -84 6 -7 1472 407 1501 425 24 15 -132 402 -252 624 -73 135 -201 338 -215 341 -5 1 -288 -208 -627 -464z"/>
 </g>
<g id="layer111" fill="#e6a023" stroke="none">
 <path d="M1681 6650 c-218 -159 -404 -323 -553 -486 -129 -141 -162 -184 -152 -193 13 -12 1217 -926 1230 -934 7 -4 58 39 125 106 63 62 151 141 197 176 46 35 82 68 80 75 -6 26 -813 1325 -823 1325 -5 0 -52 -31 -104 -69z"/>
 <path d="M5349 6047 c-221 -358 -407 -660 -413 -669 -9 -14 -6 -21 14 -35 67 -47 234 -200 291 -267 35 -41 70 -73 77 -71 24 8 1242 930 1242 941 0 32 -290 340 -460 488 -90 79 -293 236 -331 256 -15 8 -72 -80 -420 -643z"/>
 <path d="M771 5713 c-100 -150 -148 -234 -242 -428 -79 -163 -189 -435 -189 -468 0 -9 239 -82 742 -226 408 -117 747 -215 753 -217 7 -3 23 25 40 68 34 90 123 271 168 341 18 28 36 57 40 64 5 7 -219 183 -610 480 -340 258 -623 472 -628 475 -6 4 -39 -37 -74 -89z"/>
 <path d="M4985 2138 c-72 -55 -228 -155 -312 -199 -46 -23 -83 -47 -83 -51 0 -16 551 -1443 561 -1453 13 -13 341 153 502 253 133 84 375 261 416 305 l24 26 -49 55 c-176 199 -1001 1095 -1009 1095 -5 0 -28 -13 -50 -31z"/>
 </g>

</svg>