<?xml version="1.0" encoding="UTF-8" standalone="no"?>
<!-- Created with Inkscape (http://www.inkscape.org/) -->

<svg
   xmlns:dc="http://purl.org/dc/elements/1.1/"
   xmlns:cc="http://creativecommons.org/ns#"
   xmlns:rdf="http://www.w3.org/1999/02/22-rdf-syntax-ns#"
   xmlns:svg="http://www.w3.org/2000/svg"
   xmlns="http://www.w3.org/2000/svg"
   xmlns:sodipodi="http://sodipodi.sourceforge.net/DTD/sodipodi-0.dtd"
   xmlns:inkscape="http://www.inkscape.org/namespaces/inkscape"
   width="937.50006"
   height="937.50006"
   viewBox="0 0 937.50004 937.50003"
   id="svg3791"
   version="1.1"
   inkscape:version="0.92.2 5c3e80d, 2017-08-06"
   sodipodi:docname="community.svg">
  <defs
     id="defs3793" />
  <sodipodi:namedview
     id="base"
     pagecolor="#ffffff"
     bordercolor="#666666"
     borderopacity="1.0"
     inkscape:pageopacity="0"
     inkscape:pageshadow="2"
     inkscape:zoom="0.35"
     inkscape:cx="172.50002"
     inkscape:cy="246.07137"
     inkscape:document-units="px"
     inkscape:current-layer="layer1"
     showgrid="false"
     showborder="false"
     fit-margin-top="0"
     fit-margin-left="0"
     fit-margin-right="0"
     fit-margin-bottom="0"
     units="px"
     inkscape:window-width="1440"
     inkscape:window-height="852"
     inkscape:window-x="0"
     inkscape:window-y="0"
     inkscape:window-maximized="1" />
  <metadata
     id="metadata3796">
    <rdf:RDF>
      <cc:Work
         rdf:about="">
        <dc:format>image/svg+xml</dc:format>
        <dc:type
           rdf:resource="http://purl.org/dc/dcmitype/StillImage" />
        <dc:title />
      </cc:Work>
    </rdf:RDF>
  </metadata>
  <g
     inkscape:label="Layer 1"
     inkscape:groupmode="layer"
     id="layer1"
     transform="translate(-302.67856,-492.18364)">
    <path
       inkscape:connector-curvature="0"
       id="path3887"
       d="m 532.26541,1234.9047 c -1.85949,-1.9408 -4.6366,-5.7377 -6.17136,-8.4375 l -2.79049,-4.9086 -0.0776,-83.392 c -0.0711,-76.4324 -0.25367,-83.5865 -2.1875,-85.7234 -1.88888,-2.0872 -2.10988,-6.5927 -2.10988,-43.0143 v -40.68291 l -9.6875,-7.49872 c -11.22498,-8.68881 -29.62384,-26.7317 -37.04915,-36.33234 -13.9924,-18.09164 -16.97665,-22.21395 -16.99425,-23.47507 -0.0105,-0.75283 -1.1441,-2.38688 -2.5191,-3.63124 -1.375,-1.24436 -2.5,-2.93186 -2.5,-3.75 0,-0.81814 -1.125,-2.50564 -2.5,-3.75 -1.375,-1.24436 -2.5,-3.07288 -2.5,-4.06337 0,-1.96323 -3.10331,-7.9536 -6.5625,-12.66771 -1.20313,-1.63958 -2.1875,-3.80086 -2.1875,-4.80283 0,-1.00198 -1.125,-3.25198 -2.5,-5 -1.375,-1.74803 -2.5,-4.18179 -2.5,-5.40836 0,-1.22658 -0.81918,-3.82259 -1.82038,-5.76893 -1.00121,-1.94634 -3.03115,-8.84755 -4.51099,-15.33601 -1.47983,-6.48846 -3.1739,-12.67596 -3.76458,-13.75 -0.59069,-1.07404 -2.21393,-6.19651 -3.60721,-11.38329 l -2.53324,-9.4305 3.21973,-9.85804 c 3.41399,-10.45279 10.43981,-20.65596 14.22351,-20.65596 1.18563,0 3.1738,-1.125 4.41816,-2.5 1.91596,-2.11711 3.84996,-2.5 12.62759,-2.5 8.70861,0 11.3246,0.50955 16.36877,3.18839 6.34389,3.36909 14.1097,10.15453 14.15644,12.36932 0.0152,0.72451 1.12777,2.72354 2.4722,4.44229 1.34442,1.71875 2.45691,4.0222 2.4722,5.11876 0.0153,1.09658 1.1528,3.01188 2.5278,4.25624 1.375,1.24436 2.5,3.07288 2.5,4.06337 0,1.97458 3.32325,8.4216 6.1252,11.88274 1.8673,2.3066 3.00271,4.1462 6.83749,11.07815 4.72851,8.54754 19.61852,27.00454 29.74735,36.8735 12.49838,12.17774 31.47446,25.47724 36.35158,25.47724 0.9905,0 2.81902,1.125 4.06338,2.5 1.36175,1.50471 3.84996,2.5 6.25,2.5 2.40004,0 4.88825,0.99529 6.25,2.5 1.78127,1.96829 3.88285,2.50845 9.88124,2.53975 4.70814,0.0246 8.54573,0.74089 10.04517,1.875 3.07634,2.32683 8.11564,2.29121 11.25,-0.0795 1.37529,-1.04021 5.1658,-1.84729 8.75,-1.86305 4.34453,-0.0191 7.3016,-0.7928 9.44859,-2.4722 1.71875,-1.34442 4.86595,-2.45691 6.99376,-2.4722 2.25313,-0.0161 4.8136,-1.07182 6.13124,-2.5278 1.24436,-1.375 3.02107,-2.5 3.94826,-2.5 5.07616,0 22.87874,-12.48754 36.50594,-25.60694 10.00956,-9.63656 22.6708,-24.30856 22.6708,-26.2712 0,-0.33012 1.96875,-3.17943 4.375,-6.33178 2.40625,-3.15237 4.375,-6.44505 4.375,-7.31709 0,-0.87204 1.125,-2.60363 2.5,-3.84799 1.375,-1.24436 2.5,-2.93186 2.5,-3.75 0,-0.81814 1.125,-2.50564 2.5,-3.75 2.10016,-1.90062 2.5,-3.84996 2.5,-12.18827 0,-8.17028 0.48314,-10.62318 2.73171,-13.86877 3.54505,-5.11693 9.88446,-10.69503 12.26829,-10.79496 1.03125,-0.0433 3.28125,-1.17857 5,-2.523 2.68626,-2.10123 5.15986,-2.44831 17.61876,-2.4722 12.92665,-0.0247 14.7384,0.24251 16.75624,2.4722 1.24436,1.375 3.46737,2.5 4.94005,2.5 2.88066,0 11.93495,8.42507 11.93495,11.10554 0,0.89382 1.125,3.05535 2.5,4.80337 1.95617,2.48688 2.5,5.07098 2.5,11.8793 0,8.51475 1.47548,13.03928 6.1252,18.7829 0.97781,1.20785 2.39029,3.27064 3.13882,4.58395 8.90346,15.62125 34.39789,43.62786 47.48303,52.16193 12.6773,8.26808 16.3145,10.32286 18.37171,10.3788 1.09658,0.0298 3.01188,1.17921 4.25624,2.55421 1.36175,1.50471 3.84996,2.5 6.25,2.5 2.40004,0 4.88825,0.99529 6.25,2.5 1.78128,1.96829 3.88285,2.50845 9.88124,2.53975 4.70814,0.0246 8.54573,0.74089 10.04517,1.875 1.33453,1.00939 3.89889,1.83525 5.69859,1.83525 1.7997,0 4.36406,-0.82586 5.69859,-1.83525 1.44235,-1.09094 5.26281,-1.85136 9.42017,-1.875 5.3727,-0.0305 7.51819,-0.61922 9.25624,-2.53975 1.36175,-1.50471 3.84996,-2.5 6.25,-2.5 2.40004,0 4.88825,-0.99529 6.25,-2.5 1.24436,-1.375 3.31146,-2.5 4.59357,-2.5 1.28212,0 4.65037,-1.54687 7.48501,-3.4375 2.83463,-1.89062 6.0695,-4 7.18858,-4.6875 13.34026,-8.19547 32.75956,-26.95836 42.04636,-40.625 1.6351,-2.40625 5.5234,-8.03125 8.6406,-12.5 3.1173,-4.46875 5.6684,-8.74095 5.6693,-9.49376 9e-4,-0.75283 1.1266,-2.38688 2.5016,-3.63124 1.375,-1.24436 2.5,-3.21311 2.5,-4.375 0,-1.16189 1.125,-3.13064 2.5,-4.375 1.375,-1.24436 2.5178,-3.15966 2.5397,-4.25624 0.022,-1.09656 0.8656,-3.08565 1.875,-4.42017 1.0094,-1.33453 1.8353,-3.60214 1.8353,-5.03913 0,-2.58173 13.2223,-16.88141 15.6612,-16.93726 0.6676,-0.0152 2.62,-1.12777 4.3388,-2.4722 4.7599,-3.72331 20.4587,-3.51502 27.7623,0.36834 9.9276,5.27856 13.076,8.4452 17.8272,17.93019 5.2623,10.50528 5.2621,10.4669 0.1712,29.54867 -1.7934,6.72221 -3.2786,13.47221 -3.3005,15 -0.022,1.52779 -0.8656,3.86969 -1.875,5.20421 -1.0094,1.33453 -1.8352,3.93054 -1.8352,5.76893 0,1.83839 -1.125,4.77272 -2.5,6.52075 -1.375,1.74802 -2.5,4.54921 -2.5,6.22483 0,1.67564 -1.125,4.06472 -2.5,5.30908 -1.375,1.24436 -2.5179,3.44091 -2.5398,4.88124 -0.022,1.44031 -0.8656,3.71065 -1.875,5.04517 -1.0094,1.33453 -1.8352,3.35673 -1.8352,4.49376 0,1.13706 -1.125,3.08547 -2.5,4.32983 -1.375,1.24436 -2.5,2.95016 -2.5,3.79067 0,0.84053 -0.8351,2.22129 -1.8558,3.06838 -1.0207,0.84709 -3.1151,4.15034 -4.6543,7.34056 -1.5391,3.19021 -4.8508,8.33164 -7.3593,11.42539 -2.5085,3.09375 -5.6994,7.50593 -7.091,9.80484 -3.0219,4.99221 -18.4605,22.19796 -27.0485,30.1445 -3.3735,3.12161 -8.5303,7.92566 -11.4595,10.67566 -2.9291,2.75 -7.3408,6.60227 -9.8037,8.56061 -5.2366,4.16383 -5.958,9.47614 -1.9779,14.56439 1.5024,1.92079 2.4551,5.0975 2.4722,8.24376 0.019,3.5057 0.8156,5.83174 2.5278,7.38124 1.7356,1.57075 2.5,3.84996 2.5,7.45478 0,2.8558 0.8258,6.2843 1.8352,7.6188 1.0094,1.3345 1.8531,4.7299 1.875,7.5452 0.027,3.4946 0.833,5.8366 2.5398,7.3812 1.823,1.6498 2.5,3.85 2.5,8.125 0,4.2751 0.6769,6.4752 2.5,8.125 1.7356,1.5708 2.5,3.85 2.5,7.4548 0,2.8558 0.8258,6.2843 1.8352,7.6188 1.0094,1.3345 1.8656,4.3952 1.9028,6.8014 0.037,2.4063 1.1675,5.7813 2.512,7.5 1.3444,1.7188 2.4569,4.7238 2.4722,6.6779 0.015,1.954 1.1528,4.983 2.5278,6.731 1.593,2.0253 2.5,5.071 2.5,8.3958 0,2.8696 0.8258,6.3094 1.8352,7.6439 2.4287,3.211 2.4287,15.3918 0,18.6028 -1.0094,1.3346 -1.8352,4.7743 -1.8352,7.644 0,3.3247 -0.907,6.3704 -2.5,8.3957 -1.375,1.748 -2.5,3.7473 -2.5,4.4428 0,2.2021 -18.8524,20.2161 -21.1571,20.2161 -1.213,0 -3.1953,1.0938 -4.4051,2.4306 -1.2098,1.3368 -3.9689,2.6024 -6.1312,2.8125 l -3.9316,0.3819 -0.3387,26.1973 c -0.3042,23.5321 -0.5757,26.457 -2.6688,28.75 -1.2816,1.404 -2.6975,3.7665 -3.1465,5.2499 -0.449,1.4835 -3.3136,4.9991 -6.3658,7.8125 l -5.54936,5.1153 h -26.62956 -26.62956 l -7.36987,-7.4476 c -6.06396,-6.1279 -7.49675,-8.3953 -8.08587,-12.7961 -0.97779,-7.3041 -4.61125,-8.188 -5.74174,-1.3967 -1.19317,7.1679 -4.40325,12.6981 -10.103,17.405 l -5.12874,4.2354 h -27.63736 -27.63735 l -5.0464,-5.2518 c -2.77552,-2.8885 -5.04641,-5.8951 -5.04641,-6.6813 0,-0.7862 -1.11445,-2.438 -2.47655,-3.6707 -2.30539,-2.0863 -2.49976,-4.1513 -2.8125,-29.8812 l -0.33595,-27.64 -7.04641,-0.3707 c -5.07059,-0.2667 -7.66604,-1.0553 -9.25623,-2.8125 -1.21541,-1.343 -3.04869,-2.4418 -4.07396,-2.4418 -2.30785,0 -12.83471,-9.6903 -19.9359,-18.3517 -4.22193,-5.1495 -5.3125,-7.4743 -5.3125,-11.3251 0,-2.6649 -0.82586,-5.9372 -1.83525,-7.2718 -2.48335,-3.2833 -2.48335,-17.8195 0,-21.1028 1.00939,-1.3345 1.83525,-4.763 1.83525,-7.6188 0,-3.6048 0.76434,-5.884 2.5,-7.4548 1.50471,-1.3617 2.5,-3.8499 2.5,-6.25 0,-2.4 0.99529,-4.8882 2.5,-6.25 1.49331,-1.3514 2.5,-3.8499 2.5,-6.2048 0,-2.1683 0.82586,-5.0342 1.83525,-6.3688 1.00937,-1.3345 1.85312,-4.4486 1.875,-6.9201 0.0254,-2.8681 0.9442,-5.3123 2.53975,-6.7563 1.45598,-1.3176 2.51161,-3.8781 2.5278,-6.1312 0.0153,-2.1278 1.12778,-5.275 2.4722,-6.9938 1.34443,-1.7187 2.47481,-4.8125 2.51196,-6.875 0.0371,-2.0625 0.89341,-4.8419 1.90279,-6.1764 1.00939,-1.3345 1.83525,-4.2118 1.83525,-6.3939 0,-2.1822 1.125,-5.3977 2.5,-7.1458 1.375,-1.748 2.5,-4.8304 2.5,-6.8498 0,-2.08412 1.08093,-4.64983 2.5,-5.93408 1.59555,-1.44395 2.51439,-3.88821 2.53975,-6.75624 0.0219,-2.47156 0.86562,-5.58565 1.875,-6.92017 1.00939,-1.33453 1.83525,-4.99819 1.83525,-8.14146 0,-5.47688 -0.29955,-5.94773 -7.1875,-11.29764 -15.3162,-11.8962 -35.65868,-33.21619 -48.17772,-50.49283 -3.29462,-4.54666 -6.60761,-8.26666 -7.36219,-8.26666 -1.51985,0 -1.17029,-0.39975 -11.63771,13.30861 -10.33871,13.53978 -31.44588,35.12307 -44.63071,45.63743 l -11.00417,8.77538 -0.0397,123.32676 c -0.0344,106.4587 -0.29078,123.6587 -1.875,125.7532 -1.00939,1.3346 -1.83525,3.4649 -1.83525,4.7342 0,1.2692 -2.58288,4.8179 -5.73972,7.886 l -5.73972,5.5784 h -28.39637 c -20.80886,0 -28.93489,-0.4175 -30.41178,-1.5625 -3.9469,-3.0599 -10.96241,-13.5062 -10.96241,-16.3233 0,-3.1713 -2.12381,-5.8642 -4.625,-5.8642 -0.98295,0 -1.625,1.527 -1.625,3.8648 0,3.7171 -1.42746,6.1328 -9.19199,15.5562 l -3.56698,4.329 H 565.908 535.64636 l -3.38088,-3.5289 z m 49.26457,-9.3157 c 2.32162,-1.5645 5.92043,-5.3614 7.99735,-8.4375 l 3.77623,-5.5929 0.625,-45.4249 0.625,-45.425 2.95098,-2.3875 c 2.35027,-1.9016 4.97,-2.3876 12.86932,-2.3876 8.86391,0 10.24451,0.3262 12.98651,3.0682 l 3.06819,3.0682 -0.004,39.7443 c -0.004,38.3042 0.0954,39.9481 2.72464,45.3693 1.50046,3.0938 3.6114,7.536 4.69097,9.8717 1.10638,2.3937 4.38775,5.8026 7.52009,7.8125 4.69239,3.0109 6.85709,3.5658 13.90985,3.5658 13.56313,0 22.53524,-5.5057 26.54911,-16.2918 1.92484,-5.1716 2.10909,-16.1788 2.10909,-125.9776 0,-100.67399 0.28753,-120.99903 1.76162,-124.52704 1.54127,-3.68875 6.5631,-8.36354 17.14459,-15.95976 5.3471,-3.83858 28.3449,-27.67438 35.33135,-36.61878 3.75904,-4.8125 9.82775,-13.36297 13.48603,-19.00107 6.85667,-10.56742 9.73788,-12.87393 16.08162,-12.87393 4.16923,0 13.03085,7.15795 14.43489,11.65974 0.46577,1.49339 1.20051,2.99651 1.63275,3.34026 0.43225,0.34375 3.02136,4 5.7536,8.125 2.73222,4.125 6.66213,9.45309 8.73311,11.84021 7.88853,9.09266 35.72539,35.8359 40.32997,38.74552 5.93417,3.74978 12.81047,14.24421 12.81047,19.55101 0,2.14561 -1.125,5.33132 -2.5,7.07935 -1.375,1.74802 -2.5,4.81012 -2.5,6.80466 0,1.99454 -0.82586,4.71831 -1.83525,6.05284 -1.00938,1.33452 -1.85313,4.17867 -1.875,6.32033 -0.0219,2.14167 -1.16475,5.32416 -2.53975,7.07216 -1.375,1.748 -2.5,4.8418 -2.5,6.875 0,2.0332 -1.125,5.127 -2.5,6.875 -1.375,1.748 -2.5,4.8101 -2.5,6.8047 0,1.9945 -0.82586,4.7183 -1.83525,6.0528 -1.00938,1.3345 -1.85313,3.5731 -1.875,4.9746 -0.0219,1.4015 -1.16475,4.7548 -2.53975,7.4518 -1.375,2.697 -2.5021,6.0503 -2.50468,7.4518 -0.002,1.4015 -1.12756,4.3899 -2.5,6.6409 -1.37242,2.251 -2.49532,5.3779 -2.49532,6.9486 0,1.5708 -0.82586,3.9478 -1.83525,5.2823 -1.00938,1.3345 -1.85524,4.1139 -1.87966,6.1764 -0.0245,2.0625 -1.16733,5.5917 -2.53977,7.8427 -1.37242,2.251 -2.49532,5.4095 -2.49532,7.019 0,1.6094 -1.05019,4.2677 -2.33375,5.9072 -2.20224,2.8131 -4.0399,9.9259 -3.99971,15.4811 0.0317,4.3839 1.60887,13.7274 2.42647,14.375 0.43396,0.3438 2.41081,3.0156 4.393,5.9375 1.9822,2.9219 3.9832,5.3125 4.44669,5.3125 0.46349,0 2.49636,1.6068 4.5175,3.5707 5.67066,5.5099 10.94476,7.6793 18.66954,7.6793 5.75895,0 7.53566,0.5418 10.06207,3.0682 l 3.06819,3.0682 v 27.538 27.5381 l 3.81882,6.2064 c 2.10037,3.4135 4.91287,6.5536 6.25,6.978 1.33715,0.4244 2.43118,1.2059 2.43118,1.7367 0,2.1451 6.87437,3.8664 15.44096,3.8664 7.5868,0 9.73229,-0.4861 13.09531,-2.9673 7.41812,-5.4729 10.43389,-10.2443 14.42687,-22.8254 2.40946,-7.5918 2.80532,-31.6298 0.62393,-37.8873 -1.95753,-5.6155 0.29204,-12.908 4.58524,-14.8641 1.75743,-0.8007 7.41318,-1.4559 12.56833,-1.4559 8.16012,0 9.75147,0.3785 12.2978,2.9248 2.89793,2.898 2.9188,3.1252 2.27017,24.7275 -0.55929,18.6267 -0.35631,22.3796 1.39338,25.7631 1.1264,2.1783 2.04801,5.4277 2.04801,7.221 0,4.2885 8.55192,13.4076 15.74425,16.7884 7.19879,3.3838 12.65904,3.2498 21.18302,-0.5199 7.0856,-3.1336 11.08984,-6.7296 12.56046,-11.2799 0.44438,-1.375 1.55312,-3.3526 2.46387,-4.3947 1.23875,-1.4174 1.75257,-8.7671 2.03965,-29.1751 0.37906,-26.947 0.41982,-27.3096 3.33474,-29.6678 1.6231,-1.3131 4.8575,-2.3874 7.1875,-2.3874 2.3301,0 4.2366,-0.4942 4.2366,-1.0983 0,-0.6041 1.8281,-1.849 4.0625,-2.7663 2.2343,-0.9174 4.625,-2.1168 5.3125,-2.6653 0.6875,-0.5485 2.7391,-2.1116 4.5591,-3.4735 1.8201,-1.3619 5.4208,-5.6575 8.0017,-9.5458 4.6184,-6.9577 4.6919,-7.2595 4.6507,-19.0727 -0.034,-9.7798 -0.5323,-12.9203 -2.6892,-16.9549 -1.4561,-2.7235 -2.6473,-5.9247 -2.6473,-7.1137 0,-1.1891 -0.506,-2.4747 -1.1244,-2.8569 -0.6185,-0.3822 -1.7929,-3.6497 -2.6099,-7.2612 -0.817,-3.6115 -2.2798,-8.3389 -3.2506,-10.5053 -0.9708,-2.1664 -1.7651,-5.7784 -1.7651,-8.0266 0,-2.2482 -0.8678,-5.0465 -1.9285,-6.2185 -1.0606,-1.172 -2.2393,-4.3101 -2.6192,-6.9734 -0.38,-2.6634 -1.521,-6.6994 -2.5356,-8.9689 -1.0145,-2.2695 -2.1778,-6.1793 -2.585,-8.6884 -0.4071,-2.509 -1.4886,-5.9959 -2.4033,-7.7486 -0.9147,-1.7527 -1.6665,-5.1111 -1.6707,-7.4633 0,-2.3521 -0.8755,-5.2354 -1.9362,-6.4074 -1.0606,-1.172 -2.2393,-4.3101 -2.6192,-6.97344 -0.38,-2.6634 -1.6014,-6.81129 -2.7143,-9.21754 -2.5627,-5.54094 -3.48073,-22.59209 -1.5612,-28.99878 1.1306,-3.77353 2.9201,-5.82083 7.9535,-9.09923 8.3954,-5.46819 36.924,-34.28371 44.8156,-45.26648 8.8066,-12.256 23.5852,-35.251 24.6586,-38.36804 0.2637,-0.76586 2.1598,-5.03001 4.2135,-9.47588 2.0537,-4.44588 4.5264,-10.32917 5.4948,-13.07398 0.9684,-2.74481 2.1685,-5.29477 2.6668,-5.66659 0.4983,-0.37181 1.9601,-4.05102 3.2485,-8.17602 1.2884,-4.125 3.3954,-10.73661 4.6822,-14.69248 3.569,-10.97175 3.1369,-17.69113 -1.5154,-23.56515 -2.1203,-2.67705 -4.5109,-4.87083 -5.3125,-4.87507 -0.8016,-0.004 -3.1024,-0.86553 -5.113,-1.91398 -3.2326,-1.68573 -4.1034,-1.6937 -7.5276,-0.0689 -4.571,2.16914 -13.1918,10.48236 -13.1918,12.72119 0,1.33713 -3.7148,9.12607 -7.4017,15.51936 -0.5947,1.03125 -1.7074,3.28125 -2.4725,5 -2.7811,6.24675 -18.7777,29.48332 -24.6793,35.84883 -2.4354,2.6269 -6.9902,8.01055 -10.1217,11.96367 -3.1315,3.95313 -6.0794,7.1875 -6.5509,7.1875 -0.4715,0 -2.7792,1.85528 -5.1281,4.12284 -6.5107,6.28505 -16.14228,13.85835 -22.39589,17.60987 -3.09375,1.85593 -6.46875,3.89145 -7.5,4.52338 -3.16965,1.94228 -15.796,7.49391 -17.04381,7.49391 -0.64768,0 -3.3842,1.125 -6.08119,2.5 -2.69699,1.375 -7.24723,2.5 -10.11165,2.5 -2.86443,0 -7.22741,0.84375 -9.69555,1.875 -5.78023,2.41514 -22.22983,2.47604 -27.50389,0.10188 -2.1664,-0.97525 -7.16457,-2.00518 -11.10704,-2.28874 -3.99075,-0.28704 -8.14636,-1.37015 -9.375,-2.44351 -1.21378,-1.06037 -4.25972,-2.29532 -6.76877,-2.74434 -2.50904,-0.44903 -5.21979,-1.60912 -6.02387,-2.57798 -0.80408,-0.96887 -3.10416,-2.12226 -5.11127,-2.5631 -2.00711,-0.44084 -4.00566,-1.37813 -4.44122,-2.08288 -0.43557,-0.70476 -2.55139,-2.10145 -4.70184,-3.10378 -6.60284,-3.0776 -9.28969,-4.8364 -12.89301,-8.43972 -1.90571,-1.9057 -4.88287,-4.20128 -6.61591,-5.10128 -6.07191,-3.15326 -30.72739,-30.94551 -39.40098,-44.41374 -12.53401,-19.46265 -13.125,-20.80683 -13.125,-29.85258 0,-10.57895 -3.8576,-17.25352 -12.52876,-21.67773 -8.00563,-4.08464 -12.69814,-4.30887 -19.67095,-0.93997 -8.2918,4.00616 -11.20897,8.96278 -11.77224,20.00247 -0.39274,7.69753 -1.14259,10.45747 -4.19069,15.42469 -2.0418,3.32732 -4.83736,7.94527 -6.21236,10.26211 -7.55713,12.73351 -14.20841,20.676 -33.18376,39.6257 -11.53122,11.51563 -21.79144,20.9375 -22.80049,20.9375 -1.00905,0 -2.48766,0.78685 -3.2858,1.74855 -1.56934,1.89094 -23.7949,13.25145 -25.92497,13.25145 -0.71274,0 -3.03118,0.86568 -5.15208,1.92372 -2.12091,1.05805 -6.84796,2.2315 -10.50455,2.60768 -3.6566,0.37616 -8.76911,1.47924 -11.36115,2.45127 -6.28364,2.3564 -21.75799,2.28871 -26.36759,-0.11537 -1.96921,-1.02701 -5.9284,-1.8673 -8.7982,-1.8673 -2.86979,0 -7.2994,-1.06125 -9.84356,-2.35835 -2.54418,-1.29709 -6.54409,-2.71823 -8.8887,-3.15808 -2.34463,-0.43984 -4.902,-1.56975 -5.68309,-2.5109 -0.78107,-0.94113 -3.31232,-2.06613 -5.625,-2.5 -2.31266,-0.43384 -4.89275,-1.61769 -5.73351,-2.63075 -0.84076,-1.01306 -2.23466,-1.84192 -3.09755,-1.84192 -0.86289,0 -2.23001,-0.79661 -3.03806,-1.77024 -0.80804,-0.97363 -5.35823,-4.40327 -10.11152,-7.6214 -8.18467,-5.54129 -33.72542,-30.57287 -33.72542,-33.05309 0,-0.63788 -2.86181,-4.42689 -6.35959,-8.42003 -3.49777,-3.99313 -7.16907,-8.94774 -8.15845,-11.01024 -2.28264,-4.75854 -4.56634,-8.63925 -6.35798,-10.80419 -0.77188,-0.9327 -4.71154,-8.20897 -8.75479,-16.16951 -8.4672,-16.67056 -11.14235,-20.44659 -15.41667,-21.76094 -1.69263,-0.52049 -3.77532,-1.50444 -4.62817,-2.18657 -1.7985,-1.43847 -10.60964,2.31355 -14.83548,6.31735 -3.01241,2.85413 -4.77058,12.6954 -3.56568,19.95878 1.36135,8.20654 8.38252,28.63085 11.46825,33.36072 0.88471,1.35609 1.60856,3.74671 1.60856,5.3125 0,1.56577 0.49426,2.84686 1.09835,2.84686 0.60409,0 1.77601,1.82812 2.60426,4.0625 0.82827,2.23438 2.12005,5.1875 2.87065,6.5625 0.7506,1.375 2.85409,5.32092 4.67443,8.76872 10.62071,20.11612 29.79157,45.62402 45.82121,60.96767 2.64335,2.53023 9.8686,8.8751 16.0561,14.09968 6.1875,5.22459 11.93319,10.71755 12.7682,12.20659 1.09817,1.95831 1.53046,13.53724 1.5625,41.85205 0.0327,28.9567 0.45096,39.8553 1.6068,41.875 1.18895,2.0776 1.71192,22.6033 2.1875,85.8553 l 0.625,83.125 3.4069,5.7954 c 5.32156,9.0523 9.43684,11.0335 22.97075,11.0586 9.78814,0.018 11.96735,-0.3764 15.59877,-2.8236 z M 903.92856,881.50253 c -25.93747,-5.53017 -49.17007,-21.48142 -63.6961,-43.73306 -18.05228,-27.65333 -21.04046,-58.3161 -9.22379,-94.64835 1.2188,-3.74739 -2.49035,-2.52341 -12.22202,4.0331 -5.0782,3.42134 -10.07684,6.25172 -11.10809,6.28976 -1.03125,0.038 -2.96689,0.89502 -4.30141,1.90439 -1.33453,1.00939 -3.54024,1.83525 -4.90158,1.83525 -1.36134,0 -3.5194,0.94502 -4.7957,2.10006 -3.35925,3.04008 -48.73568,3.53604 -53.50131,0.58477 -1.71875,-1.06439 -5.63679,-3.27751 -8.70674,-4.91803 -3.06996,-1.64053 -6.85311,-4.19981 -8.407,-5.68729 -1.5539,-1.48748 -3.96399,-3.68888 -5.35576,-4.89201 -1.86156,-1.60924 -2.5305,-3.71795 -2.5305,-7.97698 0,-5.2164 0.54039,-6.29904 5.45926,-10.9375 5.18906,-4.89323 15.45165,-12.69007 25.69719,-19.52302 2.57715,-1.71875 7.44936,-5.25024 10.82714,-7.84775 12.72048,-9.78206 19.8786,-14.65225 21.53561,-14.65225 0.94131,0 3.14169,-1.125 4.88971,-2.5 2.85765,-2.24783 5.07098,-2.5 21.94278,-2.5 h 18.76455 l 6.37937,4.29375 c 7.39071,4.97445 14.89783,12.7181 19.86555,20.49149 3.89803,6.09951 2.48693,6.36152 14.14595,-2.62661 7.84909,-6.05101 23.8499,-13.86942 34.24289,-16.73197 6.07793,-1.67405 12.69155,-2.23787 26.25,-2.23787 13.55845,0 20.17207,0.56382 26.25,2.23787 10.3906,2.8619 26.39125,10.6796 34.24564,16.73197 10.06015,7.75204 9.41965,7.53427 12.03337,4.09137 6.01313,-7.92072 13.63603,-15.53872 19.47533,-19.46291 l 6.3794,-4.28709 h 18.7646 c 16.8718,0 19.0851,0.25217 21.9427,2.5 1.7481,1.375 3.9484,2.5 4.8898,2.5 1.657,0 8.8151,4.87019 21.5356,14.65225 3.3777,2.59751 8.25,6.129 10.8271,7.84775 10.2455,6.83295 20.5081,14.62979 25.6972,19.52302 4.9189,4.63846 5.4593,5.7211 5.4593,10.9375 0,4.25903 -0.669,6.36774 -2.5305,7.97698 -1.3918,1.20313 -3.8019,3.40453 -5.3558,4.89201 -1.5539,1.48748 -5.337,4.04677 -8.407,5.68729 -3.07,1.64053 -6.988,3.85364 -8.7067,4.91803 -4.7657,2.95127 -50.1421,2.45531 -53.5014,-0.58477 -1.2763,-1.15504 -3.4343,-2.10006 -4.7957,-2.10006 -1.3613,0 -3.567,-0.82586 -4.9015,-1.83525 -1.3346,-1.00937 -3.2702,-1.85386 -4.3014,-1.87662 -1.0313,-0.0228 -5.1153,-2.29067 -9.0757,-5.03977 -8.5819,-5.95711 -10.2518,-6.23882 -9.2526,-1.56086 0.4038,1.89063 1.5894,7.375 2.6345,12.1875 2.4688,11.36743 2.4556,29.50228 -0.03,41.53652 -8.1315,39.36738 -38.9972,70.23306 -78.36458,78.36461 -11.55167,2.38606 -31.07817,2.40587 -42.16152,0.0428 z m 35.85005,-18.78009 c 12.43515,-2.56854 20.20765,-5.71622 29.20906,-11.82896 26.96245,-18.30985 42.08973,-49.73053 37.66013,-78.22317 -3.9058,-25.12319 -16.50812,-44.83249 -37.99708,-59.42536 -14.83725,-10.07579 -36.23129,-15.13527 -52.98547,-12.53054 -25.12319,3.90581 -44.83249,16.50808 -59.42537,37.99705 -10.07578,14.83725 -15.13526,36.23129 -12.53053,52.98547 3.02038,19.42798 10.55208,34.45053 24.02873,47.92716 12.35899,12.35901 25.26042,19.42722 42.02389,23.02336 11.30455,2.42507 18.55153,2.44318 30.01664,0.075 z M 1098.5572,743.13008 c 1.923,-0.85443 4.5092,-2.46961 5.747,-3.58926 2.1442,-1.93941 2.0555,-2.16135 -1.875,-4.69145 -9.2406,-5.94824 -20.5113,-13.94047 -22.6313,-16.04818 -1.2407,-1.23341 -5.1782,-4.048 -8.75,-6.25462 -21.3974,-13.2189 -20.6088,-12.86295 -28.4984,-12.86295 -8.4746,0 -13.3507,2.03776 -19.8041,8.27621 l -4.3081,4.16467 2.0771,4.35556 c 1.6244,3.40649 4.9701,6.05772 15.3543,12.1671 7.3026,4.29633 17.3066,9.61207 22.2311,11.81276 8.2684,3.69497 10.0257,4.00976 22.9574,4.11248 8.6892,0.069 15.3306,-0.47837 17.5,-1.44232 z m -309.47763,-4.9599 c 5.07319,-2.20738 15.29735,-7.5876 22.72035,-11.95603 10.54004,-6.20281 13.94799,-8.88965 15.55813,-12.26613 l 2.06174,-4.32352 -4.30812,-4.16467 c -6.45335,-6.23845 -11.32948,-8.27621 -19.80406,-8.27621 -7.88957,0 -7.10098,-0.35595 -28.49836,12.86295 -3.57186,2.20662 -7.50937,5.02121 -8.75,6.25462 -2.12001,2.10771 -13.39078,10.09994 -22.63135,16.04818 -3.93208,2.53111 -4.02007,2.7516 -1.875,4.69894 4.42887,4.02065 8.62572,4.96687 22.40167,5.05071 12.99483,0.0791 14.50232,-0.17702 23.125,-3.92884 z M 590.17856,877.75253 c -39.14036,-8.34517 -69.94923,-39.30457 -78.02613,-78.40739 -11.37451,-55.06752 23.72647,-108.90183 78.3646,-120.18765 55.06753,-11.37451 108.90184,23.72647 120.18765,78.36461 11.37452,55.06752 -23.72646,108.90183 -78.3646,120.18764 -11.55167,2.38607 -31.07817,2.40588 -42.16152,0.0427 z m 35.85005,-18.78009 c 12.43515,-2.56854 20.20765,-5.71622 29.20906,-11.82896 26.96245,-18.30985 42.08977,-49.73053 37.6601,-78.22317 -3.90581,-25.12319 -16.50808,-44.83249 -37.99705,-59.42536 -14.83725,-10.07579 -36.23128,-15.13527 -52.98547,-12.53054 -25.12319,3.90581 -44.83249,16.50808 -59.42536,37.99705 -10.07579,14.83725 -15.13527,36.23129 -12.53054,52.98547 3.02039,19.42798 10.55208,34.45053 24.02874,47.92716 12.35898,12.35901 25.26041,19.42722 42.02388,23.02336 11.30455,2.42507 18.55153,2.44318 30.01664,0.075 z"
       style="fill:#ffffff" />
  </g>
</svg>
