<?xml version="1.0" encoding="UTF-8" standalone="no"?>
<!-- Created with Inkscape (http://www.inkscape.org/) -->

<svg
   xmlns:dc="http://purl.org/dc/elements/1.1/"
   xmlns:cc="http://creativecommons.org/ns#"
   xmlns:rdf="http://www.w3.org/1999/02/22-rdf-syntax-ns#"
   xmlns:svg="http://www.w3.org/2000/svg"
   xmlns="http://www.w3.org/2000/svg"
   xmlns:sodipodi="http://sodipodi.sourceforge.net/DTD/sodipodi-0.dtd"
   xmlns:inkscape="http://www.inkscape.org/namespaces/inkscape"
   width="352.77777mm"
   height="352.77777mm"
   viewBox="0 0 1250 1250"
   id="svg3912"
   version="1.1"
   inkscape:version="0.92.2 5c3e80d, 2017-08-06"
   sodipodi:docname="environmental.svg">
  <defs
     id="defs3914" />
  <sodipodi:namedview
     id="base"
     pagecolor="#ffffff"
     bordercolor="#666666"
     borderopacity="1.0"
     inkscape:pageopacity="0.0"
     inkscape:pageshadow="2"
     inkscape:zoom="0.35"
     inkscape:cx="1108.5714"
     inkscape:cy="1039.2857"
     inkscape:document-units="px"
     inkscape:current-layer="layer1"
     showgrid="false"
     fit-margin-top="0"
     fit-margin-left="0"
     fit-margin-right="0"
     fit-margin-bottom="0"
     showborder="false"
     inkscape:window-width="1440"
     inkscape:window-height="852"
     inkscape:window-x="0"
     inkscape:window-y="0"
     inkscape:window-maximized="1" />
  <metadata
     id="metadata3917">
    <rdf:RDF>
      <cc:Work
         rdf:about="">
        <dc:format>image/svg+xml</dc:format>
        <dc:type
           rdf:resource="http://purl.org/dc/dcmitype/StillImage" />
        <dc:title />
      </cc:Work>
    </rdf:RDF>
  </metadata>
  <g
     inkscape:label="Layer 1"
     inkscape:groupmode="layer"
     id="layer1"
     transform="translate(-126.42857,-321.64792)">
    <path
       inkscape:connector-curvature="0"
       id="path3992"
       d="m 433.49731,1175.612 c -1.89974,-2.0992 -2.06874,-14.0306 -2.06874,-146.0563 0,-137.60013 0.0979,-143.85893 2.2818,-145.83532 2.09909,-1.89964 18.73986,-2.09032 207.8125,-2.38122 l 205.5307,-0.31624 0.32581,-54.91627 c 0.2893,-48.76467 0.55457,-55.16906 2.36794,-57.17283 1.89029,-2.08874 5.5842,-2.28086 49.6742,-2.58371 l 47.63205,-0.32719 -0.23164,-5.26194 c -0.24697,-5.61017 -3.64473,-14.03666 -7.6751,-19.03431 l -2.45665,-3.04624 -10.09657,4.61527 c -14.30177,6.53751 -23.1583,8.3122 -41.58945,8.33375 -26.78489,0.0314 -49.82324,-5.98944 -80.45059,-21.02469 -25.48285,-12.50975 -48.79689,-31.77361 -70.625,-58.35584 -14.07091,-17.13552 -15.89241,-18.64392 -26.875,-22.2554 -17.60299,-5.7885 -31.22514,-7.46642 -54.82249,-6.75283 -19.48972,0.58939 -21.25011,0.45963 -23.4375,-1.72776 -2.95231,-2.95231 -2.94593,-3.82591 0.0711,-9.73976 8.4795,-16.6212 41.91105,-53.581 61.3139,-67.78477 26.04899,-19.06904 58.3776,-32.51772 91.25,-37.95992 26.73891,-4.42677 63.27346,-3.63749 89.375,1.93083 21.1622,4.51459 57.7936,25.24956 77.40821,43.81642 16.22047,15.35404 29.98231,36.98633 34.59098,54.3737 3.4573,13.04357 3.6951,37.38244 0.52852,54.09509 -2.28136,12.04063 -4.72803,16.4034 -9.1991,16.4034 -1.26301,0 -7.02864,-3.74227 -12.8125,-8.31616 -18.09584,-14.31021 -33.6033,-25.49777 -53.01615,-38.24744 -21.26889,-13.96866 -52.61633,-30.12903 -57.0937,-29.4332 -2.54214,0.39507 -2.20149,0.82205 2.7187,3.40761 10.68729,5.61619 30.68269,19.83774 46.875,33.33943 19.08288,15.91194 62.37056,58.84134 71.07654,70.48823 3.33561,4.46242 9.45269,15.00929 13.5935,23.4375 l 7.52875,15.32403 h 32.76937 c 30.159,0 32.9342,0.1821 34.8381,2.28593 1.907,2.10714 2.0688,18.02624 2.0688,203.55626 0,193.39999 -0.089,201.35119 -2.286,203.33909 -2.1142,1.9133 -25.67,2.0687 -313.55625,2.0687 -299.96616,0 -311.34547,-0.083 -313.33907,-2.2859 z M 845.17857,1029.7729 V 897.89792 h -198.75 -198.75 v 131.87498 131.875 h 198.75 198.75 z m -366.93181,3.8068 -3.06819,-3.0681 v -33.86368 -33.86364 l 3.06819,-3.06817 3.06817,-3.06819 h 33.86364 33.86364 l 3.06817,3.06819 3.06819,3.06817 v 33.86364 33.86368 l -3.06819,3.0681 -3.06817,3.0682 h -33.86364 -33.86364 z m 60.05681,-36.93178 v -23.125 h -23.125 -23.125 l -0.34318,21.83109 c -0.18873,12.00709 -0.0609,22.56669 0.28414,23.46579 0.4917,1.2814 5.56479,1.5611 23.46818,1.2939 l 22.84086,-0.3408 z m 71.19319,36.93178 -3.06819,-3.0681 v -33.86368 -33.86364 l 3.06819,-3.06817 3.06817,-3.06819 h 33.86364 33.86364 l 3.06817,3.06819 3.06819,3.06817 v 33.86364 33.86368 l -3.06819,3.0681 -3.06817,3.0682 h -33.86364 -33.86364 z m 60.05681,-36.93178 v -23.125 h -23.125 -23.125 l -0.34317,21.83109 c -0.18874,12.00709 -0.0609,22.56669 0.28413,23.46579 0.4917,1.2814 5.56479,1.5611 23.46818,1.2939 l 22.84086,-0.3408 z m 66.19319,35.68178 -3.06819,-3.0681 v -33.86368 -33.86364 l 3.06819,-3.06817 3.06817,-3.06819 h 33.86364 33.86364 l 3.06817,3.06819 3.06819,3.06817 v 33.86364 33.86368 l -3.06819,3.0681 -3.06817,3.0682 h -33.86364 -33.86364 z m 60.05681,-36.93178 v -23.125 h -23.125 -23.125 l -0.34317,21.83109 c -0.18874,12.00709 -0.0609,22.56669 0.28413,23.46579 0.4917,1.2814 5.56479,1.5611 23.46818,1.2939 l 22.84086,-0.3408 z m 250.62503,-23.125 v -189.375 h -91.25003 -91.25 v 189.375 189.37498 h 91.25 91.25003 z m -126.93184,60.05678 -3.06819,-3.0681 v -33.86368 -33.86364 l 3.06819,-3.06817 3.06817,-3.06819 h 33.86364 33.86364 l 3.06817,3.06819 3.06819,3.06817 v 33.86364 33.86368 l -3.06819,3.0681 -3.06817,3.0682 h -33.86364 -33.86364 z m 60.05681,-36.93178 v -23.125 h -23.125 -23.125 l -0.34317,21.83109 c -0.18874,12.00709 -0.0609,22.56669 0.28413,23.46579 0.4917,1.2814 5.56479,1.5611 23.46818,1.2939 l 22.84086,-0.3408 z m -60.05681,-95.56819 -3.06819,-3.06817 v -33.86364 -33.86364 l 3.06819,-3.06817 3.06817,-3.06819 h 33.86364 33.86364 l 3.06817,3.06819 3.06819,3.06817 v 33.86364 33.86364 l -3.06819,3.06817 -3.06817,3.06819 h -33.86364 -33.86364 z m 60.05681,-36.93181 v -23.125 h -23.125 -23.125 l -0.34317,21.83109 c -0.18874,12.00708 -0.0609,22.56671 0.28413,23.4658 0.4917,1.28135 5.56479,1.56106 23.46818,1.29392 l 22.84086,-0.34081 z m -5.64259,-99.0625 c -0.0287,-2.55226 -9.7999,-19.78188 -15.40511,-27.16395 -8.21072,-10.81356 -49.8367,-51.86502 -67.7023,-66.76791 -19.61547,-16.36257 -38.06665,-28.96611 -54.23097,-37.04384 -13.38657,-6.68961 -36.84118,-15.13316 -48.28483,-17.38232 -10.97904,-2.15784 -13.97231,-3.62769 -15.65361,-7.68672 -1.93146,-4.66296 0.13994,-10.21546 4.56271,-12.23061 4.6309,-2.10997 34.33215,-1.74512 48.07393,0.59055 18.01071,3.06126 33.06707,8.41224 55.27821,19.64571 21.68234,10.96603 48.70956,28.11959 72.37771,45.93648 17.20686,12.95299 16.36048,13.40932 16.26141,-8.76753 -0.1025,-22.9365 -3.86013,-34.04821 -18.45818,-54.58226 -15.69243,-22.07341 -55.90322,-48.49907 -82.42638,-54.16884 -34.2905,-7.33016 -73.99367,-6.15216 -107.3911,3.18629 -23.67309,6.61938 -41.96206,15.38391 -60.7339,29.10523 -10.93589,7.9936 -34.35749,31.08437 -42.93621,42.32972 l -5.9599,7.8125 h 13.03431 c 22.15344,0 43.0504,4.68509 59.92553,13.43526 6.71737,3.48313 9.56991,5.93759 13.98421,12.03271 11.80745,16.30333 33.46436,38.10724 50.78177,51.12647 11.02757,8.29052 33.00179,19.0356 49.96564,24.43248 19.42075,6.17853 32.15091,8.07344 49.95465,7.43584 17.69059,-0.63355 26.92449,-3.14309 39.01394,-10.60301 8.91074,-5.49845 11.86717,-4.99025 20.00638,3.43902 6.89653,7.1423 12.89385,18.36659 15.17107,28.39339 1.31402,5.78584 2.18157,7.27124 4.64953,7.96085 4.74928,1.32705 6.16047,1.22009 6.14149,-0.46551 z"
       style="fill:#ffffff" />
  </g>
</svg>
