<?xml version="1.0" encoding="UTF-8" standalone="no"?>
<!-- Created with Inkscape (http://www.inkscape.org/) -->

<svg
   xmlns:dc="http://purl.org/dc/elements/1.1/"
   xmlns:cc="http://creativecommons.org/ns#"
   xmlns:rdf="http://www.w3.org/1999/02/22-rdf-syntax-ns#"
   xmlns:svg="http://www.w3.org/2000/svg"
   xmlns="http://www.w3.org/2000/svg"
   xmlns:sodipodi="http://sodipodi.sourceforge.net/DTD/sodipodi-0.dtd"
   xmlns:inkscape="http://www.inkscape.org/namespaces/inkscape"
   width="264.58334mm"
   height="264.58334mm"
   viewBox="0 0 937.50004 937.50003"
   id="svg4032"
   version="1.1"
   inkscape:version="0.92.2 5c3e80d, 2017-08-06"
   sodipodi:docname="integrity.svg">
  <defs
     id="defs4034" />
  <sodipodi:namedview
     id="base"
     pagecolor="#ffffff"
     bordercolor="#666666"
     borderopacity="1.0"
     inkscape:pageopacity="0.0"
     inkscape:pageshadow="2"
     inkscape:zoom="0.35"
     inkscape:cx="329.46428"
     inkscape:cy="857.32142"
     inkscape:document-units="px"
     inkscape:current-layer="layer1"
     showgrid="false"
     fit-margin-top="0"
     fit-margin-left="0"
     fit-margin-right="0"
     fit-margin-bottom="0"
     showborder="false"
     inkscape:window-width="1440"
     inkscape:window-height="852"
     inkscape:window-x="0"
     inkscape:window-y="0"
     inkscape:window-maximized="1" />
  <metadata
     id="metadata4037">
    <rdf:RDF>
      <cc:Work
         rdf:about="">
        <dc:format>image/svg+xml</dc:format>
        <dc:type
           rdf:resource="http://purl.org/dc/dcmitype/StillImage" />
        <dc:title />
      </cc:Work>
    </rdf:RDF>
  </metadata>
  <g
     inkscape:label="Layer 1"
     inkscape:groupmode="layer"
     id="layer1"
     transform="translate(-334.10715,-452.18362)">
    <path
       inkscape:connector-curvature="0"
       id="path4112"
       d="m 942.63716,1083.7461 c -64.36617,-64.3947 -94.91034,-95.78722 -95.47327,-98.12498 -1.46959,-6.10289 0.6609,-9.97586 11.71712,-21.30041 12.14059,-12.4352 15.49918,-14.63709 22.3263,-14.63709 4.59123,0 7.39087,2.66773 99.36983,94.68748 64.36616,64.3948 94.91036,95.7873 95.47326,98.125 1.4696,6.1029 -0.6609,9.9759 -11.7171,21.3004 -12.1406,12.4352 -15.4992,14.6371 -22.3263,14.6371 -4.5912,0 -7.3909,-2.6677 -99.36984,-94.6875 z M 680.35715,999.67345 c -21.45054,-2.94953 -45.44286,-10.18382 -63.125,-19.03378 -54.20968,-27.1321 -90.09224,-74.3594 -103.29728,-135.95605 -4.07975,-19.03056 -4.07975,-55.96944 0,-75 11.50997,-53.68972 40.02726,-96.29422 83.29728,-124.44515 20.85051,-13.56509 42.97749,-22.56805 69.375,-28.22713 19.03056,-4.07974 55.96944,-4.07974 75,0 79.98472,17.14705 135.52522,72.68755 152.67227,152.67228 4.07976,19.03056 4.07976,55.96944 0,75 -17.08757,79.70725 -73.09109,135.87259 -152.04727,152.48658 -14.22579,2.9934 -48.28841,4.3714 -61.875,2.50325 z m 39.375,-15.11397 c 6.1875,-0.7519 18.84375,-3.26866 28.125,-5.59282 61.17924,-15.32014 112.67675,-66.84853 128.07652,-128.15334 8.58074,-34.15899 8.58074,-53.10041 0,-87.2594 -15.41194,-61.35326 -66.84356,-112.78488 -128.19682,-128.19683 -34.15899,-8.58073 -53.10041,-8.58073 -87.2594,0 -61.35326,15.41195 -112.78487,66.84357 -128.19682,128.19683 -8.58074,34.15899 -8.58074,53.10041 0,87.2594 15.41783,61.3767 66.84038,112.78399 128.24772,128.20964 26.37976,6.62666 39.8595,7.88723 59.2038,5.53652 z m -37.31144,-19.92399 c -26.23823,-5.36337 -40.86882,-11.24071 -60.18856,-24.17867 -24.24491,-16.23623 -59.375,-61.86187 -59.375,-77.11402 0,-6.21657 3.41767,-9.90918 9.17139,-9.90918 3.25497,0 6.4817,1.8248 14.6875,8.30619 29.69296,23.45311 56.92975,37.35217 89.94712,45.90045 14.52856,3.76148 26.78204,5.53036 45.85729,6.61982 17.01985,0.97208 19.12512,2.16015 19.02415,10.73604 -0.0344,2.92188 -2.42504,12.34375 -5.3125,20.9375 l -5.24995,15.625 -6.875,3.39738 c -9.03866,4.46658 -18.62811,4.39286 -41.68644,-0.32051 z"
       style="fill:#ffffff" />
  </g>
</svg>
