<?xml version="1.0" encoding="UTF-8" standalone="no"?>
<!-- Created with Inkscape (http://www.inkscape.org/) -->

<svg
   xmlns:dc="http://purl.org/dc/elements/1.1/"
   xmlns:cc="http://creativecommons.org/ns#"
   xmlns:rdf="http://www.w3.org/1999/02/22-rdf-syntax-ns#"
   xmlns:svg="http://www.w3.org/2000/svg"
   xmlns="http://www.w3.org/2000/svg"
   xmlns:sodipodi="http://sodipodi.sourceforge.net/DTD/sodipodi-0.dtd"
   xmlns:inkscape="http://www.inkscape.org/namespaces/inkscape"
   width="264.58334mm"
   height="264.58334mm"
   viewBox="0 0 937.50004 937.50003"
   id="svg4152"
   version="1.1"
   inkscape:version="0.92.2 5c3e80d, 2017-08-06"
   sodipodi:docname="products.svg">
  <defs
     id="defs4154" />
  <sodipodi:namedview
     id="base"
     pagecolor="#ffffff"
     bordercolor="#666666"
     borderopacity="1.0"
     inkscape:pageopacity="0.0"
     inkscape:pageshadow="2"
     inkscape:zoom="0.35"
     inkscape:cx="552.32142"
     inkscape:cy="617.32143"
     inkscape:document-units="px"
     inkscape:current-layer="layer1"
     showgrid="false"
     fit-margin-top="0"
     fit-margin-left="0"
     fit-margin-right="0"
     fit-margin-bottom="0"
     showborder="false"
     inkscape:window-width="1440"
     inkscape:window-height="852"
     inkscape:window-x="0"
     inkscape:window-y="0"
     inkscape:window-maximized="1" />
  <metadata
     id="metadata4157">
    <rdf:RDF>
      <cc:Work
         rdf:about="">
        <dc:format>image/svg+xml</dc:format>
        <dc:type
           rdf:resource="http://purl.org/dc/dcmitype/StillImage" />
        <dc:title />
      </cc:Work>
    </rdf:RDF>
  </metadata>
  <g
     inkscape:label="Layer 1"
     inkscape:groupmode="layer"
     id="layer1"
     transform="translate(-339.82144,-440.75507)">
    <path
       inkscape:connector-curvature="0"
       id="path4232"
       d="m 667.94644,1259.9711 c -23.18916,-2.5213 -43.1643,-9.4042 -55.31361,-19.0596 -10.3708,-8.242 -73.41474,-88.0683 -85.51673,-108.2814 -10.52202,-17.5742 -11.42829,-21.6405 -8.03622,-36.058 2.30762,-9.8083 7.62388,-16.8976 15.75177,-21.0053 8.80638,-4.4505 17.43492,-5.3837 26.86479,-2.9056 9.55635,2.5114 12.18939,4.2858 17.6603,11.9009 2.44706,3.4061 4.95895,6.193 5.58196,6.193 0.66325,0 1.13274,-28.4891 1.13274,-68.7366 0,-64.41273 0.14884,-69.12832 2.36602,-74.96348 3.33631,-8.78045 9.36946,-15.85499 16.84408,-19.75155 5.33824,-2.78286 7.88348,-3.31265 15.1649,-3.15655 4.8125,0.10312 10.08265,0.36659 11.71144,0.58536 2.61997,0.35193 3.15747,-0.35878 4.66166,-6.16387 4.7933,-18.49867 13.98805,-26.48033 30.56898,-26.53589 11.73976,-0.0394 19.98827,4.22896 24.97511,12.92373 2.02639,3.53309 3.68962,7.375 3.69609,8.53755 0.019,3.41636 2.21011,3.83322 8.17491,1.55524 6.30756,-2.40887 15.56095,-1.91435 21.48308,1.14812 8.14162,4.21019 15.44879,15.0733 17.19997,25.57005 l 0.89872,5.38715 6.74489,-0.84273 c 15.36189,-1.91933 26.82218,3.42375 32.3341,15.07502 l 3.17605,6.71361 v 113.62744 c 0,127.0788 0.39329,120.9363 -9.06155,141.5274 -8.45886,18.422 -20.94944,27.9608 -41.56345,31.741 -23.37252,4.2861 -53.44847,6.5028 -67.5,4.975 z m 47.5,-21.0833 c 32.53794,-4.5857 38.09483,-7.6715 45.41214,-25.2174 6.49166,-15.5663 6.42455,-14.1848 6.44438,-132.6596 l 0.0185,-110.36937 -3.22004,-3.22003 c -2.79246,-2.79247 -3.98572,-3.13373 -8.98649,-2.57008 -3.51578,0.39629 -6.40596,1.52455 -7.40496,2.89077 -1.28731,1.7605 -1.63851,13.06117 -1.63851,52.72301 v 50.4823 l -3.65385,3.6538 c -4.4687,4.4687 -8.77171,4.6727 -13.46395,0.6384 l -3.5072,-3.0155 -0.625,-65.6446 c -0.6078,-63.83762 -0.69591,-65.73953 -3.20106,-69.0932 -5.44013,-7.28277 -14.10295,-6.45609 -17.7969,1.69832 -1.87944,4.14886 -2.19979,11.8018 -2.75204,65.74258 l -0.625,61.0472 -3.5072,3.0153 c -4.69229,4.0342 -8.99529,3.8302 -13.46395,-0.6385 l -3.65385,-3.6538 v -67.18128 c 0,-67.8654 -0.71403,-81.0465 -4.60084,-84.93331 -2.5841,-2.5841 -11.98144,-2.34659 -15.35875,0.38818 -5.7267,4.63719 -6.24986,11.83845 -6.27088,86.31773 l -0.0195,69.15868 -3.65385,3.6538 c -4.74124,4.7413 -9.20106,4.7413 -13.9423,0 l -3.65385,-3.6538 -0.005,-58.5337 c -0.005,-55.22606 -0.13837,-58.75291 -2.3709,-62.41406 -4.30679,-7.0628 -16.23977,-6.44951 -21.63305,1.1118 l -2.86605,4.01863 -0.625,84.17153 -0.625,84.1715 -3.5072,3.016 c -3.73349,3.2106 -8.23816,3.8423 -12.21641,1.7132 -1.33884,-0.7165 -7.80746,-8.4509 -14.37472,-17.1875 -6.56725,-8.7366 -12.88798,-16.2671 -14.04606,-16.7344 -3.42644,-1.3826 -13.61636,-1.1377 -17.01064,0.4088 -3.17171,1.4452 -4.87947,5.1347 -6.41988,13.8699 -0.73038,4.1417 -0.0721,5.936 5.7315,15.625 3.60615,6.0203 11.15746,17.1335 16.78071,24.696 19.2442,25.8808 60.34947,76.397 65.45489,80.4406 7.82845,6.2002 27.91893,12.3381 47.10781,14.3919 7.64271,0.818 29.80635,-0.3597 43.75,-2.3248 z m 213.125,21.1176 c -2.40625,-0.2905 -9.15625,-1.104 -15,-1.8078 -38.50571,-4.6376 -51.66955,-12.0341 -62.18845,-34.9425 -9.45484,-20.5911 -9.06155,-14.4486 -9.06155,-141.5274 V 968.10026 l 3.17605,-6.71361 c 5.51192,-11.65127 16.97221,-16.99436 32.3341,-15.07502 l 6.74489,0.84273 0.89872,-5.38715 c 1.75118,-10.49675 9.05835,-21.35987 17.19997,-25.57005 5.92213,-3.06247 15.17552,-3.55699 21.48308,-1.14812 5.9648,2.27798 8.15596,1.86112 8.17491,-1.55525 0.006,-1.16255 1.6697,-5.00445 3.69609,-8.53755 4.98684,-8.69476 13.23535,-12.96306 24.97511,-12.92372 16.58093,0.0556 25.77568,8.03722 30.56898,26.53589 1.50419,5.80508 2.04169,6.5158 4.66166,6.16387 1.62879,-0.21877 6.8989,-0.4822 11.7114,-0.58536 7.2815,-0.1561 9.8267,0.37369 15.1649,3.15655 7.4747,3.89656 13.5078,10.9711 16.8441,19.75155 2.2172,5.83516 2.366,10.55075 2.366,74.96348 0,40.2475 0.4695,68.7366 1.1328,68.7366 0.623,0 3.1349,-2.7869 5.5819,-6.193 5.471,-7.6151 8.104,-9.3895 17.6603,-11.9009 9.4299,-2.4781 18.0585,-1.5449 26.8648,2.9056 8.1279,4.1077 13.4442,11.197 15.7518,21.0053 3.3921,14.4175 2.4858,18.4838 -8.0362,36.058 -12.102,20.2131 -75.1459,100.0394 -85.5167,108.2814 -14.9308,11.8659 -37.40056,18.3341 -66.56366,19.1612 -8.9375,0.2534 -18.21875,0.2232 -20.625,-0.067 z m 43.5205,-21.2603 c 13.84702,-2.7686 25.85142,-7.2825 31.71236,-11.9244 5.1054,-4.0436 46.2106,-54.5598 65.4548,-80.4406 5.6233,-7.5625 13.1746,-18.6757 16.7808,-24.696 5.8036,-9.689 6.4618,-11.4833 5.7315,-15.625 -1.5405,-8.7352 -3.2482,-12.4247 -6.4199,-13.8699 -3.3943,-1.5465 -13.5842,-1.7914 -17.0107,-0.4088 -1.158,0.4673 -7.4788,7.9978 -14.046,16.7344 -6.5673,8.7366 -13.0359,16.471 -14.3747,17.1875 -3.9783,2.1291 -8.483,1.4974 -12.2165,-1.7132 l -3.5072,-3.016 -0.625,-84.1715 -0.625,-84.17153 -2.8663,-4.01863 c -5.3933,-7.56131 -17.3263,-8.1746 -21.63309,-1.11179 -2.23252,3.66114 -2.36649,7.18799 -2.37089,62.41405 l -0.005,58.5337 -3.65385,3.6538 c -4.74124,4.7413 -9.20107,4.7413 -13.9423,0 l -3.65353,-3.6538 -0.0195,-69.15868 c -0.021,-74.47928 -0.54419,-81.68054 -6.27089,-86.31773 -3.37731,-2.73477 -12.77465,-2.97228 -15.35875,-0.38818 -3.88684,3.88681 -4.60086,17.06791 -4.60086,84.93331 v 67.18128 l -3.65385,3.6538 c -4.46866,4.4687 -8.77166,4.6727 -13.46395,0.6385 l -3.5072,-3.0153 -0.625,-61.0472 c -0.55225,-53.94078 -0.8726,-61.59372 -2.75204,-65.74258 -3.69395,-8.15441 -12.35677,-8.98109 -17.7969,-1.69832 -2.50515,3.35367 -2.59326,5.25558 -3.20106,69.0932 l -0.625,65.6446 -3.5072,3.0155 c -4.69224,4.0343 -8.99525,3.8303 -13.46395,-0.6384 l -3.65385,-3.6538 v -50.4823 c 0,-39.66184 -0.3512,-50.96251 -1.63851,-52.72301 -0.999,-1.36622 -3.88918,-2.49448 -7.40497,-2.89077 -5.00076,-0.56365 -6.19402,-0.22239 -8.98648,2.57008 l -3.22004,3.22003 0.0185,110.36937 c 0.0199,118.4748 -0.0472,117.0933 6.44439,132.6596 3.34663,8.0248 7.36529,13.58 12.43545,17.1903 4.32305,3.0783 18.9556,6.4208 37.35168,8.5324 6.53125,0.7497 13.5625,1.5966 15.625,1.882 6.60745,0.9143 29.23219,-0.5479 39.1455,-2.53 z M 694.82144,872.64268 C 586.11953,818.85478 587.659,819.76343 582.53201,806.36578 c -2.69701,-7.04774 -2.71057,-7.57061 -2.71057,-104.53401 0,-84.47498 0.25139,-97.93698 1.88794,-101.10172 2.1687,-4.19381 5.36293,-6.22498 9.78944,-6.22498 1.70046,0 48.00306,22.17054 102.89467,49.26787 109.19876,53.90613 107.58313,52.95479 112.71738,66.37142 2.69701,7.04773 2.71057,7.57061 2.71057,104.53401 0,84.47497 -0.25139,97.93697 -1.88794,101.10172 -2.25001,4.35103 -5.43029,6.25912 -10.21739,6.13017 -1.96572,-0.053 -47.39394,-21.80469 -102.89467,-49.26758 z m 95,-66.34479 c 0,-64.11458 -0.41355,-92.72991 -1.36586,-94.50931 -0.87347,-1.63207 -20.13791,-11.77186 -53.4375,-28.12663 -28.6394,-14.06599 -69.84422,-34.53681 -91.56625,-45.49071 -21.72205,-10.95389 -40.42518,-19.91617 -41.5625,-19.91617 -1.90519,0 -2.06789,7.26682 -2.06789,92.36152 0,86.16587 0.14674,92.53129 2.1875,94.8924 1.80429,2.08752 57.50285,30.42892 98.4375,50.08848 5.5,2.64148 26.875,13.30753 47.5,23.70235 20.625,10.39481 38.48437,18.91218 39.6875,18.92746 2.06376,0.0263 2.1875,-5.17387 2.1875,-91.92939 z m 33.43747,113.10704 c -6.02359,-3.50842 -5.93747,-1.9713 -5.93747,-105.97656 0,-96.9634 0.0136,-97.48627 2.71057,-104.53401 5.13425,-13.41663 3.51862,-12.46529 112.71738,-66.37141 54.89161,-27.09734 101.19421,-49.26788 102.89471,-49.26788 4.4265,0 7.6207,2.03117 9.7894,6.22498 1.6366,3.16474 1.8879,16.62674 1.8879,101.10172 0,96.9634 -0.014,97.48627 -2.7105,104.53401 -5.1343,13.41663 -3.5186,12.46529 -112.71741,66.37141 -57.40535,28.33825 -101.21419,49.25173 -103.125,49.22987 -1.82712,-0.0209 -4.30644,-0.61137 -5.50958,-1.31213 z m 57.69292,-42.31603 c 21.72203,-10.95391 62.92685,-31.42472 91.56625,-45.4907 33.29962,-16.35478 52.56402,-26.49457 53.43752,-28.12664 0.9523,-1.7794 1.3658,-30.39473 1.3658,-94.50932 0,-84.63296 -0.1643,-91.95717 -2.0631,-91.95717 -1.1347,0 -19.2753,8.6812 -40.31248,19.29156 -21.03716,10.61035 -62.24239,31.07794 -91.56718,45.4835 -34.23172,16.81608 -53.8081,27.10811 -54.6875,28.75128 -0.95732,1.78878 -1.3697,30.2445 -1.3697,94.51648 0,84.71852 0.16277,91.95718 2.06789,91.95718 1.13732,0 19.84045,-8.96228 41.5625,-19.91617 z M 799.82144,680.45846 c -8.71066,-2.17453 -187.09828,-91.61713 -188.70235,-94.61435 -1.5723,-2.93786 -0.0145,-6.22545 4.19994,-8.8635 2.30005,-1.43973 44.56295,-17.22157 97.00241,-36.22269 9.28125,-3.36301 26.15625,-9.56882 37.5,-13.7907 49.94194,-18.5872 57.02371,-20.59975 65.59341,-18.64084 6.40915,1.46503 39.16439,12.46816 61.42554,20.63403 6.79582,2.49286 19.10605,6.93937 27.35605,9.88114 106.41206,37.94421 108.96846,38.93291 111.59106,43.15791 2.8492,4.59002 -0.2451,7.23955 -18.86614,16.15402 -9.74871,4.66701 -38.81867,18.76381 -64.59992,31.3262 -116.48416,56.75909 -103.86819,51.12904 -116.06054,51.79356 -6.01472,0.32783 -13.31097,-0.0337 -16.43946,-0.81478 z m 101.46128,-56.16348 c 46.67769,-22.11555 84.42871,-40.60589 83.89113,-41.08965 -0.53757,-0.48375 -16.16491,-6.31297 -34.72741,-12.95381 -18.5625,-6.64084 -40.21875,-14.5375 -48.125,-17.54813 -7.90625,-3.01063 -23.375,-8.65271 -34.375,-12.53794 -11,-3.88523 -27.53033,-9.84198 -36.73404,-13.23722 -9.20372,-3.39524 -18.73011,-6.17316 -21.16975,-6.17316 -2.43964,0 -13.47181,3.34476 -24.51595,7.43279 -11.04415,4.08804 -31.04901,11.4575 -44.45526,16.37659 -13.40625,4.91908 -30,11.08997 -36.875,13.71308 -6.875,2.6231 -23.40675,8.76969 -36.73721,13.65908 -13.33048,4.88938 -25.14298,9.39728 -26.25,10.01755 -1.54918,0.868 1.01037,2.54752 11.11221,7.29161 7.21875,3.39011 38.71875,18.6968 70,34.01487 31.28125,15.31808 63.0625,30.85939 70.625,34.53625 9.36311,4.55233 15.3002,6.68888 18.60886,6.6967 3.79919,0.009 23.36788,-8.75795 89.72742,-40.19861 z"
       style="fill:#ffffff" />
  </g>
</svg>
