<?xml version="1.0" encoding="UTF-8" standalone="no"?>
<!-- Created with Inkscape (http://www.inkscape.org/) -->

<svg
   xmlns:dc="http://purl.org/dc/elements/1.1/"
   xmlns:cc="http://creativecommons.org/ns#"
   xmlns:rdf="http://www.w3.org/1999/02/22-rdf-syntax-ns#"
   xmlns:svg="http://www.w3.org/2000/svg"
   xmlns="http://www.w3.org/2000/svg"
   xmlns:sodipodi="http://sodipodi.sourceforge.net/DTD/sodipodi-0.dtd"
   xmlns:inkscape="http://www.inkscape.org/namespaces/inkscape"
   width="264.58334mm"
   height="264.58334mm"
   viewBox="0 0 937.50004 937.50003"
   id="svg4272"
   version="1.1"
   inkscape:version="0.92.2 5c3e80d, 2017-08-06"
   sodipodi:docname="sourcing.svg">
  <defs
     id="defs4274" />
  <sodipodi:namedview
     id="base"
     pagecolor="#ffffff"
     bordercolor="#666666"
     borderopacity="1.0"
     inkscape:pageopacity="0.0"
     inkscape:pageshadow="2"
     inkscape:zoom="0.35"
     inkscape:cx="818.03573"
     inkscape:cy="620.17858"
     inkscape:document-units="px"
     inkscape:current-layer="layer1"
     showgrid="false"
     fit-margin-top="0"
     fit-margin-left="0"
     fit-margin-right="0"
     fit-margin-bottom="0"
     showborder="false"
     inkscape:window-width="1440"
     inkscape:window-height="852"
     inkscape:window-x="0"
     inkscape:window-y="0"
     inkscape:window-maximized="1" />
  <metadata
     id="metadata4277">
    <rdf:RDF>
      <cc:Work
         rdf:about="">
        <dc:format>image/svg+xml</dc:format>
        <dc:type
           rdf:resource="http://purl.org/dc/dcmitype/StillImage" />
        <dc:title />
      </cc:Work>
    </rdf:RDF>
  </metadata>
  <g
     inkscape:label="Layer 1"
     inkscape:groupmode="layer"
     id="layer1"
     transform="translate(-302.67856,-443.61221)">
    <path
       inkscape:connector-curvature="0"
       id="path4354"
       d="m 580.52878,1109.9604 c -20.35456,-5.0021 -34.73475,-15.9927 -43.85051,-33.5143 -12.53216,-24.0884 -8.16351,-51.6735 11.49394,-72.5765 7.87665,-8.37579 22.62313,-15.87206 35.41238,-18.00166 17.47131,-2.90924 39.92462,4.10135 52.63175,16.43316 14.03441,13.62 19.67363,28.4391 18.66718,49.0548 -0.74898,15.3421 -3.40725,23.2548 -11.59046,34.5009 -9.04814,12.4348 -20.82437,19.7955 -38.419,24.0136 -12.25061,2.937 -12.7524,2.9389 -24.34528,0.09 z m 26.52478,-38.8776 c 9.80615,-6.7262 13.24293,-13.2491 12.64636,-24.0023 -0.70573,-12.721 -9.21401,-22.7988 -22.02136,-26.0836 -8.378,-2.1488 -15.06829,0.1061 -23.2374,7.8322 -5.58905,5.2859 -6.85424,7.3283 -8.02099,12.9485 -2.54376,12.2533 1.37939,22.1077 11.60112,29.1404 8.86371,6.0984 20.28708,6.1632 29.03227,0.1648 z m 349.375,39.2875 c -4.46875,-0.9575 -12.70797,-3.9935 -18.30939,-6.7466 -12.06447,-5.9297 -19.88045,-13.8191 -27.12196,-27.377 -4.0541,-7.5902 -5.01906,-10.9154 -6.1655,-21.2455 -1.75654,-15.8276 0.36999,-25.3247 8.80744,-39.3343 6.83269,-11.345 13.50115,-17.39213 26.22949,-23.78543 17.72196,-8.90154 35.35257,-8.99385 54.46253,-0.28516 19.83553,9.03929 31.12193,24.54079 35.69613,49.02739 3.1582,16.9064 -4.9632,39.2006 -19.2925,52.9603 -8.8175,8.4669 -16.6717,12.5673 -31.18079,16.2781 -11.16631,2.8559 -12.07538,2.8758 -23.12545,0.5082 z m 25.89867,-39.955 c 3.58802,-2.3524 7.3554,-5.8855 8.37195,-7.8513 6.69245,-12.9417 4.77932,-25.0789 -5.39501,-34.2265 -10.46572,-9.4096 -20.66217,-10.5383 -31.7393,-3.5133 -8.48081,5.3783 -12.2427,11.0968 -13.03291,19.8114 -1.07509,11.8563 2.54717,19.5529 12.60245,26.778 8.23069,5.9141 19.22312,5.5382 29.19282,-0.9983 z m 62.14807,-34.8108 c -1.3803,-0.9668 -3.8385,-4.7637 -5.4627,-8.4375 -8.1449,-18.423 -9.5514,-20.6367 -19.381,-30.50349 -5.5429,-5.56393 -12.8905,-11.66169 -16.328,-13.55056 -8.47644,-4.65771 -25.6958,-9.50074 -33.77992,-9.50074 -16.60806,0 -36.68891,6.63161 -46.37434,15.31491 -5.69677,5.10734 -11.79812,8.43509 -15.46552,8.43509 -1.4404,0 -3.99957,-1.38069 -5.68707,-3.06819 l -3.06819,-3.06817 v -93.23864 -93.23864 l 3.06819,-3.06817 3.06817,-3.06819 h 58.85661 c 57.42377,0 58.98477,0.0644 64.11937,2.64278 11.3867,5.71808 14.9698,9.88236 31.9958,37.18502 10.4192,16.70814 24.6572,45.85096 28.4815,58.2972 l 3.4568,11.25 0.4208,57.1021 c 0.4121,55.92859 0.3669,57.20759 -2.1987,62.23649 -4.4236,8.6711 -8.0615,10.0263 -26.9279,10.0317 -11.9754,0 -16.9484,-0.4604 -18.7939,-1.753 z m 27.5783,-68.24229 v -49.375 l -4.2869,-16.875 -4.2868,-16.875 -20.5661,-30.625 c -11.3114,-16.84375 -21.4226,-31.60938 -22.4694,-32.8125 -1.7531,-2.01489 -5.8334,-2.1875 -51.70958,-2.1875 h -49.80626 v 73.62977 73.62978 l 6.68876,-3.62279 c 16.46917,-8.92009 47.82746,-11.59432 67.85712,-5.78689 29.81006,8.6432 52.05606,29.14561 63.09556,58.15022 0.9927,2.6081 1.7623,2.8403 8.2889,2.5 l 7.1947,-0.3751 z M 929.31398,904.61914 c -1.50677,-0.72814 -3.18916,-2.23694 -3.73866,-3.3529 -0.54949,-1.11597 -1.35185,-14.68528 -1.78304,-30.15403 -0.43117,-15.46875 -1.2044,-29.96096 -1.71827,-32.20493 -1.19563,-5.22098 1.05923,-10.78141 5.12285,-12.63292 3.5029,-1.59602 81.39384,-2.01979 83.72564,-0.45551 0.7529,0.5051 9.2764,12.73086 18.9409,27.16836 9.6646,14.4375 20.2265,30.04622 23.4708,34.68607 5.4685,7.82062 5.7904,8.69792 4.4121,12.02535 -0.8177,1.9741 -2.8814,4.22474 -4.586,5.00143 -4.1798,1.90441 -119.89443,1.82879 -123.84632,-0.0809 z m 101.33972,-19.51453 c 1.0103,-1.63461 -12.1927,-23.51423 -20.2493,-33.55656 l -5.3991,-6.72989 -30.22587,0.33453 -30.22587,0.33452 -0.34739,18.69509 c -0.19107,10.28228 -0.0681,19.42291 0.27326,20.3125 0.49092,1.2793 9.49791,1.61741 43.08613,1.61741 23.35604,0 42.74564,-0.45342 43.08814,-1.0076 z M 477.48186,1026.1438 c -6.47528,-1.9561 -10.94019,-5.5538 -14.1017,-11.3625 -7.31125,-13.4332 -1.31996,-27.81353 13.74567,-32.99247 l 4.92773,-1.69393 0.625,-131.47698 0.625,-131.47696 2.9809,-2.4136 c 2.91922,-2.36367 6.75927,-2.40664 185.625,-2.07688 l 182.6441,0.33673 9.13677,4.74061 c 8.82659,4.57969 9.28277,5.04528 13.4375,13.71474 l 4.30073,8.97413 v 140.40457 140.40454 l -3.06819,3.0682 -3.06817,3.0682 h -97.498 c -69.29025,0 -98.38683,-0.405 -100.57013,-1.3997 -2.1071,-0.9601 -4.49126,-4.5488 -7.58989,-11.4244 -19.69556,-43.70282 -71.15378,-62.23793 -114.45562,-41.22656 -16.1346,7.82899 -35.44236,28.89796 -40.7457,44.46236 -2.94893,8.6546 -5.00546,9.6071 -20.46994,9.4809 -7.23765,-0.059 -14.65412,-0.559 -16.48106,-1.111 z m 20.94436,-24.0832 c 11.96793,-26.68904 38.08663,-47.96779 68.00234,-55.40108 9.82655,-2.44163 42.45406,-2.35177 53.22687,0.1466 12.92564,2.99767 31.73519,12.65572 43.45487,22.31258 7.75866,6.39305 19.66999,22.29977 23.35354,31.187 l 2.92476,7.0565 h 86.03694 86.03695 l -0.32947,-130.93749 c -0.36692,-145.82777 0.24858,-136.27347 -9.07946,-140.9375 -4.91726,-2.45862 -7.8494,-2.5056 -177.1875,-2.83821 l -172.1875,-0.3382 v 127.4833 c 0,118.32565 -0.15551,127.80941 -2.16494,132.02321 -2.2027,4.61912 -9.18611,9.29489 -13.88221,9.29489 -3.1503,0 -6.23901,3.4809 -3.78113,4.2612 0.9368,0.2974 2.54703,0.8221 3.57828,1.1661 1.03125,0.3439 3.6177,0.6697 5.74766,0.724 3.38365,0.086 4.17284,-0.5707 6.25,-5.2029 z"
       style="fill:#ffffff" />
  </g>
</svg>
