<?xml version="1.0" encoding="UTF-8" standalone="no"?>
<!-- Created with Inkscape (http://www.inkscape.org/) -->

<svg
   xmlns:dc="http://purl.org/dc/elements/1.1/"
   xmlns:cc="http://creativecommons.org/ns#"
   xmlns:rdf="http://www.w3.org/1999/02/22-rdf-syntax-ns#"
   xmlns:svg="http://www.w3.org/2000/svg"
   xmlns="http://www.w3.org/2000/svg"
   xmlns:sodipodi="http://sodipodi.sourceforge.net/DTD/sodipodi-0.dtd"
   xmlns:inkscape="http://www.inkscape.org/namespaces/inkscape"
   width="264.58334mm"
   height="264.58334mm"
   viewBox="0 0 937.50004 937.50003"
   id="svg4391"
   version="1.1"
   inkscape:version="0.92.2 5c3e80d, 2017-08-06"
   sodipodi:docname="workplace.svg">
  <defs
     id="defs4393" />
  <sodipodi:namedview
     id="base"
     pagecolor="#ffffff"
     bordercolor="#666666"
     borderopacity="1.0"
     inkscape:pageopacity="0.0"
     inkscape:pageshadow="2"
     inkscape:zoom="0.35"
     inkscape:cx="852.32144"
     inkscape:cy="414.4643"
     inkscape:document-units="px"
     inkscape:current-layer="layer1"
     showgrid="false"
     fit-margin-top="0"
     fit-margin-left="0"
     fit-margin-right="0"
     fit-margin-bottom="0"
     showborder="false"
     inkscape:window-width="1440"
     inkscape:window-height="852"
     inkscape:window-x="0"
     inkscape:window-y="0"
     inkscape:window-maximized="1" />
  <metadata
     id="metadata4396">
    <rdf:RDF>
      <cc:Work
         rdf:about="">
        <dc:format>image/svg+xml</dc:format>
        <dc:type
           rdf:resource="http://purl.org/dc/dcmitype/StillImage" />
        <dc:title />
      </cc:Work>
    </rdf:RDF>
  </metadata>
  <g
     inkscape:label="Layer 1"
     inkscape:groupmode="layer"
     id="layer1"
     transform="translate(-382.67856,-466.46936)">
    <path
       inkscape:connector-curvature="0"
       id="path4485"
       d="m 671.78611,1277.2308 c -12.91929,-4.2212 -21.99478,-12.2243 -27.73116,-24.4544 -2.70513,-5.7674 -3.25139,-8.7216 -3.25139,-17.5833 0,-9.4973 0.44148,-11.5481 4.0746,-18.928 4.74212,-9.6326 11.51864,-16.2433 21.40039,-20.8768 5.86337,-2.7493 8.78192,-3.2939 17.65001,-3.2939 8.86809,0 11.78664,0.5446 17.65001,3.2939 9.88175,4.6335 16.65826,11.2442 21.40039,20.8768 3.63312,7.3799 4.0746,9.4307 4.0746,18.928 0,8.8964 -0.54269,11.8086 -3.29396,17.6763 -7.25674,15.4764 -21.05503,24.8714 -37.68123,25.6563 -5.43864,0.2568 -11.11794,-0.2578 -14.29226,-1.2949 z m 339.99999,0 c -12.91928,-4.2212 -21.99476,-12.2243 -27.73115,-24.4544 -2.70513,-5.7674 -3.25139,-8.7216 -3.25139,-17.5833 0,-9.4973 0.44147,-11.5481 4.0746,-18.928 4.74212,-9.6326 11.51864,-16.2433 21.40034,-20.8768 5.8634,-2.7493 8.782,-3.2939 17.6501,-3.2939 8.868,0 11.7866,0.5446 17.65,3.2939 9.8817,4.6335 16.6582,11.2442 21.4004,20.8768 3.6331,7.3799 4.0746,9.4307 4.0746,18.928 0,8.8964 -0.5427,11.8086 -3.294,17.6763 -7.2567,15.4764 -21.055,24.8714 -37.6812,25.6563 -5.4387,0.2568 -11.118,-0.2578 -14.2923,-1.2949 z m -78.00611,-19.4901 c -2.72438,-1.6319 -3.47584,-3.7441 -13.0351,-36.6402 -7.9493,-27.3557 -8.19797,-28.6191 -6.22534,-31.6297 2.51475,-3.838 4.70253,-4.7625 8.82267,-3.7284 4.22785,1.0611 5.32868,3.7952 15.07355,37.4373 l 8.28011,28.5854 -2.44478,3.2896 c -2.60635,3.5071 -7.15313,4.6733 -10.47112,2.686 z m -186.72643,-68.3154 c -9.17089,-1.4069 -18.23831,-4.9203 -29.31705,-11.3596 -19.94119,-11.5905 -30.57884,-23.8287 -34.58905,-39.7934 -2.39561,-9.537 -1.65298,-14.4719 3.97474,-26.413 1.681,-3.5668 3.05636,-6.9708 3.05636,-7.5644 0,-1.4877 15.09221,-24.2514 20.80351,-31.3782 11.54729,-14.409 37.925,-37.6194 56.9901,-50.1469 13.39699,-8.8031 31.83011,-6.1459 47.59963,6.8615 13.29767,10.9685 15.08556,16.0863 12.75967,36.524 -3.25216,28.5768 -12.23322,66.2542 -18.84633,79.0641 -0.8873,1.7187 -2.84693,5.8278 -4.35473,9.1312 -6.35594,13.9253 -19.7735,28.437 -29.74109,32.1664 -6.68365,2.5007 -21.24851,3.9956 -28.33576,2.9083 z m 22.5,-21.0088 c 5.26486,-2.1971 17.5296,-16.3914 18.96377,-21.9471 0.44369,-1.7188 1.5662,-4.2992 2.49449,-5.7342 7.54545,-11.6645 22.32682,-81.3836 19.0907,-90.045 -1.30952,-3.5048 -10.70073,-10.9896 -16.04799,-12.7901 -8.30233,-2.7956 -11.98166,-1.8872 -22.94768,5.6655 -28.04188,19.3135 -52.91658,45.9054 -63.51865,67.9038 -7.28894,15.1238 -7.71462,17.0611 -5.45599,24.8305 1.62894,5.6033 3.55,8.415 10.33607,15.1277 16.75954,16.5785 40.87278,23.7547 57.08528,16.9889 z m 169.1433,15.8004 c -7.76425,-2.3216 -12.16927,-5.9102 -20.28766,-16.5276 -5.93195,-7.7579 -14.48064,-21.898 -14.48064,-23.9519 0,-0.7414 -1.08169,-3.1019 -2.40376,-5.2455 -5.51903,-8.9488 -13.91365,-38.1133 -17.49253,-60.7725 -2.0064,-12.7033 -2.68872,-31.2922 -1.33337,-36.3256 2.69604,-10.0123 15.21541,-21.4656 29.19099,-26.7053 10.03725,-3.7631 18.52025,-4.1097 24.58687,-1.0044 11.36237,5.8158 41.37153,30.766 57.18429,47.544 12.31005,13.0615 25.97695,31.8904 27.35645,37.6892 0.4157,1.7474 1.2833,3.8485 1.928,4.6691 1.9062,2.4263 4.7022,14.3385 4.7182,20.1017 0.034,12.3958 -10.8054,32.0892 -22.6105,41.0778 -8.924,6.795 -25.21763,15.9588 -32.96854,18.5421 -9.2005,3.0665 -24.75566,3.4899 -33.3878,0.9089 z m 30.2317,-19.6034 c 24.82665,-8.7747 43.37764,-31.2752 39.04744,-47.3608 -2.8148,-10.4563 -8.34363,-20.4178 -18.12605,-32.6583 -13.80664,-17.276 -57.28613,-54.367 -63.74785,-54.3812 -6.14218,-0.014 -14.90793,4.3725 -20.33576,10.1753 l -5.48166,5.8603 0.67364,11.0478 c 1.46835,24.0816 8.65073,55.0506 16.7674,72.2978 1.94128,4.125 4.16795,9.1804 4.94816,11.2344 3.2008,8.4261 16.36613,23.9516 21.71493,25.6078 5.13731,1.5907 17.47406,0.6741 24.53975,-1.8231 z m -343.30154,11.168 c -2.35886,-2.3589 -2.98886,-3.981 -2.42251,-6.2375 0.74396,-2.9642 36.55714,-49.634 40.48827,-52.7621 3.02958,-2.4108 6.29318,-1.8688 9.78732,1.6254 2.35886,2.3588 2.98886,3.9809 2.42251,6.2374 -0.74396,2.9642 -36.55714,49.634 -40.48828,52.7622 -3.02957,2.4107 -6.29317,1.8687 -9.78731,-1.6254 z m 181.25,-2.5 c -2.35886,-2.3589 -2.98886,-3.981 -2.42251,-6.2375 0.74396,-2.9642 36.55714,-49.634 40.48827,-52.7621 3.02958,-2.4108 6.29318,-1.8688 9.78732,1.6254 2.35886,2.3588 2.98886,3.9809 2.42251,6.2374 -0.74396,2.9642 -36.55714,49.634 -40.48828,52.7622 -3.02957,2.4107 -6.29317,1.8687 -9.78731,-1.6254 z M 1028.78,1098.9907 c -2.7244,-1.6319 -3.4759,-3.7441 -13.0351,-36.6402 -7.9493,-27.3557 -8.198,-28.6191 -6.2254,-31.6297 2.5148,-3.838 4.7026,-4.7625 8.8227,-3.7284 4.2279,1.0611 5.3287,3.7952 15.0736,37.4373 l 8.2801,28.5854 -2.4448,3.2896 c -2.6064,3.5071 -7.1531,4.6733 -10.4711,2.686 z M 651.01724,1033.319 c -15.00749,-6.4026 -28.36687,-12.6189 -29.6875,-13.8141 -4.71749,-4.2693 -1.44849,-13.0395 4.85719,-13.0311 4.02015,0 58.16759,22.6123 61.5997,25.7184 5.03204,4.5539 1.38448,13.1208 -5.49145,12.8976 -2.1954,-0.071 -16.27047,-5.3681 -31.27794,-11.7708 z m 486.66136,-8.8031 c -13.4063,-3.7311 -26.4591,-7.364 -29.0063,-8.0732 -5.9208,-1.6484 -8.4937,-4.2593 -8.4937,-8.6189 0,-4.184 3.4455,-7.6044 7.6603,-7.6044 2.3705,0 47.3943,11.7808 60.1448,15.7372 5.8929,1.8286 7.9879,9.5263 3.6589,13.444 -3.416,3.0915 -7.3233,2.5295 -33.964,-4.8847 z m -516.45085,-24.3003 c -14.3929,-2.29535 -25.95705,-10.91863 -33.38055,-24.89157 -5.74948,-10.82195 -7.66864,-20.29061 -7.66864,-37.83498 0,-23.93972 5.38271,-39.26283 17.67439,-50.31409 6.59442,-5.92896 11.87228,-7.7447 26.40637,-9.08455 29.36542,-2.70711 58.02464,2.09254 91.67805,15.35361 26.90366,10.60134 34.96964,16.27055 39.18715,27.54285 3.50011,9.35486 4.31028,17.79919 2.63221,27.43534 -1.69823,9.752 -4.64336,16.07296 -9.65119,20.71387 -6.98393,6.47222 -49.11634,22.60103 -73.45112,28.11801 -15.21954,3.45041 -41.29689,4.89591 -53.42667,2.96151 z m 45.02802,-20.12242 c 10.72213,-2.17581 47.86245,-13.91326 50.79779,-16.05362 0.6875,-0.5013 4.625,-2.2187 8.75,-3.81642 4.125,-1.59774 8.45755,-3.72137 9.6279,-4.71918 2.84885,-2.42885 5.15786,-14.13282 4.07462,-20.65354 -1.50251,-9.04462 -3.70977,-11.78822 -13.42243,-16.68392 -31.94524,-16.10211 -71.77612,-24.79929 -99.44482,-21.71405 -10.9982,1.22637 -12.40913,1.69278 -16.2371,5.3675 -15.99153,15.35132 -16.85467,51.31682 -1.69187,70.4979 4.86785,6.15788 8.6027,8.26184 17.7187,9.98151 9.74182,1.83774 23.71312,1.06383 39.82721,-2.20618 z m 385.79783,19.25654 c -30.0878,-2.28326 -84.9186,-21.16945 -96.67528,-33.29926 -7.81079,-8.05868 -11.50901,-23.53659 -9.02794,-37.78395 2.86314,-16.44133 7.35998,-21.50199 26.32818,-29.6292 29.86604,-12.79656 59.78214,-21.40862 79.65134,-22.92956 5.348,-0.40938 10.0049,-0.89934 10.3487,-1.0888 2.1702,-1.19618 27.8908,3.06658 32.7778,5.43237 11.7307,5.67871 22.4253,20.20098 26.4919,35.97346 2.6331,10.21233 2.6702,36.02043 0.066,46.01764 -2.7182,10.43566 -8.7139,21.00292 -15.5393,27.38721 -4.8403,4.52755 -7.3922,5.83788 -14.522,7.45664 -8.9965,2.04258 -29.0943,3.28343 -39.8997,2.46345 z m 33.2717,-19.95176 c 11.8679,-1.82441 20.9473,-19.44154 21.0587,-40.86121 0.079,-15.09458 -6.9252,-32.44573 -15.7799,-39.0933 -13.2735,-9.96492 -42.5177,-7.92657 -82.8447,5.77435 -24.29663,8.25468 -37.69169,14.20207 -40.61419,18.03269 -3.06318,4.01498 -3.48318,20.56613 -0.6685,26.34387 4.77507,9.80189 51.63349,27.04289 83.07689,30.56716 9.5598,1.0715 26.1363,0.71766 35.7717,-0.76356 z m 96.4608,0.33281 c -12.9193,-4.22117 -21.9948,-12.22427 -27.7312,-24.45437 -2.7051,-5.76739 -3.2513,-8.72157 -3.2513,-17.58333 0,-9.49725 0.4414,-11.54804 4.0746,-18.92797 4.7421,-9.63263 11.5186,-16.24333 21.4003,-20.87678 5.8634,-2.74929 8.782,-3.29396 17.6501,-3.29396 8.868,0 11.7866,0.54467 17.65,3.29396 9.8817,4.63345 16.6582,11.24415 21.4004,20.87678 3.6331,7.37993 4.0746,9.43072 4.0746,18.92797 0,8.89648 -0.5427,11.80867 -3.294,17.6763 -7.2567,15.47645 -21.055,24.87141 -37.6812,25.65638 -5.4387,0.25676 -11.118,-0.25781 -14.2923,-1.29498 z m -682.49999,-1.25 c -12.91929,-4.22117 -21.99478,-12.22427 -27.73116,-24.45437 -2.70512,-5.76739 -3.25139,-8.72157 -3.25139,-17.58333 0,-9.49725 0.44147,-11.54804 4.07461,-18.92797 4.74212,-9.63263 11.51862,-16.24333 21.40038,-20.87678 5.86338,-2.74929 8.78193,-3.29396 17.65001,-3.29396 8.86809,0 11.78664,0.54467 17.65001,3.29396 9.88175,4.63345 16.65826,11.24415 21.40039,20.87678 3.63312,7.37993 4.0746,9.43072 4.0746,18.92797 0,8.89648 -0.54269,11.80867 -3.29396,17.6763 -7.25674,15.47645 -21.05503,24.87141 -37.68123,25.65638 -5.43863,0.25676 -11.11793,-0.25781 -14.29226,-1.29498 z m 69.23113,-113.91172 c -15.00749,-6.4026 -28.36687,-12.61897 -29.6875,-13.81413 -4.71749,-4.26927 -1.44849,-13.03947 4.85719,-13.03109 4.02015,0.005 58.16759,22.61232 61.5997,25.71834 5.03204,4.55393 1.38448,13.12084 -5.49145,12.89759 -2.1954,-0.0712 -16.27047,-5.3681 -31.27794,-11.77071 z m 474.16136,-2.55319 c -13.4063,-3.73104 -26.4591,-7.36394 -29.0063,-8.07312 -5.9208,-1.64848 -8.4937,-4.25937 -8.4937,-8.61893 0,-4.18403 3.4455,-7.60445 7.6603,-7.60445 2.3705,0 47.3943,11.7808 60.1448,15.73729 5.8929,1.82859 7.9879,9.52628 3.6589,13.44397 -3.416,3.09145 -7.3233,2.52949 -33.964,-4.88476 z m -128.86632,-4.37191 c -8.12723,-2.90865 -22.59531,-14.29068 -25.63347,-20.16584 -3.78004,-7.30977 -4.10275,-10.7603 -2.40316,-25.69469 3.25216,-28.57685 12.23322,-66.25416 18.84633,-79.06406 0.8873,-1.71875 2.84693,-5.82783 4.35473,-9.13127 3.06135,-6.70715 11.53037,-18.42988 17.74345,-24.56029 11.00331,-10.85692 30.20765,-13.87666 50.9584,-8.01285 9.10695,2.57347 29.10244,14.30776 36.70924,21.54262 13.1058,12.46512 20.2609,29.66429 17.184,41.30615 -2.6147,9.89339 -12.7087,30.57681 -17.868,36.61299 -1.9356,2.26471 -3.5207,4.51032 -3.5223,4.99025 -0.01,1.7277 -13.03453,16.82641 -22.7887,26.40933 -10.06316,9.88649 -29.20638,25.33716 -41.26996,33.30937 -5.84317,3.86145 -7.60552,4.37553 -15.94428,4.65084 -6.84099,0.22587 -11.2647,-0.36677 -16.36628,-2.19255 z m 29.67862,-23.41423 c 21.26795,-14.89638 43.66037,-36.55016 52.62111,-50.88536 1.719,-2.75 4.13669,-6.125 5.37259,-7.5 1.2359,-1.375 4.582,-7.82055 7.4357,-14.32345 5.5452,-12.6361 5.7863,-16.25396 1.6199,-24.31084 -3.3603,-6.49815 -14.16687,-16.80381 -22.71805,-21.66509 -10.96438,-6.23315 -10.93259,-6.22216 -22.62875,-7.82358 -8.47644,-1.16059 -11.2585,-1.06789 -16.86495,0.56195 -20.03104,5.82317 -35.86218,43.19262 -43.80263,103.39628 -2.06203,15.63414 -1.87983,16.32652 5.9638,22.66259 6.27409,5.06821 10.98408,6.91274 17.81394,6.97631 4.09918,0.0381 6.83541,-1.23899 15.18734,-7.08881 z m -169.50788,23.35523 c -3.77721,-1.50809 -23.85785,-16.41874 -35.67946,-26.4934 -21.38396,-18.22392 -45.70095,-46.88113 -49.87775,-58.78019 -0.76587,-2.18185 -1.87391,-4.72014 -2.46233,-5.64064 -1.90602,-2.98174 -4.50486,-14.43487 -4.52008,-19.92009 -0.0316,-11.41096 8.78117,-28.62915 19.81033,-38.70457 6.68328,-6.10535 26.77002,-17.8774 35.51208,-20.81224 10.21568,-3.42954 22.09651,-3.91285 32.14151,-1.30751 8.03371,2.08368 9.49437,2.97898 15.3863,9.43104 3.58046,3.92085 7.68203,8.72816 9.11458,10.68291 3.92313,5.35323 11.77036,19.1278 11.77036,20.66102 0,0.7414 1.08169,3.10189 2.40376,5.24554 5.51903,8.94875 13.91365,38.11333 17.49253,60.77254 2.0064,12.70324 2.68872,31.29214 1.33337,36.32554 -4.7617,17.68361 -36.43275,34.92518 -52.4252,28.54005 z m 18.27181,-19.62293 c 6.64269,-2.70451 13.70187,-8.58571 15.49157,-12.90643 2.91567,-7.03907 -1.76255,-41.30075 -8.72514,-63.89988 -7.27958,-23.628 -22.02069,-50.52837 -30.68788,-56.00091 -1.3586,-0.85783 -6.13985,-1.80126 -10.625,-2.09651 -25.5583,-1.6825 -57.55991,23.96511 -57.52523,46.10346 0.006,4.37081 6.60581,20.48136 10.74622,26.23556 11.34236,15.7632 31.76296,36.04257 52.03055,51.67071 5.689,4.38673 11.74989,9.12012 13.46864,10.51864 3.78725,3.08163 8.88247,3.20248 15.82627,0.37536 z m -109.60169,7.4881 c -2.40078,-1.94402 -3.58749,-6.46726 -8.28076,-31.5625 -6.644,-35.52612 -6.76072,-37.07887 -3.01516,-40.11185 3.59518,-2.9112 6.53414,-2.92201 10.09676,-0.0371 2.40078,1.94402 3.58749,6.46726 8.28075,31.5625 6.644,35.52612 6.76073,37.07887 3.01517,40.11185 -3.59518,2.9112 -6.53414,2.92201 -10.09676,0.0371 z m 360.65046,-87.98466 c -3.391,-1.909 -4.3333,-3.52256 -4.3559,-7.45821 -0.015,-2.6029 4.822,-8.55997 21.9843,-27.0753 12.1019,-13.056 23.1616,-24.04105 24.5771,-24.41121 2.6721,-0.69878 7.1189,1.06112 8.7128,3.44824 0.5051,0.75647 0.927,2.89852 0.9375,4.76013 0.015,2.63841 -4.014,7.73747 -18.2719,23.125 -28.3241,30.5683 -28.3272,30.5708 -33.5839,27.61135 z m -182.50004,-1.25 c -3.39091,-1.909 -4.33329,-3.52256 -4.35586,-7.45821 -0.0149,-2.6029 4.82202,-8.55997 21.98431,-27.0753 12.10189,-13.056 23.16159,-24.04105 24.57709,-24.41121 2.67211,-0.69878 7.11889,1.06112 8.71282,3.44824 0.5051,0.75647 0.92698,2.89852 0.9375,4.76013 0.0149,2.63841 -4.01403,7.73747 -18.2719,23.125 -28.32414,30.5683 -28.32719,30.5708 -33.58396,27.61135 z m -71.90042,-69.51534 c -2.40078,-1.94402 -3.58749,-6.46726 -8.28075,-31.5625 -6.644,-35.52612 -6.76073,-37.07887 -3.01517,-40.11185 3.59518,-2.9112 6.53414,-2.92201 10.09677,-0.0371 2.40077,1.94402 3.58748,6.46726 8.28074,31.5625 6.644,35.52612 6.76073,37.07887 3.01517,40.11185 -3.59518,2.9112 -6.53414,2.92201 -10.09676,0.0371 z m -117.11703,-6.96935 c -12.91929,-4.22117 -21.99478,-12.22427 -27.73116,-24.45437 -2.70513,-5.76739 -3.25139,-8.72157 -3.25139,-17.58333 0,-9.49725 0.44148,-11.54804 4.0746,-18.92797 4.74212,-9.63263 11.51864,-16.24333 21.40039,-20.87678 5.86337,-2.74929 8.78192,-3.29396 17.65001,-3.29396 8.86809,0 11.78664,0.54467 17.65001,3.29396 9.88175,4.63345 16.65826,11.24415 21.40039,20.87678 3.63312,7.37993 4.0746,9.43072 4.0746,18.92797 0,8.89648 -0.54269,11.80867 -3.29396,17.6763 -7.25674,15.47645 -21.05503,24.87141 -37.68123,25.65638 -5.43864,0.25676 -11.11794,-0.25782 -14.29226,-1.29498 z m 339.99999,0 c -12.91928,-4.22117 -21.99476,-12.22427 -27.73115,-24.45437 -2.70513,-5.76739 -3.25139,-8.72157 -3.25139,-17.58333 0,-9.49725 0.44147,-11.54804 4.0746,-18.92797 4.74212,-9.63263 11.51864,-16.24333 21.40034,-20.87678 5.8634,-2.74929 8.782,-3.29396 17.6501,-3.29396 8.868,0 11.7866,0.54467 17.65,3.29396 9.8817,4.63345 16.6582,11.24415 21.4004,20.87678 3.6331,7.37993 4.0746,9.43072 4.0746,18.92797 0,8.89648 -0.5427,11.80867 -3.294,17.6763 -7.2567,15.47645 -21.055,24.87141 -37.6812,25.65638 -5.4387,0.25676 -11.118,-0.25782 -14.2923,-1.29498 z"
       style="fill:#ffffff" />
  </g>
</svg>
